<svg width="20" height="20" viewBox="0 0 20 20" fill="none" xmlns="http://www.w3.org/2000/svg">
<g opacity="0.5">
<g clip-path="url(#clip0)">
<path d="M10.3025 12.4558C10.3025 10.9158 9.57 9.7775 8.05667 9.35083C9.16083 8.825 9.73667 8.02833 9.73667 6.78917C9.73667 4.34583 7.91 3.75 5.8025 3.75H0V16.0175H5.965C8.20167 16.0175 10.3025 14.9483 10.3025 12.4558ZM2.705 5.84417H5.24333C6.21917 5.84417 7.0975 6.1175 7.0975 7.24583C7.0975 8.2875 6.41417 8.70667 5.4475 8.70667H2.705V5.84417ZM2.70417 13.9342V10.5558H5.6525C6.84333 10.5558 7.59667 11.0508 7.59667 12.3075C7.59667 13.5467 6.6975 13.9342 5.59667 13.9342H2.70417Z" fill="#212121"/>
<path d="M15.6634 16.25C17.7917 16.25 19.17 15.2942 19.8334 13.2625H17.6734C17.4409 14.0208 16.4825 14.4217 15.7392 14.4217C14.305 14.4217 13.5517 13.5842 13.5517 12.1608H19.9792C19.99 12.0167 20 11.8608 20 11.705C20 9.07749 18.4584 6.88666 15.6634 6.88666C12.9475 6.88666 11.1042 8.92166 11.1042 11.5875C11.1034 14.3525 12.85 16.25 15.6634 16.25ZM15.5867 8.72833C16.8159 8.72833 17.4342 9.44833 17.5375 10.6258H13.555C13.6359 9.45833 14.4134 8.72833 15.5867 8.72833Z" fill="#212121"/>
<path d="M13.0558 4.39417H18.0458V5.6025H13.0558V4.39417Z" fill="#212121"/>
</g>
</g>
<defs>
<clipPath id="clip0">
<rect width="20" height="20" fill="white"/>
</clipPath>
</defs>
</svg>
