<svg width="20" height="20" viewBox="0 0 20 20" fill="none" xmlns="http://www.w3.org/2000/svg">
<g opacity="0.5">
<path d="M14.5862 0H5.41381C2.42858 0 0 2.42858 0 5.41381V14.5863C0 17.5714 2.42858 20 5.41381 20H14.5863C17.5714 20 20 17.5714 20 14.5863V5.41381C20 2.42858 17.5714 0 14.5862 0V0ZM18.8275 14.5863C18.8275 16.9249 16.9249 18.8275 14.5862 18.8275H5.41381C3.0751 18.8275 1.17248 16.9249 1.17248 14.5863V5.41381C1.17248 3.0751 3.0751 1.17248 5.41381 1.17248H14.5863C16.9249 1.17248 18.8275 3.0751 18.8275 5.41381V14.5863Z" fill="#212121"/>
<path d="M9.99996 4.53137C6.98452 4.53137 4.53137 6.98452 4.53137 9.99996C4.53137 13.0154 6.98452 15.4685 9.99996 15.4685C13.0154 15.4685 15.4685 13.0154 15.4685 9.99996C15.4685 6.98452 13.0154 4.53137 9.99996 4.53137ZM9.99996 14.2961C7.63119 14.2961 5.70386 12.3689 5.70386 9.99996C5.70386 7.63119 7.63119 5.70386 9.99996 5.70386C12.3689 5.70386 14.2961 7.63119 14.2961 9.99996C14.2961 12.3689 12.3689 14.2961 9.99996 14.2961Z" fill="#212121"/>
<path d="M15.5993 2.58923C14.7082 2.58923 13.9834 3.31418 13.9834 4.20514C13.9834 5.09625 14.7082 5.82119 15.5993 5.82119C16.4904 5.82119 17.2154 5.09625 17.2154 4.20514C17.2154 3.31402 16.4904 2.58923 15.5993 2.58923ZM15.5993 4.64856C15.3549 4.64856 15.1559 4.44958 15.1559 4.20514C15.1559 3.96054 15.3549 3.76172 15.5993 3.76172C15.8439 3.76172 16.0429 3.96054 16.0429 4.20514C16.0429 4.44958 15.8439 4.64856 15.5993 4.64856Z" fill="#212121"/>
</g>
</svg>
