<svg width="88" height="27" viewBox="0 0 88 27" fill="none" xmlns="http://www.w3.org/2000/svg">
<g clip-path="url(#clip0)">
<path d="M55.6757 25.6751C55.9804 25.6759 56.1567 25.8081 56.2987 25.5451C56.0866 25.5884 55.7028 25.4338 55.6757 25.6751ZM56.7533 25.6122C56.3125 25.3366 56.3419 25.8745 56.7533 25.6122ZM57.6056 25.6144C57.4858 25.8117 57.3486 25.9211 57.2073 25.9426C57.2563 25.7562 57.1282 25.7668 57.1507 25.6132C57.3011 25.5368 57.4512 25.5372 57.6011 25.6144L57.6056 25.6144ZM18.8144 0.772683C18.84 1.11298 18.9807 1.32188 19.0949 1.56364C18.7987 1.70553 18.2912 1.56149 18.1314 1.89032C18.2764 2.14313 18.7271 2.03459 18.9829 2.156C18.9242 2.63875 18.1656 2.29649 17.9044 2.54822C18.0936 2.81213 18.5441 2.76943 18.5827 3.20854C18.9623 3.25346 19.3419 3.34228 19.7168 3.47498C19.9553 3.47562 19.756 3.69459 19.7734 3.80439C19.9539 3.99145 20.3648 3.90475 20.5099 4.13561C20.1197 4.76015 18.9291 4.13138 18.4114 4.5251C19.691 4.87973 15.6256 3.93596 19.3302 4.19831C16.0628 5.51755 14.774 5.4702 15.586 5.637C16.6582 5.96913 17.7398 6.08177 18.8175 5.97491C18.6815 5.64529 18.1335 5.79747 17.9089 5.57737C18.0741 4.89735 18.8637 5.20677 19.4997 5.18652C19.4347 4.72539 18.8523 4.57018 19.3302 4.19831C19.2425 3.98954 18.8444 4.19701 18.8896 3.80202C18.9348 3.40704 19.3314 3.70443 19.4027 3.47414C18.9972 3.17673 18.5829 2.89026 18.4964 2.22055C19.062 2.07939 19.6317 2.03701 20.2012 2.09341C20.202 1.81903 19.9324 1.88416 19.8047 1.76309C20.0875 1.67605 20.3745 1.69877 20.6568 1.83122C20.6564 1.98488 20.4797 1.97343 20.4309 2.09403C20.6424 2.24824 20.8723 2.15008 21.0542 1.83229C21.8709 1.92227 22.7673 1.9137 23.5486 2.03652C23.6502 2.00386 23.7476 1.91632 23.8319 1.77387C27.3958 1.65171 21.0394 2.49635 24.7133 2.51716C27.9942 2.52594 29.2841 2.52939 32.596 2.53825C33.1082 2.53962 27.9878 4.98765 28.5 5C21.1345 5.24369 22.0704 3.38893 25.6818 3.68395C27.355 3.82013 21.3663 4.94075 23 5C23.4725 5.00126 23.7085 3.68833 24.181 3.68959C24.7683 3.69117 25.0812 3.70429 25.6818 3.68395C26.9094 3.68723 26.2635 3.82303 27.5 3.80439C30.9135 3.75865 19.6017 1.47719 22.9129 1.70555C23.4781 1.70706 24.9392 1.88882 25.5 1.89032C30.7106 1.90426 33.4434 2.34835 38.786 2.53825C39.0598 2.53898 38.9882 2.87902 39.2267 2.86868C40.592 2.57601 39.4416 3.14364 40.8811 3.13651C41.3492 3.13777 41.8089 3.0073 42.299 3.00861L44.7233 3.01509C45.2885 3.01661 45.8663 3.27058 46.4225 3.3489C46.7757 3.34984 47.1911 3.26315 47.5575 3.28608C47.8004 3.28673 48.0295 3.4849 48.237 3.48545C48.6786 3.48663 49.1204 3.41099 49.5972 3.42324C50.4804 3.42561 51.2847 3.19728 52.0927 3.23237C53.1481 3.23519 54.0966 3.55601 55.0988 3.63552C55.0627 3.9098 54.7676 3.63463 54.701 3.76615C55.0099 3.84381 55.9937 4.18667 55.951 3.6378C56.5319 4.39664 57.752 3.90602 58.6747 3.97434C59.4342 3.97637 60.1634 3.75882 60.8303 3.71671C61.2715 3.84959 61.7177 3.80688 62.1554 3.58855C63.2058 3.81086 64.6636 3.59526 65.9572 3.66457C65.9562 4.02675 66.2918 4.02765 66.3972 4.25841C66.9449 4.205 67.4968 4.25038 68.0439 4.39452C68.6318 4.19854 69.2193 4.11231 69.811 4.13584C69.9477 4.19109 70.0799 4.29022 70.2077 4.40031C70.3756 4.34588 70.133 4.23548 70.2086 4.07106C70.6236 4.07217 70.7151 4.54434 71.2851 4.40319C71.5056 4.51353 71.2859 4.11784 71.458 4.14025C72.6683 4.01179 73.8824 4.12479 75.0869 4.47922C76.2452 3.99941 77.7618 4.90343 79.1136 4.68754C79.467 4.63361 80.0328 4.4266 80.5321 4.29624C80.7971 4.29695 80.7784 4.67005 81.0433 4.69271C82.108 4.51996 83.0875 4.81891 84.3329 4.76736C84.6718 5.18533 84.9885 5.63615 85.3496 6.02125C84.9056 6.89807 85.7348 7.28442 85.8572 7.73473C85.914 7.95438 85.8336 8.30537 85.8549 8.59078C85.889 9.0628 86.0862 9.61209 86.0764 9.97424C86.0748 10.5779 85.6717 11.0707 85.6301 11.751C85.5885 12.4314 85.9006 12.9919 85.9078 13.5956C85.915 14.1992 85.5863 14.9117 85.6199 15.5703C86.3583 16.8674 86.2384 18.7658 86.5172 20.1933C86.3613 20.6758 86.2275 21.1803 86.0717 21.6408C86.8467 22.477 85.8358 23.9888 86.4029 24.9342C86.2785 25.2192 86.1453 25.4823 86.0034 25.7234C85.2956 26.1934 84.5581 26.2134 83.8483 25.7835C81.8689 26.1842 79.2438 25.3541 76.9825 25.5017C76.3875 25.0611 75.2162 25.4969 74.2049 25.4942C73.6 25.4926 73.0178 25.2277 72.4395 25.1603C71.7111 25.0705 70.8267 25.562 70.3424 25.023C69.181 25.0198 68.3322 25.3907 67.3352 25.0149C66.7517 25.2658 66.1555 25.2861 65.5687 25.076C63.5788 26.1133 60.542 25.6333 58.422 25.7813C58.0527 25.1876 57.0282 25.1849 56.0391 25.1822C53.7164 25.176 50.5282 25.1675 48.5333 24.767C47.654 24.9732 46.7664 24.9928 45.8837 24.8258C45.4068 24.8245 44.828 24.9547 44.3512 24.8875C44.0335 24.8099 43.7112 24.7871 43.3888 24.8191C43.1988 24.8406 43.0134 24.8401 42.8235 24.8176C42.6955 24.8173 42.5768 24.6304 42.4267 24.619C42.2765 24.6076 42.1702 24.75 42.0289 24.7496C41.8876 24.7493 41.7466 24.6172 41.6318 24.6169C40.9076 24.6149 40.1956 24.9752 39.645 24.4798C38.9865 24.6756 40.97 24.6809 40.3126 24.4816C40.0874 24.481 40.0825 24.6566 39.8707 24.6122C38.9304 24.4889 37.9638 24.3327 36.9792 24.2752C36.2771 24.2733 35.5439 24.3481 34.8243 24.2694C33.9414 24.1683 32.9702 24.0779 31.7603 24.0636C31.1152 24.2046 30.4662 24.137 29.8311 23.8609C29.3626 24.0243 30.8723 24.0283 30.4047 23.8625C30.0735 23.8616 29.711 24.0143 29.3843 23.9914C29.2562 23.9911 29.1904 23.8263 29.0448 23.793C28.4358 23.6377 27.0749 23.9633 26.4347 23.9177C26.2139 23.9171 25.9936 23.7409 25.8126 23.7185C24.9738 23.6284 23.896 23.7792 23.0305 23.7769C22.0281 23.7742 21.0086 23.5739 20.0239 23.5713C13.4002 23.5536 52.4474 23.7568 45.4935 23.376C44.01 23.2952 42.4906 23.4338 41.0113 23.4299C40.0487 23.4273 39.1174 23.2602 38.1769 23.2248C36.9273 23.2214 35.6377 23.2838 34.3748 23.2804C32.1271 23.2744 31.659 23.1305 29.2744 23.1351C28.144 23.1321 26.762 23.0735 25.5872 23.1252C24.8895 23.1233 24.1735 23.3848 23.489 23.383C20.3141 23.3745 24.8285 23.7268 21.6368 23.378C21.4116 23.3774 21.4067 23.553 21.1949 23.5086C20.2509 23.1219 18.7399 23.4361 17.6234 23.1697C16.5069 22.9034 14.9521 23.0858 13.8233 22.4352C11.5936 22.3524 28.5809 21.7833 26.2624 21.8758C24.2441 21.9582 15.9213 22.1335 13.5951 21.7761C13.5951 21.7761 13.1857 21.2921 12.9743 21.1159C12.5672 19.7759 13.2672 18.9217 13.4247 17.8246C13.4607 17.5393 13.7214 17.5071 13.7663 17.2329C13.7004 17.079 13.6435 16.8923 13.5954 16.7056C13.5648 16.6067 13.4331 16.332 13.4245 16.2442C13.399 15.86 13.6655 15.29 13.7111 14.7304C13.7751 13.9184 13.4985 13.336 14.0557 13.0192C14.1105 12.3608 14.0589 11.8339 14.2329 11.1758C14.4069 10.5178 14.7699 10.1785 14.7484 9.92604C14.727 9.67356 17.808 11.9536 17.6544 11.5691C17.6773 11.2619 14.5831 9.00369 14.8085 8.93844C14.8373 8.09343 15.8898 7.51457 15.4382 6.30609C15.6596 6.05426 15.9471 5.8904 16.0629 5.51755C15.667 4.96774 16.1054 4.48601 15.6256 3.93596C16.0155 3.42118 15.9345 2.35637 16.3112 1.83057C15.7705 0.929165 16.6857 0.492609 16.9962 -0.011417C17.504 -0.010058 18.0209 -0.107451 18.5287 -0.0731669C19.4384 -0.103658 16.3658 -0.0240799 17.2704 0.186869C17.4689 0.264226 17.5699 0.483999 17.7816 0.583342C18.0947 0.737831 18.4658 0.672974 18.8144 0.772683ZM39.0565 3.46089C39.2553 3.46142 39.6961 3.726 39.794 3.46286C39.5514 3.34148 39.2953 3.3408 39.0521 3.47185L39.0565 3.46089ZM46.6027 3.67863C47.2598 3.98769 47.931 3.98949 48.5898 3.68395C47.9851 3.55063 47.3973 3.74661 46.5982 3.68959L46.6027 3.67863ZM72.0711 4.4053L72.4686 4.40636C72.5403 3.9895 72.0982 4.19684 72.0667 4.41626L72.0711 4.4053ZM21.0709 5.71753C22.1161 6.21421 14.5216 5.73293 15.586 5.637C15.745 5.63743 15.027 6.6123 15.2391 6.55799C15.5438 6.58075 15.8486 6.51572 16.1493 6.36287C16.2169 5.8582 15.3951 6.0316 15.1303 5.96504C14.0889 5.70982 22.07 5.29218 20.8911 5.2561C20.9522 5.54161 21.3145 5.44381 21.0665 5.7285L21.0709 5.71753ZM19.2098 6.23936C19.3511 6.23974 19.4836 6.24009 19.4928 6.10841C19.3824 6.10812 19.4226 5.93263 19.2679 5.97611C19.2456 6.07483 19.1837 6.10759 19.223 6.25037L19.2098 6.23936Z" fill="url(#paint0_linear)"/>
</g>
<defs>
<linearGradient id="paint0_linear" x1="-60.9648" y1="13.0006" x2="87.0342" y2="13.3967" gradientUnits="userSpaceOnUse">
<stop stop-color="#4776E6"/>
<stop offset="1" stop-color="#8E54E9"/>
</linearGradient>
<clipPath id="clip0">
<rect x="-60.9304" width="148" height="26" transform="rotate(0.153327 -60.9304 0)" fill="white"/>
</clipPath>
</defs>
</svg>
