<svg width="502" height="45" viewBox="0 0 502 45" fill="none" xmlns="http://www.w3.org/2000/svg">
<g clip-path="url(#clip0)">
<path d="M104.561 0.589988C103.528 0.589988 102.929 0.362041 102.449 0.81793C103.168 0.741949 104.471 1.00789 104.561 0.589988ZM100.907 0.703959C102.3 0.24807 102.404 1.17884 100.907 0.703959V0.703959ZM98.0159 0.703959C98.4203 0.362043 98.8846 0.172087 99.3639 0.134096C99.1991 0.457017 99.6335 0.438024 99.5586 0.703959C99.0493 0.836927 98.5401 0.836927 98.0309 0.703959L98.0159 0.703959ZM468.435 43.5195C468.345 42.9306 467.866 42.5697 467.476 42.1518C468.48 41.9049 470.202 42.1518 470.741 41.582C470.247 41.1451 468.719 41.335 467.851 41.1261C468.045 40.2903 470.622 40.8791 471.505 40.4423C470.861 39.9864 469.334 40.0623 469.199 39.3025C467.911 39.2265 466.623 39.0746 465.349 38.8466C464.541 38.8466 465.215 38.4667 465.155 38.2768C464.541 37.9539 463.148 38.1058 462.653 37.7069C463.971 36.6242 468.015 37.7069 469.768 37.0231C465.424 36.4152 460.946 36.3962 456.108 35.9973C453.382 35.7694 450.581 35.3705 447.825 35.0856C444.186 34.5157 440.516 34.3257 436.861 34.5157C437.326 35.0856 439.183 34.8196 439.947 35.1995C439.393 36.3772 436.712 35.8454 434.555 35.8834C434.779 36.6812 436.757 36.9471 435.139 37.5929C435.439 37.9539 436.787 37.5929 436.637 38.2768C436.487 38.9606 435.139 38.4477 434.899 38.8466C436.277 39.3595 437.685 39.8534 437.985 41.0121C436.068 41.2591 434.135 41.335 432.203 41.2401C432.203 41.7149 433.117 41.601 433.551 41.8099C432.593 41.9619 431.619 41.9239 430.661 41.6959C430.661 41.43 431.26 41.449 431.424 41.2401C430.705 40.9741 429.927 41.1451 429.313 41.6959C426.542 41.544 423.501 41.563 420.85 41.354C420.506 41.411 420.176 41.563 419.891 41.8099C407.804 42.0379 395.223 42.8547 382.761 42.8357C371.633 42.8357 360.504 42.8357 349.271 42.8357C347.533 42.8357 345.811 42.7407 344.073 42.7217C331.686 42.7217 319 43.2156 306.748 42.7217C301.072 42.4938 295.35 42.4748 289.808 42.3798C288.206 42.3798 286.603 42.0379 285 42.0379C283.008 42.0379 281.046 42.2278 279.009 42.2658C274.845 42.2658 270.696 41.8859 266.503 41.9239C254.925 42.0189 242.897 42.3038 231.664 41.9239C229.747 41.9239 227.8 41.582 225.897 41.582C208.223 41.582 189.186 40.8602 171.063 40.5562C170.135 40.5562 170.374 39.9674 169.565 39.9864C164.937 40.4993 159.83 39.5115 154.947 39.5305C153.359 39.5305 151.802 39.7584 150.139 39.7584L141.916 39.7584C139.999 39.7584 138.037 39.3216 136.15 39.1886C134.951 39.1886 133.543 39.3405 132.3 39.3026C131.477 39.3026 130.698 38.9606 129.994 38.9606C128.496 38.9606 126.998 39.0936 125.381 39.0746C122.385 39.0746 119.659 39.4735 116.918 39.4165C113.338 39.4165 110.118 38.8657 106.718 38.7327C106.838 38.2578 107.841 38.7327 108.066 38.5048C107.018 38.3718 103.678 37.7829 103.827 38.7327C101.85 37.422 97.7163 38.2768 94.5859 38.1628C92.0097 38.1628 89.5383 38.5427 87.2767 38.6187C85.7789 38.3908 84.2661 38.4668 82.7833 38.8467C79.2186 38.4668 74.2759 38.8467 69.8873 38.7327C69.8873 38.1059 68.749 38.1059 68.3895 37.707C66.5323 37.8019 64.66 37.7259 62.8028 37.479C60.8107 37.8209 58.8186 37.9729 56.8116 37.9349C56.3473 37.8399 55.8979 37.669 55.4636 37.479C54.8944 37.574 55.7182 37.7639 55.4636 38.0489C54.0557 38.0489 53.7411 37.2321 51.809 37.479C51.0601 37.2891 51.809 37.9729 51.2248 37.9349C47.1209 38.1628 43.002 37.9729 38.913 37.365C34.9888 38.2008 29.8364 36.6432 25.2531 37.0231C24.0549 37.1181 22.1377 37.479 20.4452 37.707C19.5465 37.707 19.6064 37.0611 18.7077 37.0231C15.0981 37.327 11.773 36.8142 7.54922 36.9092C6.39592 36.1873 5.31751 35.4085 4.08932 34.7437C5.58711 33.224 2.77126 32.5592 2.35188 31.7804C2.15716 31.4005 2.42676 30.7926 2.35188 30.2988C2.23205 29.482 1.55803 28.5322 1.58799 27.9053C1.58799 26.8606 2.95098 26.0058 3.08578 24.8281C3.22058 23.6504 2.15717 22.6816 2.12721 21.6369C2.09726 20.5921 3.2056 19.3574 3.08578 18.2177C0.569486 15.9762 0.958916 12.6901 0.000328463 10.2207C0.524556 9.38486 0.973893 8.51107 1.49812 7.71326C-1.13799 6.26961 2.27699 3.64825 0.344836 2.01465C0.764218 1.52077 1.21355 1.06488 1.69284 0.64698C4.08931 -0.169821 6.59063 -0.207811 9.00207 0.533009C15.7122 -0.169821 24.624 1.25483 32.2927 0.988895C34.3147 1.74871 38.2839 0.988895 41.7139 0.988894C43.7658 0.988894 45.7429 1.44478 47.705 1.55875C50.1764 1.71072 53.172 0.855926 54.8195 1.7867C58.7587 1.7867 61.6345 1.14086 65.0195 1.7867C66.9966 1.3498 69.0186 1.31181 71.0107 1.67273C77.7507 -0.131835 88.0555 0.684966 95.2449 0.41903C96.5031 1.44478 99.978 1.44478 103.333 1.44478C111.211 1.44478 122.025 1.44478 128.795 2.12861C131.776 1.7677 134.787 1.72971 137.782 2.01464C139.4 2.01464 141.362 1.78669 142.98 1.90066C144.058 2.03363 145.151 2.07162 146.245 2.01464C146.889 1.97665 147.518 1.97665 148.162 2.01464C148.596 2.01464 149.001 2.33756 149.51 2.35655C150.019 2.37555 150.379 2.12861 150.858 2.12861C151.337 2.12861 151.817 2.35655 152.206 2.35655C154.662 2.35655 157.074 1.7297 158.946 2.5845C161.178 2.24258 163.454 2.24258 165.686 2.5845C166.45 2.5845 166.465 2.28057 167.184 2.35655C170.374 2.5655 173.654 2.83144 176.994 2.92641C179.376 2.92641 181.862 2.79344 184.304 2.92641C187.299 3.09737 190.594 3.24933 194.698 3.26833C196.885 3.02139 199.087 3.13536 201.244 3.61024C202.831 3.32531 204.464 3.32531 206.052 3.61024C207.175 3.61024 208.403 3.34431 209.512 3.3823C209.946 3.3823 210.171 3.66723 210.665 3.72421C212.732 3.99015 217.345 3.42029 219.517 3.49627C220.266 3.49627 221.015 3.80019 221.629 3.83818C224.474 3.99015 228.129 3.72421 231.065 3.72421C234.465 3.72421 237.925 4.06613 241.265 4.06613C263.732 4.06613 288.865 3.89517 312.455 4.52201C317.487 4.65498 322.64 4.40804 327.657 4.40804C330.923 4.40804 334.083 4.69297 337.273 4.74995C341.512 4.74995 345.885 4.63598 350.169 4.63598C357.793 4.63598 366.136 4.88292 374.224 4.86392C378.058 4.86392 382.746 4.9589 386.73 4.86392C389.097 4.86392 391.523 4.40803 393.845 4.40803C404.614 4.40803 416.312 3.81917 427.141 4.40803C427.905 4.40803 427.92 4.1041 428.639 4.18008C431.844 4.84492 436.966 4.29405 440.756 4.74994C444.545 5.20583 449.817 4.88291 453.652 6.00364C461.216 6.1366 468.884 7.20035 476.748 7.02939C483.593 6.87742 491.561 6.5355 499.454 7.14336C500.128 7.59924 500.847 7.97915 501.566 8.28308C502.959 10.6005 500.592 12.0822 500.068 13.9817C499.948 14.4756 499.065 14.5326 498.915 15.0074C499.14 15.2734 499.334 15.5963 499.499 15.9192C499.604 16.0902 500.053 16.5651 500.083 16.717C500.173 17.3819 499.274 18.3696 499.125 19.3384C498.915 20.744 499.859 21.7508 497.971 22.3017C497.792 23.4414 497.971 24.3532 497.387 25.4929C496.803 26.6326 495.575 27.2215 495.65 27.6584C495.725 28.0953 496.863 28.1332 497.387 28.7981C497.312 29.33 496.219 29.254 495.455 29.3679C495.365 30.8306 491.8 31.8373 493.343 33.9268C492.594 34.3637 491.621 34.6487 491.231 35.2945C492.579 36.2443 491.096 37.0801 492.729 38.0298C491.411 38.9226 491.696 40.7652 490.422 41.6769C492.265 43.2346 489.164 43.9944 488.116 44.8682C486.393 44.8682 484.641 45.0391 482.919 44.9821C479.833 45.0391 476.748 44.8872 473.677 44.5263C473.003 44.3933 472.659 44.0134 471.94 43.8424C470.876 43.5765 469.618 43.6905 468.435 43.5195ZM161.133 38.9606C160.459 38.9606 158.961 38.5047 158.632 38.9606C159.455 39.1696 160.324 39.1696 161.148 38.9416L161.133 38.9606ZM135.536 38.6187C133.304 38.0869 131.027 38.0869 128.795 38.6187C130.847 38.8467 132.84 38.5048 135.551 38.5997L135.536 38.6187ZM49.1429 37.479L47.7949 37.479C47.5552 38.2008 49.053 37.8399 49.1579 37.46L49.1429 37.479ZM460.736 34.9716C457.186 34.1168 453.562 33.7749 449.952 33.9458C449.413 33.9458 449.712 33.395 448.994 33.4899C447.96 33.452 446.927 33.5659 445.908 33.8319C445.683 34.7056 448.469 34.4017 449.368 34.5157C452.903 34.9526 457.351 35.7124 461.35 35.7694C461.141 35.2755 459.912 35.4465 460.751 34.9526L460.736 34.9716ZM435.528 34.0598C435.049 34.0598 434.6 34.0598 434.57 34.2878C434.944 34.2878 434.809 34.5917 435.334 34.5157C435.409 34.3447 435.618 34.2878 435.483 34.0408L435.528 34.0598Z" fill="url(#paint0_linear)"/>
</g>
<defs>
<linearGradient id="paint0_linear" x1="501.999" y1="22.4991" x2="0.000348986" y2="22.4992" gradientUnits="userSpaceOnUse">
<stop stop-color="#4776E6"/>
<stop offset="1" stop-color="#8E54E9"/>
</linearGradient>
<clipPath id="clip0">
<rect x="502" y="45" width="502" height="45" transform="rotate(180 502 45)" fill="white"/>
</clipPath>
</defs>
</svg>
