<svg width="345" height="31" viewBox="0 0 345 31" fill="none" xmlns="http://www.w3.org/2000/svg">
<g clip-path="url(#clip0)">
<path d="M71.8597 0.405626C71.1494 0.405626 70.7377 0.248596 70.4083 0.562653C70.9024 0.51031 71.7979 0.693511 71.8597 0.405626ZM69.348 0.484139C70.3053 0.170082 70.3774 0.811282 69.348 0.484139V0.484139ZM67.3614 0.48414C67.6393 0.248597 67.9584 0.117738 68.2878 0.0915669C68.1746 0.314024 68.4731 0.30094 68.4216 0.484139C68.0716 0.575739 67.7217 0.575739 67.3717 0.48414L67.3614 0.48414ZM321.932 29.9793C321.87 29.5736 321.541 29.325 321.273 29.0371C321.963 28.867 323.147 29.0371 323.517 28.6445C323.178 28.3436 322.128 28.4744 321.531 28.3305C321.665 27.7547 323.435 28.1604 324.042 27.8594C323.6 27.5453 322.55 27.5977 322.457 27.0743C321.572 27.0219 320.687 26.9172 319.812 26.7602C319.256 26.7602 319.719 26.4985 319.678 26.3676C319.256 26.1452 318.299 26.2499 317.959 25.9751C318.865 25.2292 321.644 25.9751 322.848 25.504C319.863 25.0852 316.785 25.0721 313.461 24.7973C311.587 24.6403 309.662 24.3655 307.768 24.1692C305.267 23.7767 302.745 23.6458 300.233 23.7767C300.552 24.1692 301.829 23.986 302.354 24.2477C301.973 25.0591 300.13 24.6927 298.648 24.7188C298.803 25.2684 300.161 25.4516 299.05 25.8965C299.255 26.1452 300.182 25.8965 300.079 26.3676C299.976 26.8387 299.05 26.4854 298.885 26.7602C299.832 27.1135 300.799 27.4537 301.005 28.252C299.688 28.4221 298.36 28.4744 297.032 28.409C297.032 28.7361 297.66 28.6576 297.958 28.8016C297.3 28.9063 296.631 28.8801 295.972 28.7231C295.972 28.5399 296.384 28.5529 296.497 28.409C296.003 28.2258 295.467 28.3436 295.045 28.7231C293.141 28.6184 291.051 28.6315 289.229 28.4875C288.993 28.5268 288.766 28.6315 288.571 28.8016C280.264 28.9586 271.617 29.5213 263.053 29.5082C255.405 29.5082 247.757 29.5082 240.036 29.5082C238.842 29.5082 237.659 29.4428 236.465 29.4297C227.952 29.4297 219.233 29.7699 210.813 29.4297C206.912 29.2727 202.979 29.2596 199.171 29.1942C198.069 29.1942 196.968 28.9586 195.867 28.9586C194.498 28.9586 193.149 29.0895 191.749 29.1156C188.888 29.1156 186.036 28.8539 183.154 28.8801C175.197 28.9455 166.931 29.1418 159.211 28.8801C157.894 28.8801 156.555 28.6446 155.248 28.6446C143.102 28.6446 130.018 28.1473 117.563 27.9379C116.925 27.9379 117.09 27.5323 116.534 27.5454C113.353 27.8987 109.843 27.2182 106.487 27.2313C105.396 27.2313 104.326 27.3883 103.183 27.3883L97.5319 27.3883C96.2143 27.3883 94.8658 27.0874 93.5689 26.9958C92.7454 26.9958 91.7778 27.1005 90.9234 27.0743C90.3572 27.0743 89.822 26.8387 89.3382 26.8387C88.3088 26.8387 87.2795 26.9303 86.1678 26.9173C84.109 26.9173 82.2356 27.1921 80.3519 27.1528C77.8917 27.1528 75.6786 26.7733 73.3419 26.6817C73.4243 26.3546 74.114 26.6817 74.2684 26.5247C73.5478 26.4331 71.2524 26.0274 71.3553 26.6817C69.9965 25.7788 67.1555 26.3677 65.0041 26.2891C63.2336 26.2891 61.5352 26.5509 59.9809 26.6032C58.9515 26.4462 57.9118 26.4985 56.8928 26.7602C54.4429 26.4985 51.046 26.7602 48.03 26.6817C48.03 26.2499 47.2477 26.2499 47.0006 25.9751C45.7242 26.0405 44.4375 25.9882 43.1611 25.8181C41.7921 26.0536 40.423 26.1583 39.0437 26.1321C38.7246 26.0667 38.4158 25.9489 38.1173 25.8181C37.7261 25.8835 38.2923 26.0143 38.1173 26.2106C37.1497 26.2106 36.9335 25.6479 35.6056 25.8181C35.091 25.6872 35.6056 26.1583 35.2042 26.1321C32.3838 26.2891 29.553 26.1583 26.7429 25.7395C24.0459 26.3153 20.505 25.2423 17.3551 25.504C16.5316 25.5694 15.214 25.8181 14.0508 25.9751C13.4332 25.9751 13.4744 25.5302 12.8568 25.504C10.376 25.7134 8.09087 25.3601 5.18808 25.4255C4.39547 24.9282 3.65433 24.3917 2.81026 23.9337C3.83962 22.8869 1.90442 22.4289 1.6162 21.8923C1.48238 21.6306 1.66767 21.2119 1.6162 20.8717C1.53385 20.309 1.07063 19.6547 1.09121 19.2229C1.09121 18.5032 2.02793 17.9143 2.12057 17.103C2.21322 16.2917 1.48239 15.6243 1.4618 14.9046C1.44121 14.1849 2.20292 13.3343 2.12057 12.5492C0.391249 11.005 0.658884 8.74122 9.42972e-05 7.04008C0.36037 6.46431 0.669178 5.86237 1.02945 5.31277C-0.782219 4.31826 1.56473 2.51243 0.236858 1.38706C0.525078 1.04683 0.83388 0.732773 1.16327 0.444887C2.81025 -0.117798 4.52928 -0.143969 6.18655 0.366373C10.7981 -0.117798 16.9228 0.863629 22.1931 0.680428C23.5827 1.20386 26.3105 0.680428 28.6678 0.680428C30.078 0.680428 31.4367 0.994483 32.7852 1.073C34.4836 1.17768 36.5424 0.588827 37.6747 1.23003C40.3819 1.23003 42.3582 0.785112 44.6846 1.23003C46.0433 0.929055 47.433 0.902884 48.802 1.15151C53.4341 -0.0916298 60.5161 0.471055 65.4571 0.287855C66.3217 0.994482 68.7098 0.994481 71.0156 0.994481C76.43 0.99448 83.862 0.99448 88.5147 1.46557C90.5631 1.21694 92.6321 1.19077 94.6908 1.38705C95.8026 1.38705 97.151 1.23002 98.2627 1.30853C99.0039 1.40013 99.7553 1.42631 100.507 1.38705C100.949 1.36088 101.382 1.36088 101.824 1.38705C102.123 1.38705 102.401 1.60951 102.751 1.62259C103.101 1.63568 103.348 1.46556 103.677 1.46556C104.007 1.46556 104.336 1.62259 104.604 1.62259C106.292 1.62259 107.949 1.19076 109.236 1.77962C110.769 1.54408 112.334 1.54408 113.868 1.77962C114.393 1.77962 114.403 1.57025 114.897 1.62259C117.09 1.76653 119.344 1.94973 121.639 2.01516C123.276 2.01516 124.985 1.92356 126.663 2.01516C128.721 2.13293 130.986 2.23762 133.807 2.2507C135.309 2.08059 136.823 2.1591 138.305 2.48624C139.396 2.28996 140.518 2.28996 141.609 2.48624C142.381 2.48624 143.225 2.30305 143.987 2.32922C144.285 2.32922 144.44 2.5255 144.779 2.56476C146.2 2.74796 149.37 2.35539 150.863 2.40773C151.378 2.40773 151.892 2.6171 152.314 2.64327C154.27 2.74796 156.782 2.56476 158.799 2.56476C161.136 2.56476 163.514 2.8003 165.809 2.8003C181.25 2.8003 198.522 2.68253 214.735 3.11435C218.193 3.20595 221.734 3.03584 225.183 3.03584C227.427 3.03584 229.599 3.23212 231.791 3.27138C234.704 3.27138 237.71 3.19286 240.654 3.19286C245.893 3.19286 251.627 3.36298 257.186 3.34989C259.821 3.34989 263.043 3.41532 265.781 3.34989C267.407 3.34989 269.075 3.03583 270.67 3.03583C278.071 3.03583 286.111 2.63017 293.553 3.03583C294.078 3.03583 294.088 2.82646 294.582 2.8788C296.785 3.3368 300.305 2.95732 302.91 3.27137C305.514 3.58543 309.137 3.36297 311.772 4.13503C316.971 4.22663 322.241 4.95943 327.645 4.84165C332.349 4.73697 337.826 4.50143 343.25 4.92017C343.713 5.23422 344.208 5.49594 344.702 5.70531C345.659 7.30176 344.033 8.32245 343.672 9.63102C343.59 9.97125 342.983 10.0105 342.88 10.3376C343.034 10.5208 343.168 10.7433 343.281 10.9658C343.353 11.0835 343.662 11.4107 343.683 11.5154C343.744 11.9734 343.127 12.6538 343.024 13.3212C342.88 14.2895 343.528 14.9831 342.231 15.3626C342.108 16.1477 342.231 16.7758 341.83 17.561C341.428 18.3461 340.584 18.7518 340.636 19.0527C340.687 19.3537 341.469 19.3799 341.83 19.8379C341.778 20.2043 341.027 20.1519 340.502 20.2304C340.44 21.238 337.99 21.9316 339.05 23.371C338.536 23.672 337.867 23.8683 337.599 24.3132C338.525 24.9675 337.506 25.5432 338.628 26.1975C337.723 26.8125 337.918 28.0819 337.043 28.71C338.309 29.783 336.179 30.3064 335.458 30.9084C334.274 30.9084 333.07 31.0261 331.886 30.9869C329.766 31.0261 327.645 30.9215 325.535 30.6728C325.072 30.5812 324.835 30.3195 324.341 30.2017C323.61 30.0185 322.745 30.0971 321.932 29.9793ZM110.739 26.8387C110.275 26.8387 109.246 26.5247 109.02 26.8387C109.586 26.9827 110.183 26.9827 110.749 26.8256L110.739 26.8387ZM93.1468 26.6032C91.6131 26.2368 90.0484 26.2368 88.5147 26.6032C89.9249 26.7602 91.294 26.5247 93.1571 26.5901L93.1468 26.6032ZM33.7734 25.8181L32.847 25.8181C32.6823 26.3153 33.7116 26.0667 33.7837 25.805L33.7734 25.8181ZM316.641 24.0907C314.202 23.5019 311.711 23.2663 309.23 23.3841C308.859 23.3841 309.065 23.0046 308.571 23.07C307.861 23.0439 307.151 23.1224 306.451 23.3056C306.296 23.9075 308.211 23.6981 308.828 23.7767C311.258 24.0776 314.315 24.6011 317.063 24.6403C316.919 24.3001 316.075 24.4179 316.652 24.0776L316.641 24.0907ZM299.317 23.4626C298.988 23.4626 298.679 23.4626 298.658 23.6196C298.916 23.6196 298.823 23.829 299.183 23.7767C299.235 23.6589 299.379 23.6196 299.286 23.4495L299.317 23.4626Z" fill="url(#paint0_linear)"/>
</g>
<defs>
<linearGradient id="paint0_linear" x1="344.999" y1="15.4986" x2="9.0198e-05" y2="15.4986" gradientUnits="userSpaceOnUse">
<stop stop-color="#4776E6"/>
<stop offset="1" stop-color="#8E54E9"/>
</linearGradient>
<clipPath id="clip0">
<rect x="345" y="31" width="345" height="31" transform="rotate(180 345 31)" fill="white"/>
</clipPath>
</defs>
</svg>
