<svg xmlns="http://www.w3.org/2000/svg" xmlns:xlink="http://www.w3.org/1999/xlink" aria-hidden="true" focusable="false" width="1em" height="1em" style="-ms-transform: rotate(360deg); -webkit-transform: rotate(360deg); transform: rotate(360deg);" preserveAspectRatio="xMidYMid meet" viewBox="0 0 24 24"><path d="M3.5 6a1 1 0 1 0 1 1a1 1 0 0 0-1-1zm4 2h14a1 1 0 0 0 0-2h-14a1 1 0 0 0 0 2zm0 3a1 1 0 1 0 1 1a1 1 0 0 0-1-1zm4 5a1 1 0 1 0 1 1a1 1 0 0 0-1-1zm10-5h-10a1 1 0 0 0 0 2h10a1 1 0 0 0 0-2zm0 5h-6a1 1 0 0 0 0 2h6a1 1 0 0 0 0-2z" fill="#5E5F62"/><rect x="0" y="0" width="24" height="24" fill="rgba(0, 0, 0, 0)" /></svg>