<svg xmlns="http://www.w3.org/2000/svg" xmlns:xlink="http://www.w3.org/1999/xlink" aria-hidden="true" focusable="false" width="1em" height="1em" style="-ms-transform: rotate(360deg); -webkit-transform: rotate(360deg); transform: rotate(360deg);" preserveAspectRatio="xMidYMid meet" viewBox="0 0 1024 1024"><path d="M928 392c8.8 0 16-7.2 16-16V192c0-8.8-7.2-16-16-16H744c-8.8 0-16 7.2-16 16v56H296v-56c0-8.8-7.2-16-16-16H96c-8.8 0-16 7.2-16 16v184c0 8.8 7.2 16 16 16h56v240H96c-8.8 0-16 7.2-16 16v184c0 8.8 7.2 16 16 16h184c8.8 0 16-7.2 16-16v-56h432v56c0 8.8 7.2 16 16 16h184c8.8 0 16-7.2 16-16V648c0-8.8-7.2-16-16-16h-56V392h56zM792 240h88v88h-88v-88zm-648 88v-88h88v88h-88zm88 456h-88v-88h88v88zm648-88v88h-88v-88h88zm-80-64h-56c-8.8 0-16 7.2-16 16v56H296v-56c0-8.8-7.2-16-16-16h-56V392h56c8.8 0 16-7.2 16-16v-56h432v56c0 8.8 7.2 16 16 16h56v240z" fill="#5E5F62"/><rect x="0" y="0" width="1024" height="1024" fill="rgba(0, 0, 0, 0)" /></svg>