<svg xmlns="http://www.w3.org/2000/svg" xmlns:xlink="http://www.w3.org/1999/xlink" aria-hidden="true" focusable="false" width="1em" height="1em" style="-ms-transform: rotate(360deg); -webkit-transform: rotate(360deg); transform: rotate(360deg);" preserveAspectRatio="xMidYMid meet" viewBox="0 0 24 24"><path d="M22.125 15.375H21v-3a1.127 1.127 0 0 0-1.125-1.125H12.75v-3h1.5a1.127 1.127 0 0 0 1.125-1.125V3.75a1.127 1.127 0 0 0-1.125-1.125h-4.5A1.127 1.127 0 0 0 8.625 3.75v3.375A1.127 1.127 0 0 0 9.75 8.25h1.5v3H4.125A1.127 1.127 0 0 0 3 12.375v3H1.875A1.127 1.127 0 0 0 .75 16.5v3.375A1.127 1.127 0 0 0 1.875 21h3.75a1.127 1.127 0 0 0 1.125-1.125V16.5a1.127 1.127 0 0 0-1.125-1.125H4.5V12.75h6.75v2.625h-1.125A1.127 1.127 0 0 0 9 16.5v3.375A1.127 1.127 0 0 0 10.125 21h3.75A1.127 1.127 0 0 0 15 19.875V16.5a1.127 1.127 0 0 0-1.125-1.125H12.75V12.75h6.75v2.625h-1.125A1.127 1.127 0 0 0 17.25 16.5v3.375A1.127 1.127 0 0 0 18.375 21h3.75a1.127 1.127 0 0 0 1.125-1.125V16.5a1.127 1.127 0 0 0-1.125-1.125zm-12-11.25h3.75V6.75h-3.75zM5.25 16.875V19.5h-3v-2.625zm8.25 0V19.5h-3v-2.625zm8.25 2.625h-3v-2.625h3z" fill="#5E5F62"/><rect x="0" y="0" width="24" height="24" fill="rgba(0, 0, 0, 0)" /></svg>