<svg xmlns="http://www.w3.org/2000/svg" xmlns:xlink="http://www.w3.org/1999/xlink" aria-hidden="true" focusable="false" width="0.87em" height="1em" style="-ms-transform: rotate(360deg); -webkit-transform: rotate(360deg); transform: rotate(360deg);" preserveAspectRatio="xMidYMid meet" viewBox="0 0 256 297"><defs><path d="M127.683 0C57.166 0 0 55.79 0 124.612s57.166 124.613 127.683 124.613l.271 46.913c65.606-37.27 128-87.019 128-171.526C255.954 55.791 198.2 0 127.683 0z" id="IconifyId-17064a5beba-93075e-655"/><path d="M127.683 0C57.166 0 0 55.79 0 124.612s57.166 124.613 127.683 124.613l.271 46.913c65.606-37.27 128-87.019 128-171.526C255.954 55.791 198.2 0 127.683 0z" id="IconifyId-17064a5beba-93075e-656"/><path d="M127.683 0C57.166 0 0 55.79 0 124.612s57.166 124.613 127.683 124.613l.271 46.913c65.606-37.27 128-87.019 128-171.526C255.954 55.791 198.2 0 127.683 0z" id="IconifyId-17064a5beba-93075e-657"/><path d="M55.58 128.105v34.239c0 9.039 7.396 16.435 16.435 16.435h85.016c9.039 0 16.434-7.396 16.434-16.435v-21.623l33.66 33.66v-46.276H55.58z" id="IconifyId-17064a5beba-93075e-658"/><filter x="-.4%" y="-.3%" width="100.8%" height="100.7%" filterUnits="objectBoundingBox" id="IconifyId-17064a5beba-93075e-659"><feOffset dy="2" in="SourceAlpha" result="shadowOffsetInner1"/><feComposite in="shadowOffsetInner1" in2="SourceAlpha" operator="arithmetic" k2="-1" k3="1" result="shadowInnerInner1"/><feColorMatrix values="0 0 0 0 1 0 0 0 0 1 0 0 0 0 1 0 0 0 0.2 0" in="shadowInnerInner1"/></filter><filter x="-.4%" y="-.3%" width="100.8%" height="100.7%" filterUnits="objectBoundingBox" id="IconifyId-17064a5beba-93075e-660"><feOffset dy="-2" in="SourceAlpha" result="shadowOffsetInner1"/><feComposite in="shadowOffsetInner1" in2="SourceAlpha" operator="arithmetic" k2="-1" k3="1" result="shadowInnerInner1"/><feColorMatrix values="0 0 0 0 0 0 0 0 0 0 0 0 0 0 0 0 0 0 0.1 0" in="shadowInnerInner1"/></filter><filter x="-1%" y="-3%" width="102.6%" height="111.8%" filterUnits="objectBoundingBox" id="IconifyId-17064a5beba-93075e-661"><feOffset dx="1" dy="3" in="SourceAlpha" result="shadowOffsetOuter1"/><feColorMatrix values="0 0 0 0 0 0 0 0 0 0 0 0 0 0 0 0 0 0 0.1 0" in="shadowOffsetOuter1"/></filter><linearGradient x1="26.07%" y1="68.042%" x2="74.949%" y2="19.279%" id="IconifyId-17064a5beba-93075e-662"><stop stop-color="#058B7E" offset="0%"/><stop stop-color="#058D80" offset="0%"/><stop stop-color="#058D7F" offset="100%"/></linearGradient><linearGradient x1="30.048%" y1="27.302%" x2="81.94%" y2="84.64%" id="IconifyId-17064a5beba-93075e-663"><stop offset="0%"/><stop stop-color="#D8D8D8" stop-opacity="0" offset="100%"/></linearGradient></defs><path d="M127.683 0C57.166 0 0 55.79 0 124.612s57.166 124.613 127.683 124.613l.271 46.913c65.606-37.27 128-87.019 128-171.526C255.954 55.791 198.2 0 127.683 0z" fill="url(#IconifyId-17064a5beba-93075e-662)"/><use filter="url(#IconifyId-17064a5beba-93075e-659)" xlink:href="#IconifyId-17064a5beba-93075e-655"/><use filter="url(#IconifyId-17064a5beba-93075e-660)" xlink:href="#IconifyId-17064a5beba-93075e-656"/><mask id="IconifyId-17064a5beba-93075e-664" fill="#fff"><use xlink:href="#IconifyId-17064a5beba-93075e-657"/></mask><path fill-opacity=".21" fill="url(#IconifyId-17064a5beba-93075e-663)" mask="url(#IconifyId-17064a5beba-93075e-664)" d="M58.318 168.56l109.037 112.724l144.54-105.666l-104.454-93.92l-22.334 38.273z"/><use filter="url(#IconifyId-17064a5beba-93075e-661)" xlink:href="#IconifyId-17064a5beba-93075e-658"/><use fill="#F6F6F6" fill-rule="evenodd" xlink:href="#IconifyId-17064a5beba-93075e-658"/><path d="M207.125 128.105V81.7l-33.66 33.587v-21.42c0-9.039-7.395-16.434-16.434-16.434H72.015c-9.04 0-16.435 7.395-16.435 16.435v34.238h151.545z" fill="#E2E2E2"/><rect x="0" y="0" width="256" height="297" fill="rgba(0, 0, 0, 0)" /></svg>