<svg xmlns="http://www.w3.org/2000/svg" xmlns:xlink="http://www.w3.org/1999/xlink" aria-hidden="true" focusable="false" width="1em" height="1em" style="-ms-transform: rotate(360deg); -webkit-transform: rotate(360deg); transform: rotate(360deg);" preserveAspectRatio="xMidYMid meet" viewBox="0 0 24 24"><path d="M9 19a1 1 0 0 0 .38-.08a1.15 1.15 0 0 0 .33-.21a1 1 0 0 0 .12-.16a.56.56 0 0 0 .09-.17a.64.64 0 0 0 .08-.18a1.36 1.36 0 0 0 0-.2a1 1 0 0 0-.08-.38a.9.9 0 0 0-.54-.54A1 1 0 0 0 8.8 17l-.18.06a.56.56 0 0 0-.17.09a1 1 0 0 0-.16.12a1 1 0 0 0-.21.33A1 1 0 0 0 8 18a1 1 0 0 0 1 1zm-3.71-.29a1.15 1.15 0 0 0 .33.21A1 1 0 0 0 6 19h.19a.6.6 0 0 0 .19-.06a.76.76 0 0 0 .18-.09l.15-.12a1.15 1.15 0 0 0 .21-.33A.84.84 0 0 0 7 18a1.36 1.36 0 0 0 0-.2a.64.64 0 0 0-.06-.18a.56.56 0 0 0-.09-.17a1 1 0 0 0-.12-.16a1 1 0 0 0-1.09-.21a1 1 0 0 0-.33.21a1 1 0 0 0-.12.16a.56.56 0 0 0-.09.17a.64.64 0 0 0-.1.18a1.36 1.36 0 0 0 0 .2a1 1 0 0 0 .08.38a1.15 1.15 0 0 0 .21.33zM19 2H5a3 3 0 0 0-3 3v14a3 3 0 0 0 3 3h14a3 3 0 0 0 3-3V5a3 3 0 0 0-3-3zm1 17a1 1 0 0 1-1 1H5a1 1 0 0 1-1-1v-3h16zm0-5H4v-4h4a1 1 0 0 0 .71-.29L10 8.46l2.8 3.2a1 1 0 0 0 .72.34a1 1 0 0 0 .71-.29L15.91 10H20zm0-6h-4.5a1 1 0 0 0-.71.29l-1.24 1.25l-2.8-3.2a1 1 0 0 0-1.46 0L7.59 8H4V5a1 1 0 0 1 1-1h14a1 1 0 0 1 1 1z" fill="#5E5F62"/><rect x="0" y="0" width="24" height="24" fill="rgba(0, 0, 0, 0)" /></svg>