<svg width="511" height="511" viewBox="0 0 511 511" fill="none" xmlns="http://www.w3.org/2000/svg">
<g clip-path="url(#clip0)">
<path d="M158.499 80.8415H30.4873C13.1267 80.8415 -0.998047 94.9662 -0.998047 112.327V400.346C-0.998047 417.706 13.1267 431.831 30.4873 431.831H158.495C175.859 431.831 189.984 417.706 189.984 400.346V112.327C189.984 94.9662 175.859 80.8415 158.499 80.8415ZM30.4873 95.8122H158.495C167.602 95.8122 175.013 103.22 175.013 112.327V384.86H13.9727V112.327C13.9727 103.22 21.3801 95.8122 30.4873 95.8122ZM158.499 416.86H30.4873C21.3801 416.86 13.9727 409.453 13.9727 400.346V399.831H175.013V400.346C175.013 409.453 167.606 416.86 158.499 416.86Z" fill="#5E5F62"/>
<path d="M478.518 80.8415H350.506C333.145 80.8415 319.021 94.9662 319.021 112.327V400.346C319.021 417.706 333.145 431.831 350.506 431.831H478.514C495.878 431.831 510.003 417.706 510.003 400.346V112.327C510.003 94.9662 495.878 80.8415 478.518 80.8415ZM350.506 95.8122H478.514C487.621 95.8122 495.032 103.22 495.032 112.327V384.86H333.991V112.327C333.991 103.22 341.399 95.8122 350.506 95.8122ZM478.518 416.86H350.506C341.399 416.86 333.991 409.453 333.991 400.346V399.831H495.032V400.346C495.032 409.453 487.625 416.86 478.518 416.86Z" fill="#5E5F62"/>
<path d="M38.4873 231.82H150.495C154.631 231.82 157.98 228.471 157.98 224.334V128.331C157.98 124.194 154.631 120.845 150.495 120.845H38.4873C34.3548 120.845 31.002 124.194 31.002 128.331V168.331C31.002 172.467 34.3548 175.816 38.4873 175.816C42.6238 175.816 45.9727 172.467 45.9727 168.331V144.604L82.9902 176.331L45.9727 208.061V200.334C45.9727 196.198 42.6238 192.849 38.4873 192.849C34.3548 192.849 31.002 196.198 31.002 200.334V224.334C31.002 228.471 34.3548 231.82 38.4873 231.82ZM105.996 176.331L143.01 144.604V208.061L105.996 176.331ZM58.7251 135.816H130.261L94.4911 166.475L58.7251 135.816ZM130.261 216.849H58.7251L94.495 186.19L130.261 216.849Z" fill="#5E5F62"/>
<path d="M38.4873 359.827H150.495C154.631 359.827 157.98 356.474 157.98 352.342V256.338C157.98 252.202 154.631 248.853 150.495 248.853H38.4873C34.3548 248.853 31.002 252.202 31.002 256.338V352.342C31.002 356.474 34.3548 359.827 38.4873 359.827ZM143.01 336.069L105.996 304.338L143.01 272.611V336.069ZM130.261 344.857H58.7251L94.495 314.198L130.261 344.857ZM94.4911 294.482L58.7251 263.824H130.261L94.4911 294.482ZM82.9902 304.338L45.9727 336.069V272.611L82.9902 304.338Z" fill="#5E5F62"/>
<path d="M358.51 231.82H470.514C474.65 231.82 477.999 228.471 477.999 224.334V176.331C477.999 172.198 474.65 168.845 470.514 168.845C466.381 168.845 463.028 172.198 463.028 176.331V216.849H365.995V135.816H463.028V144.331C463.028 148.463 466.381 151.816 470.514 151.816C474.65 151.816 477.999 148.463 477.999 144.331V128.331C477.999 124.194 474.65 120.845 470.514 120.845H358.51C354.374 120.845 351.025 124.194 351.025 128.331V224.334C351.025 228.471 354.374 231.82 358.51 231.82V231.82Z" fill="#5E5F62"/>
<path d="M470.518 248.853H398.51C394.377 248.853 391.025 252.202 391.025 256.338C391.025 260.471 394.377 263.824 398.51 263.824H470.518C474.65 263.824 478.003 260.471 478.003 256.338C478.003 252.202 474.65 248.853 470.518 248.853Z" fill="#5E5F62"/>
<path d="M470.518 280.853H398.51C394.377 280.853 391.025 284.206 391.025 288.338C391.025 292.471 394.377 295.824 398.51 295.824H470.518C474.65 295.824 478.003 292.471 478.003 288.338C478.003 284.206 474.65 280.853 470.518 280.853Z" fill="#5E5F62"/>
<path d="M470.518 344.857H398.51C394.377 344.857 391.025 348.209 391.025 352.342C391.025 356.474 394.377 359.827 398.51 359.827H470.518C474.65 359.827 478.003 356.474 478.003 352.342C478.003 348.209 474.65 344.857 470.518 344.857Z" fill="#5E5F62"/>
<path d="M470.518 312.857H398.51C394.377 312.857 391.025 316.206 391.025 320.342C391.025 324.475 394.377 327.827 398.51 327.827H470.518C474.65 327.827 478.003 324.475 478.003 320.342C478.003 316.206 474.65 312.857 470.518 312.857Z" fill="#5E5F62"/>
<path d="M358.51 263.824H366.51C370.643 263.824 373.995 260.471 373.995 256.338C373.995 252.202 370.643 248.853 366.51 248.853H358.51C354.374 248.853 351.025 252.202 351.025 256.338C351.025 260.471 354.374 263.824 358.51 263.824Z" fill="#5E5F62"/>
<path d="M358.51 295.824H366.51C370.643 295.824 373.995 292.471 373.995 288.338C373.995 284.206 370.643 280.853 366.51 280.853H358.51C354.374 280.853 351.025 284.206 351.025 288.338C351.025 292.471 354.374 295.824 358.51 295.824Z" fill="#5E5F62"/>
<path d="M358.51 359.827H366.51C370.643 359.827 373.995 356.474 373.995 352.342C373.995 348.209 370.643 344.857 366.51 344.857H358.51C354.374 344.857 351.025 348.209 351.025 352.342C351.025 356.474 354.374 359.827 358.51 359.827Z" fill="#5E5F62"/>
<path d="M358.51 327.827H366.51C370.643 327.827 373.995 324.475 373.995 320.342C373.995 316.206 370.643 312.857 366.51 312.857H358.51C354.374 312.857 351.025 316.206 351.025 320.342C351.025 324.475 354.374 327.827 358.51 327.827Z" fill="#5E5F62"/>
<path d="M298.354 249.917L258.354 225.917C254.806 223.789 250.21 224.939 248.081 228.483C245.957 232.03 247.107 236.627 250.651 238.755L267.481 248.853H214.499C210.366 248.853 207.013 252.202 207.013 256.338C207.013 260.471 210.366 263.824 214.499 263.824H267.481L250.651 273.921C247.107 276.046 245.957 280.646 248.081 284.19C249.485 286.529 251.964 287.824 254.51 287.824C255.82 287.824 257.146 287.48 258.354 286.755L298.354 262.755C300.611 261.403 301.988 258.966 301.988 256.338C301.988 253.707 300.611 251.27 298.354 249.917Z" fill="#5E5F62"/>
</g>
<defs>
<clipPath id="clip0">
<rect width="511" height="511" fill="white"/>
</clipPath>
</defs>
</svg>
