<svg xmlns="http://www.w3.org/2000/svg" xmlns:xlink="http://www.w3.org/1999/xlink" aria-hidden="true" focusable="false" width="1em" height="1em" style="-ms-transform: rotate(360deg); -webkit-transform: rotate(360deg); transform: rotate(360deg);" preserveAspectRatio="xMidYMid meet" viewBox="0 0 24 24"><path d="M15 4a8 8 0 0 1 8 8a8 8 0 0 1-8 8a8 8 0 0 1-8-8a8 8 0 0 1 8-8m0 2a6 6 0 0 0-6 6a6 6 0 0 0 6 6a6 6 0 0 0 6-6a6 6 0 0 0-6-6m-1 2h1.5v3.78l2.33 2.33l-1.06 1.06L14 12.4V8M2 18a1 1 0 0 1-1-1a1 1 0 0 1 1-1h3.83c.31.71.71 1.38 1.17 2H2m1-5a1 1 0 0 1-1-1a1 1 0 0 1 1-1h2.05L5 12l.05 1H3m1-5a1 1 0 0 1-1-1a1 1 0 0 1 1-1h3c-.46.62-.86 1.29-1.17 2H4z" fill="#5E5F62"/><rect x="0" y="0" width="24" height="24" fill="rgba(0, 0, 0, 0)" /></svg>