<svg width="639" height="681" viewBox="0 0 639 681" fill="none" xmlns="http://www.w3.org/2000/svg">
<path d="M488.894 448.17L351.73 168.365C349.634 164.09 345.296 161.384 340.529 161.384C335.765 161.384 331.428 164.09 329.331 168.365L192.168 448.17C190.063 452.457 190.598 457.568 193.558 461.335L270.965 560.018H248.257C230.376 560.018 215.836 574.546 215.836 592.4V642.231C215.836 651.856 223.668 659.672 233.292 659.672H447.769C457.393 659.672 465.226 651.856 465.226 642.231V592.4C465.226 574.546 450.686 560.018 432.804 560.018H409.835L487.496 461.343C490.463 457.579 490.998 452.469 488.894 448.17V448.17ZM432.804 584.927C436.931 584.927 440.285 588.285 440.285 592.4V634.758H240.773V592.4C240.773 588.285 244.131 584.927 248.257 584.927H432.804ZM378.116 560.018H302.633L218.007 452.106L340.529 202.157L463.055 452.094L378.116 560.018Z" fill="#5E5F62"/>
<path d="M390.258 457.505C389.423 444.188 383.461 432.033 373.501 423.253C367.59 418.068 360.578 414.358 352.999 412.43V323.633C352.999 316.762 347.412 311.178 340.529 311.178C333.649 311.178 328.062 316.762 328.062 323.633V412.418C318.532 414.846 309.829 420.098 303.098 427.715C294.77 437.171 290.678 448.916 290.678 460.609C290.678 474.438 296.39 488.209 307.561 498.04C316.712 506.099 328.285 510.436 340.431 510.436C341.513 510.436 342.602 510.401 343.687 510.343C357.005 509.492 369.187 503.541 377.964 493.581C386.741 483.629 391.106 470.807 390.258 457.505V457.505ZM359.25 477.121C352.468 484.808 341.271 487.53 331.682 483.93C322.03 480.307 315.619 470.827 315.639 460.555C315.654 450.048 322.475 440.482 332.435 437.097C342.438 433.701 353.847 437.074 360.297 445.46C367.438 454.749 367 468.328 359.25 477.121V477.121Z" fill="#5E5F62"/>
<path d="M641.678 288.447H622.286C620.521 267.809 614.196 224.35 591.765 180.473C574.309 146.333 544.816 108.153 495.488 83.8482H561.401C564.646 96.1195 572.275 106.528 583.047 113.263C591.055 118.288 600.128 120.885 609.393 120.885C613.149 120.885 616.929 120.459 620.669 119.596C633.686 116.633 644.747 108.797 651.806 97.568C658.873 86.3274 661.118 72.9746 658.151 59.9692C655.172 46.9756 647.34 35.9302 636.091 28.8711C624.843 21.816 611.478 19.5554 598.457 22.5344C585.444 25.5017 574.383 33.3338 567.324 44.5705C564.505 49.0722 562.448 53.898 561.187 58.9111H390.407V38.9951C390.407 29.3709 382.575 21.5505 372.95 21.5505H308.111C298.483 21.5505 290.651 29.3709 290.651 38.9951V59.5436H119.699C114.487 37.6091 94.7193 21.2382 71.18 21.2382C43.6818 21.2382 21.3021 43.5983 21.3021 71.0693C21.3021 98.5519 43.6818 120.893 71.18 120.893C94.0478 120.893 113.363 105.459 119.227 84.4572H185.339C135.844 108.758 106.268 146.942 88.773 181.082C66.2801 224.967 59.9434 268.418 58.1591 289.072H38.4461C28.8219 289.072 20.9897 296.889 20.9897 306.513V371.29C20.9897 380.906 28.8219 388.723 38.4461 388.723H103.289C112.914 388.723 120.746 380.906 120.746 371.29V306.513C120.746 296.889 112.914 289.072 103.289 289.072H83.2367C85.1068 269.777 91.2054 231.011 110.969 192.444C127.055 161.06 148.955 136.104 176.058 118.261C207.281 97.7125 245.786 86.4407 290.651 84.7071V103.772C290.651 113.388 298.483 121.205 308.111 121.205H372.95C382.575 121.205 390.407 113.388 390.407 103.772V84.098C434.924 85.8316 473.155 97.0019 504.203 117.367C531.213 135.089 553.058 159.874 569.147 191.057C589.083 229.714 595.268 268.969 597.177 288.447H576.839C567.211 288.447 559.379 296.264 559.379 305.888V370.669C559.379 380.281 567.211 388.102 576.839 388.102H641.678C651.303 388.102 659.135 380.281 659.135 370.669V305.888C659.135 296.264 651.303 288.447 641.678 288.447V288.447ZM588.451 57.8257C593.932 49.0683 604.712 44.5627 614.824 46.7179C624.765 48.8379 632.456 57.0253 634.127 67.0166C635.834 77.2225 630.871 87.7018 621.813 92.7462C612.38 98.0053 600.292 96.6037 592.425 89.1659C583.937 81.1425 582.215 67.7115 588.451 57.8257C584.917 63.4207 591.961 52.2152 588.451 57.8257ZM71.18 95.979C57.4368 95.979 46.2391 84.8086 46.2391 71.0693C46.2391 57.3299 57.4368 46.1557 71.18 46.1557C84.935 46.1557 96.1171 57.3299 96.1171 71.0693C96.1171 84.8086 84.935 95.979 71.18 95.979ZM95.8086 313.986V363.809H45.9307V313.986H95.8086ZM365.47 96.2913H315.592V46.4641H365.47V96.2913ZM634.198 363.188H584.32V313.361H634.198V363.188Z" fill="#5E5F62"/>
<path d="M340.556 286.265C333.669 286.265 328.082 280.689 328.082 273.81C328.082 266.93 333.657 261.351 340.544 261.351H340.556C347.443 261.351 353.023 266.93 353.023 273.81C353.023 280.689 347.443 286.265 340.556 286.265V286.265Z" fill="#5E5F62"/>
</svg>
