<svg width="512" height="512" viewBox="0 0 512 512" fill="none" xmlns="http://www.w3.org/2000/svg">
<path d="M302 40C296.48 40 292 44.4805 292 50C292 55.5195 296.48 60 302 60C307.52 60 312 55.5195 312 50C312 44.4805 307.52 40 302 40Z" fill="#5E5F62"/>
<path d="M382 40H342C336.477 40 332 44.4766 332 50C332 55.5234 336.477 60 342 60H382C387.523 60 392 55.5234 392 50C392 44.4766 387.523 40 382 40Z" fill="#5E5F62"/>
<path d="M462 40H422C416.477 40 412 44.4766 412 50C412 55.5234 416.477 60 422 60H462C467.523 60 472 55.5234 472 50C472 44.4766 467.523 40 462 40Z" fill="#5E5F62"/>
<path d="M482 0H30C13.457 0 0 13.457 0 30V482C0 498.543 13.457 512 30 512H482C498.543 512 512 498.543 512 482V30C512 13.457 498.543 0 482 0ZM492 482C492 487.516 487.516 492 482 492H30C24.4844 492 20 487.516 20 482V100H492V482ZM492 80H20V30C20 24.4844 24.4844 20 30 20H482C487.516 20 492 24.4844 492 30V80Z" fill="#5E5F62"/>
<path d="M76 226H436C441.523 226 446 221.523 446 216V156C446 150.477 441.523 146 436 146H76C70.4766 146 66 150.477 66 156V216C66 221.523 70.4766 226 76 226ZM86 166H426V206H86V166Z" fill="#5E5F62"/>
<path d="M76 449H196C201.523 449 206 444.523 206 439V279C206 273.477 201.523 269 196 269H76C70.4766 269 66 273.477 66 279V439C66 444.523 70.4766 449 76 449ZM86 289H186V429H86V289Z" fill="#5E5F62"/>
<path d="M436 269H256C255.902 269 255.809 269.012 255.711 269.016C250.223 269.172 246 273.699 246 279V439C246 439.059 246.008 439.117 246.008 439.176C246.105 444.695 250.637 449 256 449H436C441.391 449 445.895 444.68 445.992 439.176C445.992 439.117 446 439.059 446 439V279C446 273.539 441.547 269 436 269V269ZM409.699 289L346 345.621L282.301 289H409.699ZM266 301.27L330.949 359L266 416.73V301.27ZM282.301 429L346 372.379L409.699 429H282.301ZM426 416.73L361.051 359L426 301.27V416.73Z" fill="#5E5F62"/>
</svg>