<svg width="98" height="89" viewBox="0 0 98 89" fill="none" xmlns="http://www.w3.org/2000/svg">
<g clip-path="url(#clip0)">
<path d="M33.442 67.989L35.58 67.4375C36.1769 67.2863 36.7826 67.6421 36.9341 68.2381C37.0855 68.8341 36.7292 69.439 36.1323 69.5902L33.9854 70.1418C33.8963 70.1685 33.7983 70.1774 33.7093 70.1774C33.2104 70.1774 32.765 69.8393 32.6314 69.3412C32.4888 68.7452 32.8452 68.1403 33.442 67.989ZM40.239 69.0387C40.3103 69.0387 40.3905 69.0298 40.4617 69.012C43.1342 68.4694 46.3679 67.7489 49.4947 67.0461C52.6126 66.3523 55.8374 65.6317 58.4832 65.0891C59.089 64.9646 59.472 64.3774 59.3562 63.7814C59.2315 63.1765 58.6435 62.7851 58.0467 62.9097C55.3742 63.4523 52.1405 64.1729 49.0137 64.8756C45.8958 65.5695 42.671 66.29 40.0252 66.8326C39.4195 66.9572 39.0364 67.5443 39.1522 68.1403C39.2502 68.674 39.7134 69.0387 40.239 69.0387ZM62.5454 64.075C62.6166 64.075 62.6879 64.0661 62.7592 64.0572L64.0152 63.817C64.621 63.7014 65.013 63.1143 64.8971 62.5183C64.7813 61.9134 64.1934 61.522 63.5965 61.6376L62.3405 61.8867C61.7347 62.0023 61.3427 62.5894 61.4585 63.1943C61.5565 63.7014 62.0287 64.075 62.5454 64.075ZM44.4348 70.293L40.4795 71.2181C39.8827 71.3605 39.5085 71.9565 39.6511 72.5525C39.7669 73.0684 40.2301 73.4064 40.7379 73.4064C40.8181 73.4064 40.9072 73.3975 40.9962 73.3797L44.9426 72.4546C45.5395 72.3123 45.9136 71.7163 45.7711 71.1203C45.6285 70.5332 45.0317 70.1596 44.4348 70.293ZM47.918 69.3323C47.3211 69.4835 46.9648 70.0884 47.1162 70.6844C47.2409 71.1914 47.6953 71.5206 48.1941 71.5206C48.2832 71.5206 48.3812 71.5117 48.4703 71.485L65.3158 67.1973C65.9127 67.0461 66.269 66.4412 66.1176 65.8452C65.9661 65.2492 65.3604 64.8934 64.7635 65.0446L47.918 69.3323ZM67.9171 66.3256C68.015 66.3256 68.1219 66.3078 68.2199 66.2811L70.6964 65.5784C71.2844 65.4093 71.6318 64.7955 71.4626 64.2084C71.2933 63.6124 70.6786 63.2744 70.0907 63.4434L67.6142 64.1462C67.0262 64.3152 66.6788 64.929 66.8481 65.5161C66.9817 66.0053 67.4271 66.3256 67.9171 66.3256ZM46.6619 75.577C46.8044 76.0662 47.2498 76.3775 47.7309 76.3775C47.8378 76.3775 47.9358 76.3598 48.0427 76.3331L75.5693 68.336C76.1572 68.167 76.4957 67.5443 76.3265 66.9572C76.1572 66.37 75.5336 66.0231 74.9457 66.201L47.4191 74.1981C46.8312 74.3672 46.4837 74.9809 46.6619 75.577ZM43.8558 11.36C44.2299 11.36 44.5239 11.0575 44.5239 10.6839L44.515 9.2784C44.515 8.91368 44.2121 8.62013 43.8469 8.62013H43.838C43.4727 8.62013 43.1699 8.92258 43.1788 9.29619L43.1877 10.7017C43.1877 11.0664 43.4816 11.36 43.8558 11.36ZM50.5192 11.36C50.8933 11.36 51.1873 11.0575 51.1873 10.6839L51.1784 9.2784C51.1784 8.91368 50.8755 8.62013 50.5103 8.62013H50.5014C50.1361 8.62013 49.8332 8.92258 49.8422 9.29619L49.8511 10.7017C49.8511 11.0664 50.1539 11.36 50.5192 11.36ZM43.7489 19.5706C44.7377 20.0954 45.8423 20.3623 46.947 20.3623C48.0605 20.3623 49.1829 20.0954 50.1718 19.5617C52.1494 18.4942 53.5124 16.4482 53.7173 14.2065C53.7529 13.8418 53.4767 13.5127 53.1115 13.4771C52.7373 13.4415 52.4166 13.7173 52.381 14.082C52.2207 15.8522 51.0982 17.5424 49.5393 18.3874C47.9714 19.2325 45.9492 19.2414 44.3725 18.3963C42.8046 17.5602 41.6822 15.8789 41.504 14.1087C41.4684 13.744 41.1388 13.4593 40.7735 13.5127C40.4083 13.5483 40.141 13.8774 40.1767 14.2421C40.3994 16.466 41.7623 18.512 43.7489 19.5706ZM97.6974 72.588C97.644 72.6414 97.5994 72.6859 97.5371 72.7304C97.4747 72.7749 97.4124 72.8015 97.35 72.8371C97.3144 72.8549 97.2787 72.8816 97.2342 72.8994L47.6685 88.7957C47.5527 88.8313 47.4369 88.8491 47.33 88.8491C47.1964 88.8491 47.0717 88.8224 46.9559 88.778C46.8133 88.8758 46.6441 88.9381 46.4659 88.9648C46.457 88.9648 46.4481 88.9648 46.4481 88.9648C46.4036 88.9648 46.3679 88.9826 46.3323 88.9826C46.3234 88.9826 46.3145 88.9826 46.3145 88.9826C46.261 88.9914 46.2165 89.0003 46.163 89.0003C46.0027 89.0003 45.8423 88.9648 45.6909 88.8936L15.3582 74.6251C15.1979 74.554 15.0731 74.4383 14.9751 74.3138C14.7524 74.1892 14.5654 73.9935 14.4674 73.7356C11.5366 65.6584 9.15804 57.2699 6.85971 49.1572C4.77517 41.7916 2.61046 34.1771 0.0537807 26.8471C-0.0887518 26.4468 0.0270558 26.0287 0.294304 25.7352C0.356662 25.5573 0.454653 25.3882 0.606094 25.2637C1.71963 24.3297 2.74408 23.28 3.66163 22.1503C3.86652 21.8923 4.1605 21.7678 4.46338 21.75C4.54355 21.7144 4.62373 21.661 4.71281 21.6432L18.9839 18.8589L18.7968 16.2525C18.6543 14.251 19.3046 12.3118 20.623 10.7995C21.9414 9.2784 23.7676 8.37105 25.7809 8.22872L35.6156 7.53487H35.6245C35.972 6.57415 36.4174 5.65791 36.9697 4.84841C38.6623 2.31318 40.8982 0.889892 43.6064 0.605234C47.3924 -0.818054 51.704 0.29389 54.8931 3.53187C55.6147 4.26131 56.2383 5.10638 56.755 6.01373L65.2802 5.40883C67.2846 5.2665 69.2266 5.91588 70.7499 7.23242C72.2643 8.54896 73.1818 10.3726 73.3244 12.3829L75.0882 37.2371C75.3822 41.3736 72.2465 44.9762 68.113 45.2698L64.9417 45.4922L68.5941 57.6613L96.5126 65.7474C96.5483 65.7563 96.5839 65.783 96.6195 65.8007C96.6819 65.8274 96.7442 65.8541 96.8066 65.8897C96.8333 65.9075 96.869 65.9164 96.8957 65.9342C96.9313 65.9609 96.9491 65.9964 96.9848 66.032C97.0293 66.0765 97.0739 66.121 97.1095 66.1744C97.1273 66.201 97.154 66.2277 97.1718 66.2633C97.1986 66.3078 97.2075 66.3523 97.2253 66.3967C97.2431 66.4323 97.2698 66.459 97.2787 66.4946C97.2877 66.5213 97.2787 66.548 97.2877 66.5746C97.2966 66.6013 97.3144 66.628 97.3144 66.6547V66.6725L98.0092 71.6718C98.0181 71.7163 98.0003 71.7519 98.0003 71.7963C98.0003 71.8764 98.0003 71.9476 97.9825 72.0187C97.9736 72.0899 97.9469 72.1522 97.929 72.2144C97.9023 72.2856 97.8756 72.3479 97.8311 72.4101C97.7865 72.4813 97.742 72.5347 97.6974 72.588ZM21.2109 68.4605L47.0271 80.2382L92.2456 66.8237L67.0351 59.5205L21.2109 68.4605ZM17.1666 73.015L45.4415 86.3317L46.074 82.2575L18.5741 69.7148C17.9861 70.7556 17.5229 71.8675 17.1666 73.015ZM48.2921 82.4799L47.6685 86.4473L95.6574 71.058L95.2655 68.2381L48.2832 82.1863C48.2921 82.2842 48.3099 82.382 48.2921 82.4799ZM37.041 13.228C37.1746 15.2028 37.7536 16.9642 38.7157 18.3163C39.562 19.5172 40.827 20.5402 42.4661 21.3675C45.3702 22.8352 48.4079 23.0932 50.8042 22.088C53.2986 21.0383 55.3029 18.5209 56.0334 15.5231C56.9331 11.8492 55.8374 7.65051 53.3075 5.08859C51.4456 3.20274 49.2097 2.19754 46.9915 2.19754C46.074 2.19754 45.1564 2.36655 44.2656 2.72238C44.1676 2.75796 44.0607 2.78464 43.9538 2.79354C41.8514 2.98035 40.1678 4.04781 38.8137 6.05821C37.5042 8.02413 36.8539 10.6305 37.041 13.228ZM21.0328 16.0835L22.7966 40.9377C22.9659 43.3662 24.6139 45.2698 27.0904 45.9014L27.6962 46.0526C29.166 46.4084 30.8319 46.8176 32.0523 48.0452C32.9431 48.9437 33.5133 50.2246 33.6469 51.6568C33.7627 52.92 33.5222 54.2098 32.9966 55.3663C34.5645 54.7169 35.9987 53.7295 37.13 52.4663C37.7714 51.7458 38.3327 50.9541 38.9206 50.109C39.4907 49.2906 40.0787 48.4455 40.7646 47.6627C42.279 45.937 44.0429 44.9585 46.1452 44.6738C47.7932 44.4514 49.468 44.3358 51.0982 44.229L67.9705 43.037C70.8835 42.8324 73.0928 40.2972 72.8879 37.3794L71.0973 12.5431C70.9993 11.1376 70.3579 9.84771 69.28 8.92258C68.211 7.99744 66.8481 7.53487 65.4316 7.64162L57.7349 8.18425C58.6257 10.6839 58.8217 13.486 58.1981 16.0657C57.4142 19.2681 55.4098 22.0346 52.8264 23.5647C55.5969 24.472 58.02 26.0732 59.864 28.2437C62.0732 30.8412 63.4184 34.1326 63.6678 37.5218C63.7123 38.1356 63.2491 38.6693 62.6344 38.7138C62.0109 38.7583 61.4853 38.2957 61.4407 37.6819C61.2269 34.7642 60.0689 31.9176 58.1625 29.6848C56.4788 27.71 54.225 26.2689 51.6416 25.5217C51.1428 25.3793 50.6261 25.2637 50.1094 25.1748C49.9669 25.7885 49.7798 26.4379 49.4056 27.0072C49.2542 27.2385 49.0671 27.452 48.8533 27.6388C49.3789 29.7293 49.7531 32.0777 50.1183 34.3461C50.3677 35.9117 50.6083 37.3883 50.8844 38.7672C50.9111 38.9006 50.8755 39.034 50.7864 39.1408C50.6973 39.2386 50.5726 39.3009 50.4479 39.3009H50.439L44.8891 39.1941C44.7555 39.1941 44.6308 39.1319 44.5506 39.0251C44.4705 38.9184 44.4348 38.7938 44.4616 38.6604C44.7466 37.1926 44.9248 35.5914 45.103 33.8924C45.3257 31.8464 45.5573 29.7382 46.0027 27.8612C45.7622 27.71 45.5305 27.5143 45.3078 27.283C44.7466 26.7048 44.3012 26.0198 43.9894 25.2815C42.8848 25.5128 41.8069 25.8419 40.7557 26.3045L40.337 26.4824C39.2769 26.9361 38.1812 27.4075 37.4062 28.0747C36.4085 28.9287 35.5355 29.9161 34.8139 31.0102C34.0834 32.1044 33.5133 33.2875 33.1213 34.5329C32.9253 35.1556 32.765 35.8049 32.6581 36.4365L32.6314 36.5966C32.5779 36.8724 32.471 37.4595 32.4354 37.8598C32.3819 38.438 31.9009 38.8739 31.3307 38.8739C31.2951 38.8739 31.2595 38.8739 31.2238 38.8739C30.6092 38.8205 30.1638 38.2779 30.2172 37.6641C30.2618 37.1571 30.3865 36.5077 30.4399 36.1963L30.4666 36.0718C30.5914 35.3335 30.7695 34.5862 31.0011 33.8568C31.4644 32.4157 32.1236 31.0458 32.961 29.7826C33.7983 28.5195 34.8139 27.372 35.9631 26.3934C36.9964 25.5128 38.3059 24.9435 39.4551 24.4453L39.8649 24.2674C40.5063 23.9827 41.1655 23.7515 41.8336 23.5469C41.7089 23.4846 41.5753 23.4401 41.4506 23.3778C39.4818 22.3815 37.9407 21.1184 36.8806 19.6239C35.6869 17.9338 34.9653 15.781 34.805 13.4059C34.7248 12.1961 34.7961 10.9863 35.0099 9.81213L25.9323 10.4526C24.5159 10.5505 23.2331 11.1909 22.3067 12.2673C21.3891 13.3081 20.9348 14.678 21.0328 16.0835ZM19.3847 24.3742L10.7615 26.0554L21.8078 62.7407L61.7793 54.9393L59.0622 45.9103L51.2229 46.4618C49.6373 46.5686 47.9981 46.6842 46.4214 46.8888C44.8535 47.1023 43.5796 47.8139 42.4216 49.1394C41.8158 49.8332 41.2902 50.5893 40.729 51.3899C40.1232 52.2528 39.5085 53.1424 38.7692 53.9608C36.5955 56.3715 33.4866 57.9815 30.2618 58.3641C30.2172 58.373 30.1727 58.373 30.1281 58.373C29.6827 58.373 29.2729 58.1061 29.0948 57.6791C28.9077 57.2165 29.0502 56.6828 29.4422 56.3803C30.7963 55.3396 31.5713 53.5694 31.4109 51.8703C31.3307 50.9541 30.9922 50.1535 30.4577 49.6197C29.6827 48.8369 28.4534 48.5434 27.1528 48.2231L26.5203 48.063C23.0906 47.1823 20.8012 44.5137 20.5606 41.0978L19.3847 24.3742ZM6.36084 23.5736L19.3135 66.5658L66.1978 57.4211L62.6523 45.6523L60.4341 45.8124L63.2848 55.2595C63.3382 55.4374 63.3115 55.6331 63.2135 55.7932C63.1155 55.9534 62.9551 56.069 62.7681 56.1046L21.4782 64.164C21.4337 64.1729 21.3891 64.1729 21.3535 64.1729C21.0595 64.1729 20.8012 63.986 20.7121 63.7014L9.27385 25.7352C9.2204 25.5573 9.24712 25.3616 9.34512 25.2014C9.44311 25.0413 9.60346 24.9257 9.79053 24.8901L19.2957 23.0398L19.1531 21.0828L6.36084 23.5736ZM15.7145 70.4976C16.1421 69.4924 16.6499 68.5139 17.2468 67.5887C17.2557 67.5798 17.2646 67.571 17.2735 67.5532L4.3743 24.7033C3.7329 25.3971 3.06478 26.0643 2.36103 26.6781C4.85534 33.8924 6.97551 41.338 9.01551 48.5434C11.0644 55.7932 13.2024 63.2566 15.7145 70.4976Z" fill="#FAFAFA"/>
</g>
<defs>
<clipPath id="clip0">
<rect width="98" height="89" fill="white"/>
</clipPath>
</defs>
</svg>
