<svg width="75" height="89" viewBox="0 0 75 89" fill="none" xmlns="http://www.w3.org/2000/svg">
<g clip-path="url(#clip0)">
<path d="M74.9674 70.765L69.1152 34.3288C69.0062 33.6663 68.9081 32.9713 68.81 32.2762C68.2324 28.3556 67.5895 24.0441 65.5079 20.5362C61.2359 10.8597 55.1113 4.32183 46.7525 0.596751C46.7416 0.596751 46.7416 0.596751 46.7307 0.596751C46.0986 0.303523 45.4338 0.0971779 44.7582 0.0428765C43.1561 -0.109167 41.4452 0.216641 39.7996 0.542449C39.1239 0.661913 38.47 0.792236 37.8597 0.868258L6.83313 5.03861C6.4626 5.08205 6.13566 5.27753 5.9177 5.57076C5.69974 5.86399 5.61256 6.23324 5.66705 6.59163L6.52799 11.9566L1.13348 12.8689C0.773847 12.934 0.446907 13.1295 0.239845 13.4336C0.032783 13.7377 -0.0435029 14.1069 0.021885 14.4653L14.3745 87.9026C14.4399 88.2609 14.6579 88.5759 14.9521 88.7714C15.181 88.9234 15.4425 88.9994 15.7041 88.9994C15.7913 88.9994 15.8894 88.9886 15.9766 88.9669C70.6518 77.922 70.6518 77.922 70.8807 77.7699C71.3384 77.4658 71.5672 76.9228 71.4582 76.3798L70.7826 72.9262C72.6897 72.6113 73.8231 72.4158 73.8558 72.4158C74.5969 72.2963 75.0982 71.6013 74.9783 70.8628C74.9892 70.8519 74.9783 70.8085 74.9674 70.765ZM59.6884 15.345C58.7076 14.8889 57.6505 14.4979 56.4844 14.2047C54.4901 13.7051 52.4739 13.5096 50.4905 13.3684L50.7847 9.64337C50.8719 8.49218 50.97 7.23238 50.763 5.95087C54.2612 8.35099 57.2037 11.4462 59.6884 15.345ZM68.5376 75.587C61.0725 77.0966 24.3135 84.525 16.7939 86.0454L2.96434 15.3124L6.95301 14.6391L17.5459 80.4741C17.6004 80.8325 17.7965 81.1475 18.1017 81.3647C18.3305 81.5276 18.6139 81.6145 18.8972 81.6145C18.9735 81.6145 19.0498 81.6036 19.1261 81.5927C19.1261 81.5927 54.0541 75.739 68.1235 73.3824L68.5376 75.587ZM20.0197 78.693L8.57681 7.53647L38.2194 3.56161C38.8841 3.47473 39.5925 3.33354 40.3118 3.19236C41.7721 2.90999 43.276 2.61676 44.4966 2.73623C45.9133 2.86655 47.45 4.1915 47.9295 5.67936C48.2891 6.80883 48.1801 8.13379 48.082 9.42616L47.6679 14.5196C47.6352 14.878 47.7551 15.2364 47.9949 15.5188C48.2346 15.7903 48.5725 15.9641 48.9321 15.9858C51.2316 16.1378 53.6073 16.2899 55.8196 16.8437C58.2063 17.441 60.1134 18.4293 61.4866 19.776C62.1405 20.4276 62.6854 21.177 63.154 21.9806C63.1976 22.0784 63.2412 22.1761 63.2847 22.2739C63.3501 22.4259 63.4373 22.5454 63.5463 22.6648C65.0611 25.6297 65.606 29.3113 66.0964 32.6672C66.2054 33.3731 66.3035 34.079 66.4125 34.7523L72.0685 69.9722C68.6248 70.5478 57.3344 72.4484 20.0197 78.693ZM18.6902 19.9063C18.0363 19.9063 17.4587 19.4285 17.3497 18.766C17.2298 18.0275 17.7311 17.3324 18.4831 17.213C20.9896 16.8112 24.1936 16.4745 27.5829 16.1161C31.7133 15.6817 36.3994 15.193 40.8567 14.4762C41.5977 14.3459 42.2952 14.8563 42.4151 15.6057C42.535 16.3442 42.0337 17.0392 41.2817 17.1587C36.7481 17.8863 32.0184 18.375 27.8554 18.8203C24.4988 19.1678 21.3384 19.5045 18.8972 19.8955C18.8427 19.8955 18.7664 19.9063 18.6902 19.9063ZM30.0241 25.2496C26.188 25.5863 22.5589 25.9121 20.1287 26.2922C20.0524 26.303 19.987 26.3139 19.9107 26.3139C19.2568 26.3139 18.6793 25.836 18.5703 25.1736C18.4504 24.4351 18.9517 23.74 19.7037 23.6206C22.2211 23.2187 25.8937 22.8929 29.7843 22.5562C34.514 22.1436 39.8867 21.6657 44.3331 20.9489C45.0742 20.8295 45.7717 21.329 45.8915 22.0784C46.0114 22.8169 45.5101 23.5119 44.7582 23.6314C40.2137 24.359 34.7974 24.8369 30.0241 25.2496ZM25.4905 54.4963C27.9208 54.0619 33.5332 53.3343 39.4726 52.5741C46.8179 51.6184 55.1439 50.5432 59.6666 49.7395C60.3968 49.6092 60.8872 48.925 60.7782 48.1974L57.8031 28.7575C57.7486 28.3991 57.5524 28.0841 57.2582 27.8669C56.9639 27.6497 56.6043 27.5628 56.2337 27.628C51.7656 28.3448 43.4722 29.2788 36.1487 30.1041C29.8933 30.8101 24.4988 31.4182 21.9922 31.8201C21.2512 31.9395 20.7499 32.6237 20.8589 33.3622L23.8994 53.3777C23.9539 53.7361 24.15 54.0619 24.4552 54.2791C24.684 54.442 24.9674 54.5289 25.2507 54.5289C25.327 54.5072 25.4142 54.5072 25.4905 54.4963ZM23.7577 34.2853C26.5912 33.8944 31.4081 33.3514 36.4539 32.7866C43.1235 32.0373 50.5995 31.201 55.3183 30.506L57.8793 47.2851C53.2259 48.0453 45.7717 49.0119 39.1239 49.8807C33.8711 50.5649 29.2176 51.1622 26.395 51.5966L23.7577 34.2853ZM62.0969 54.5506C62.2276 55.2891 61.7372 55.9951 60.9962 56.1254C56.4844 56.929 48.1692 58.0042 40.8349 58.949C34.8846 59.7201 29.2612 60.4478 26.8201 60.8822C26.7438 60.893 26.6566 60.9039 26.5803 60.9039C25.9373 60.9039 25.3597 60.4478 25.2398 59.7853C25.1091 59.0468 25.5995 58.3409 26.3405 58.2105C28.8362 57.7653 34.2307 57.0702 40.4752 56.2557C47.7769 55.3109 56.0594 54.2357 60.5058 53.4429C61.2468 53.3126 61.9552 53.8121 62.0969 54.5506ZM51.5367 63.0325C51.6675 63.771 51.1771 64.4769 50.436 64.6073C42.4914 66.0191 36.4757 66.5947 32.487 66.9748C30.4382 67.1703 28.8144 67.3223 27.7464 67.5178C27.6701 67.5287 27.5829 67.5395 27.5066 67.5395C26.8636 67.5395 26.2861 67.0834 26.1662 66.4209C26.0354 65.6824 26.5258 64.9765 27.2669 64.8462C28.4439 64.6398 30.035 64.4878 32.2255 64.2706C36.1705 63.8905 42.1208 63.3257 49.9565 61.9356C50.6976 61.7944 51.4059 62.294 51.5367 63.0325Z" fill="#FAFAFA"/>
</g>
<defs>
<clipPath id="clip0">
<rect width="75" height="89" fill="white"/>
</clipPath>
</defs>
</svg>
