<svg width="78" height="89" viewBox="0 0 78 89" fill="none" xmlns="http://www.w3.org/2000/svg">
<g clip-path="url(#clip0)">
<path d="M70.162 8.38925L70.1555 8.3827L70.1424 8.37616L64.2053 4.05736C60.8872 1.74091 56.8507 0.870605 52.8469 1.62312C52.0827 1.76708 51.3446 1.98302 50.6261 2.23168L49.8293 1.6493C47.811 0.242416 45.3617 -0.287618 42.9254 0.170436C40.4957 0.621947 38.3729 2.00265 36.949 4.04427C35.6362 5.92884 35.1136 8.1275 35.2965 10.2411C31.2339 14.2327 28.1314 17.6616 25.1399 20.9792C22.1223 24.3295 18.9937 27.7911 14.8723 31.8286C13.5529 31.0302 11.9984 30.8536 10.47 31.3901C7.88353 32.2997 5.96325 34.7667 5.79996 37.3841C5.65626 39.6678 6.82541 41.5982 9.00696 42.691C9.38579 42.8808 9.79074 43.0182 10.1957 43.1229L16.5575 71.856C12.3381 72.4449 6.25063 73.8649 3.39634 76.1944C3.25264 76.201 3.11548 76.2271 2.98485 76.3122C1.8157 77.0713 0.914342 78.2099 0.437538 79.5186C-0.0196721 80.7684 -0.352782 83.3008 0.672674 84.76C1.64588 86.1473 3.40287 86.9391 4.68959 87.5149C7.01483 88.5554 10.8554 89.0069 15.1793 89.0069C23.8336 89.0069 34.4148 87.2008 38.6015 84.7339C40.0515 83.8832 40.8353 82.9278 40.9267 81.8939C41.0966 79.9701 40.4107 78.0855 38.9477 76.4431C38.8301 76.3122 38.6864 76.2468 38.5297 76.2075C37.8242 75.2783 36.531 74.408 34.6107 73.5573C34.5781 73.5442 34.5454 73.5312 34.5127 73.5246C31.2404 72.5562 27.8244 71.9083 24.4215 71.6073C23.8728 71.5157 23.2131 71.4699 22.4685 71.4503L15.4536 42.1021C15.9239 41.7749 16.3615 41.3888 16.7207 40.9373C17.7005 39.7202 18.0858 38.1301 17.8834 36.5596C21.9721 32.5484 24.9244 29.2569 27.7787 26.0767C30.6199 22.903 33.5657 19.6247 37.6414 15.6265C38.0855 16.1173 38.5884 16.5688 39.1567 16.968L40.2344 17.7205C40.267 18.3029 40.3258 18.8787 40.4238 19.4611C41.1096 23.4854 43.3108 26.9797 46.6353 29.3027L52.6509 33.5037C53.3106 33.9618 54.0878 34.1843 54.95 34.1843C58.3791 34.1843 63.1406 30.7096 67.1053 25.0101C72.1019 17.8317 73.4148 10.6991 70.162 8.38925ZM39.2938 81.75C39.2547 82.208 38.7125 82.7642 37.772 83.3204C31.4037 87.0634 11.404 88.7255 5.35581 86.0164C4.24544 85.5191 2.73012 84.8386 2.01165 83.8177C1.46953 83.0456 1.56097 81.2265 1.97899 80.0748C1.98552 80.0552 1.99858 80.0355 2.00511 80.0159C2.48192 81.233 3.82742 82.3782 6.07428 83.4971C8.27542 84.5899 11.9266 85.0611 16.0153 85.0611C24.0296 85.0611 33.6963 83.2419 37.2952 80.7619C38.0137 80.2646 38.5231 79.7411 38.8301 79.1849C39.1632 79.9177 39.3788 80.7815 39.2938 81.75ZM24.2125 73.2236C27.5501 73.5246 30.842 74.1463 33.9967 75.0755C37.0796 76.4365 37.4977 77.4704 37.5369 77.85C37.5956 78.4389 36.9294 79.0278 36.3677 79.4139C30.9073 83.1699 12.3968 84.8124 6.79929 82.0248C4.48058 80.8731 3.29183 79.7214 3.45512 78.7792C3.8013 76.7375 9.67318 74.4276 16.9232 73.4526L17.6482 76.7375C17.6939 76.9469 17.818 77.1302 18.0009 77.2479C18.7063 77.706 19.6142 77.935 20.5221 77.935C21.5541 77.935 22.5861 77.6471 23.3176 77.0778C23.5724 76.8815 23.6899 76.5543 23.6115 76.2402L22.8604 73.0927C23.3503 73.1189 23.801 73.1582 24.2125 73.2236ZM21.8807 76.0374C21.0838 76.3907 19.9473 76.3973 19.157 76.0308L11.907 43.2799C12.6059 43.2537 13.2982 43.1163 13.9579 42.8742L21.8807 76.0374ZM15.4536 39.91C14.1081 41.5786 11.6 42.1544 9.73849 41.2187C8.14479 40.4204 7.32834 39.092 7.42632 37.4757C7.55042 35.493 9.02655 33.6215 11.0121 32.9213C11.4236 32.7774 11.8351 32.7054 12.2401 32.7054C13.4354 32.7054 14.5588 33.327 15.3818 34.4984C16.3746 35.9118 16.8187 38.2086 15.4536 39.91ZM26.5638 24.9839C23.8859 27.9744 21.1034 31.0629 17.3804 34.7601C17.1975 34.3479 16.9755 33.9422 16.7077 33.5626C16.5313 33.3074 16.3419 33.0784 16.1394 32.8624C20.2282 28.8447 23.3438 25.4027 26.3483 22.072C29.1307 18.9899 32.0111 15.8032 35.6688 12.1649C35.8974 12.9174 36.2175 13.6503 36.6355 14.3243C32.4553 18.4141 29.4573 21.7579 26.5638 24.9839ZM36.9882 10.6599C37.0274 10.4767 37.0078 10.2869 36.9229 10.1168C36.7661 8.36307 37.1972 6.5374 38.288 4.97347C39.4637 3.28521 41.2207 2.14661 43.2259 1.77363C45.218 1.40064 47.2166 1.82598 48.8561 2.96457C46.5374 4.10971 44.5256 5.82414 43.0038 8.00971C41.3839 10.3392 40.4499 12.996 40.2475 15.7443L40.0907 15.6331C38.3664 14.4225 37.3082 12.6099 36.9882 10.6599ZM42.0371 19.1862C41.4231 15.5938 42.2461 11.949 44.3428 8.93237C46.4394 5.91575 49.568 3.88722 53.1473 3.21977C56.7201 2.55232 60.319 3.32447 63.2647 5.37917L66.5697 7.78723C65.4789 7.99008 64.2836 8.45468 63.01 9.2072C60.2667 10.8235 57.5169 13.4998 55.2635 16.7389C51.8671 21.6205 50.2995 26.803 50.8547 30.2515L47.5693 27.9547C44.6105 25.8935 42.6445 22.7787 42.0371 19.1862ZM61.8996 11.949C63.7938 13.9579 64.3555 16.68 63.3823 19.3433C62.2654 22.4123 59.4503 24.48 56.2825 24.6044C55.1525 24.5586 54.1858 24.3165 53.3302 23.8846C54.0291 21.9411 55.1002 19.821 56.6025 17.6681C58.1831 15.3975 60.0185 13.4278 61.8996 11.949ZM65.7663 24.0809C61.5534 30.1272 55.9755 33.8309 53.5849 32.1623C52.2786 31.2462 51.9716 28.7203 52.8338 25.4747C53.8396 25.9393 54.9631 26.1945 56.2825 26.2468C60.1818 26.0963 63.5717 23.6097 64.9172 19.906C66.0798 16.7128 65.4463 13.4475 63.2386 11.0002C63.4345 10.8693 63.637 10.7384 63.833 10.6206C66.1321 9.26609 68.0915 8.93237 69.2084 9.7176C71.599 11.3862 70.0249 17.9626 65.7663 24.0809ZM72.6179 33.3859C72.9706 33.6739 73.0229 34.1843 72.7355 34.5376C72.5722 34.7339 72.3371 34.8386 72.1019 34.8386C71.919 34.8386 71.7362 34.7797 71.5859 34.6554L68.0654 31.7958C67.7127 31.5079 67.6605 30.9975 67.9478 30.6442C68.2352 30.2973 68.7447 30.2385 69.0974 30.5264L72.6179 33.3859ZM77.0137 29.1915C76.9026 29.5448 76.5826 29.7673 76.2364 29.7673C76.158 29.7673 76.0796 29.7542 75.9947 29.7346L70.6062 28.0791C70.1751 27.9482 69.9334 27.4901 70.0641 27.0582C70.1947 26.6264 70.6519 26.3842 71.083 26.5151L76.4715 28.1707C76.9092 28.3015 77.1508 28.7596 77.0137 29.1915ZM77.4251 21.169L73.676 22.301C73.5976 22.3272 73.5193 22.3337 73.4409 22.3337C73.0882 22.3337 72.7681 22.1047 72.6571 21.7514C72.5265 21.3195 72.7747 20.8614 73.2058 20.7305L76.9549 19.5985C77.386 19.4676 77.8432 19.7163 77.9738 20.1482C78.0979 20.58 77.8562 21.0381 77.4251 21.169ZM66.9746 38.2871C67.0726 38.7255 66.7917 39.164 66.3541 39.2621C66.2953 39.2752 66.2366 39.2818 66.1778 39.2818C65.799 39.2818 65.4658 39.02 65.3809 38.6405L64.6625 35.3425C64.5645 34.9041 64.8453 34.4656 65.283 34.3675C65.7271 34.2693 66.1582 34.5507 66.2562 34.9957L66.9746 38.2871ZM59.607 20.6913C59.7964 20.8876 59.7834 21.1951 59.594 21.3849C58.4313 22.4973 56.8834 23.1321 55.3158 23.1321C55.2439 23.1321 55.1786 23.1321 55.1068 23.1255C54.839 23.119 54.6234 22.8899 54.6365 22.6151C54.643 22.3468 54.8716 22.1047 55.146 22.144C56.4915 22.1963 57.9088 21.6467 58.9212 20.6717C59.1106 20.4884 59.4176 20.495 59.607 20.6913ZM60.2928 18.4992L60.3516 18.1C60.3908 17.8317 60.639 17.6485 60.9068 17.6812C61.1746 17.7205 61.364 17.9691 61.3248 18.2374L61.266 18.6431C61.2334 18.8852 61.0244 19.0619 60.7827 19.0619C60.7566 19.0619 60.737 19.0619 60.7109 19.0554C60.4431 19.0161 60.2602 18.7675 60.2928 18.4992ZM11.2342 34.7797C10.163 35.1593 9.36619 36.1801 9.30088 37.2663C9.24209 38.2282 9.73196 39.0396 10.6464 39.4977C10.9991 39.6744 11.3844 39.7594 11.7698 39.7594C12.5601 39.7594 13.3504 39.4126 13.8599 38.7714C14.5457 37.9207 14.5457 36.6578 13.8599 35.6893C13.2329 34.7928 12.2009 34.4395 11.2342 34.7797ZM13.1023 38.1563C12.6385 38.7321 11.7306 38.9415 11.084 38.6208C10.5288 38.346 10.2414 37.888 10.2806 37.3318C10.3263 36.625 10.8489 35.9576 11.5608 35.7089C11.711 35.6566 11.8482 35.6304 11.9788 35.6304C12.5667 35.6304 12.9455 36.0885 13.0631 36.2586C13.4158 36.7559 13.5791 37.5608 13.1023 38.1563ZM12.0899 77.1171C11.3191 76.7048 10.3067 76.8553 9.63399 77.4835C8.92858 78.1444 8.68038 78.9035 8.9547 79.5709C9.22903 80.2515 9.99322 80.6637 10.9468 80.6637C10.973 80.6637 11.0056 80.6637 11.0317 80.6637C11.8874 80.6441 12.645 80.1795 12.9455 79.4924C13.3243 78.6548 12.9324 77.5686 12.0899 77.1171ZM12.0572 79.0932C11.907 79.427 11.4824 79.6691 11.0121 79.6822C10.4504 79.7083 9.99322 79.512 9.86912 79.2045C9.75809 78.9362 9.92138 78.5632 10.3067 78.2033C10.666 77.8696 11.2342 77.7714 11.6326 77.9874C12.018 78.1902 12.227 78.7203 12.0572 79.0932Z" fill="#FAFAFA"/>
</g>
<defs>
<clipPath id="clip0">
<rect width="78" height="89" fill="white"/>
</clipPath>
</defs>
</svg>
