<svg width="77" height="89" viewBox="0 0 77 89" fill="none" xmlns="http://www.w3.org/2000/svg">
<g clip-path="url(#clip0)">
<path d="M73.5504 10.7524C73.4077 10.4345 73.2412 10.1325 73.035 9.83846C72.0835 8.47155 70.6246 7.58147 68.9119 7.32716L20.6947 0.0714253C17.301 -0.437192 13.9946 1.78801 13.3285 5.04633L0.118547 69.2513C-0.158974 70.6023 0.0471843 71.9692 0.697375 73.1533C2.07705 77.9295 4.8919 81.1879 8.07942 81.6647L56.2966 88.9284C56.6217 88.9761 56.9468 88.9999 57.2719 88.9999C60.3008 88.9999 63.0602 86.8939 63.6628 83.9535L76.8727 19.7406C77.4199 17.0862 76.1433 13.661 73.5504 10.7524ZM19.7115 1.98669C19.9414 1.98669 20.1714 2.00258 20.4013 2.04232L68.6264 9.29805C69.792 9.47289 70.7832 10.0689 71.4175 10.9828C71.9963 11.8173 72.2025 12.8266 72.0122 13.8279L15.2474 5.5629L15.2712 5.44369C15.6835 3.42512 17.6023 1.98669 19.7115 1.98669ZM14.843 7.50995L71.6078 15.775L60.5863 69.3864L7.27064 61.622L17.3407 11.6186C17.4041 11.2928 17.1979 10.9828 16.8728 10.9193C16.5478 10.8557 16.2385 11.0623 16.1751 11.3881L6.09713 61.4551L3.82146 61.1213L14.843 7.50995ZM53.6641 81.4899L5.43901 74.2341C4.27342 74.0593 3.28228 73.4632 2.64795 72.5493C2.06119 71.7069 1.8471 70.6738 2.06119 69.6566L3.41707 63.0684L60.1819 71.3334L58.7943 78.0885C58.3344 80.3216 56.0349 81.8554 53.6641 81.4899ZM56.59 86.9654L8.36487 79.7097C6.72353 79.4633 5.14563 78.0567 3.9404 75.903C4.321 76.0381 4.72538 76.1414 5.1377 76.205L53.3628 83.4607C53.6879 83.5084 54.013 83.5323 54.3381 83.5323C55.1865 83.5323 56.0111 83.3654 56.7803 83.0554L58.374 86.886C57.8111 87.0211 57.2085 87.0608 56.59 86.9654ZM74.9301 19.3512L61.7201 83.5641C61.4585 84.8277 60.6021 85.8528 59.4841 86.4568L57.8428 82.5309C59.2859 81.6329 60.3722 80.2104 60.729 78.4938L73.8676 14.6147C74.8032 16.3074 75.2076 18.0081 74.9301 19.3512ZM28.8855 68.9811C28.8221 68.989 28.7666 69.0049 28.7031 69.0208C26.7129 69.6804 26.3006 70.9202 26.2372 71.5957C26.1103 72.8752 26.9587 74.2023 28.4494 75.0527C29.3295 75.5533 30.4634 75.903 31.7321 75.903C33.1355 75.903 34.7055 75.4739 36.2358 74.3454C36.3548 74.258 36.4499 74.1467 36.5213 74.0195C37.0446 73.05 37.0129 72.0566 36.4341 71.2142C35.094 69.2751 31.1929 68.6791 28.8855 68.9811ZM34.8482 72.8911C32.7708 74.3136 30.6934 74.0593 29.4247 73.3361C28.5763 72.8513 28.164 72.1996 28.2036 71.8023C28.2353 71.4765 28.608 71.1665 29.2344 70.944C31.3118 70.7056 34.1425 71.4049 34.7848 72.3427C34.872 72.4619 34.9513 72.6129 34.8482 72.8911ZM23.2637 40.6575C23.7871 40.4985 24.0804 39.9422 23.9219 39.4177C23.3668 37.6217 23.1845 35.77 23.3668 33.8865L29.1947 34.4269C29.0758 35.2693 28.9807 36.1196 28.9252 36.9938C28.8934 37.5422 29.3058 38.0111 29.8529 38.0508C29.8767 38.0508 29.8925 38.0508 29.9163 38.0508C30.4317 38.0508 30.8678 37.6455 30.9074 37.121C30.9629 36.2706 31.0502 35.4362 31.1691 34.6097L39.7643 35.4044C39.574 36.66 39.3758 37.9077 39.1776 39.1634C38.6463 39.0998 38.115 39.0362 37.5838 38.9886C37.0367 38.9329 36.553 39.3382 36.5054 39.8866C36.4499 40.4349 36.8543 40.9197 37.4014 40.9674C37.893 41.0151 38.3846 41.0707 38.8842 41.1343C38.4084 44.1462 37.9247 47.1582 37.4331 50.1622C36.6323 50.0669 35.8473 49.9159 35.0782 49.7172C35.0623 49.7092 35.0465 49.6934 35.0306 49.6854C34.9355 49.6536 34.8324 49.6059 34.7372 49.5583C34.5866 49.4867 34.4201 49.4629 34.2615 49.4708C34.2139 49.4549 34.1584 49.439 34.1108 49.4231C33.5875 49.2483 33.0325 49.5424 32.858 50.0589C32.6915 50.5834 32.977 51.1397 33.4924 51.3146C34.88 51.7676 36.331 52.0616 37.8058 52.1967C38.4322 52.2523 39.0665 52.2841 39.6929 52.2841C49.652 52.2841 59.159 45.0999 60.9907 35.8335C61.9025 31.2083 60.8638 26.591 58.0569 22.8241C55.02 18.7472 50.1991 16.1246 44.831 15.624C34.2218 14.6544 23.5968 22.1327 21.6462 31.9871C21.107 34.713 21.2418 37.4071 22.0347 40.0058C22.1854 40.5303 22.7404 40.8243 23.2637 40.6575ZM23.684 31.9236C24.247 29.4758 25.4046 27.195 26.9904 25.2082C28.3305 25.9314 29.726 26.5751 31.1691 27.1314C30.4634 28.8242 29.9163 30.6123 29.5278 32.464L23.684 31.9236ZM31.5259 32.6467C31.8907 30.954 32.3981 29.3248 33.0562 27.7831C35.4984 28.5778 38.0516 29.1421 40.6603 29.4679C40.4621 30.7951 40.2718 32.1143 40.0735 33.4415L31.5259 32.6467ZM42.0955 17.5392C42.1906 17.5392 42.2779 17.5313 42.373 17.5313C41.9131 20.8452 41.4374 24.1671 40.9458 27.497C38.5274 27.203 36.1645 26.6943 33.8967 25.9711C35.9187 22.1168 38.9159 19.0174 42.0955 17.5392ZM59.0718 35.1978L53.0139 34.6335C53.1804 32.9726 53.2914 31.105 53.1884 29.1818C54.9883 28.8798 56.7803 28.4665 58.5405 27.9341C59.3335 30.2388 59.5238 32.7103 59.0718 35.1978ZM51.0396 34.4507L42.04 33.6163C42.2382 32.2891 42.4364 30.9699 42.6267 29.6507C43.721 29.7301 44.8231 29.7937 45.9332 29.7937C47.6935 29.7937 49.4537 29.6825 51.2219 29.4679C51.3012 31.2163 51.1982 32.9249 51.0396 34.4507ZM42.9201 27.6877C43.4038 24.4056 43.8716 21.1234 44.3315 17.8571C47.1305 18.9697 49.3982 21.5049 50.4449 24.7632C50.7303 25.6453 50.9206 26.5592 51.0475 27.4811C48.3357 27.8149 45.6081 27.8864 42.9201 27.6877ZM50.8096 36.4296C50.5797 38.0905 50.2387 39.8389 49.652 41.5475C47.0512 40.6177 44.2046 39.9184 41.144 39.4415C41.3422 38.1621 41.5484 36.8746 41.7387 35.5951L50.8096 36.4296ZM50.7541 44.0986C51.5788 44.4403 52.3637 44.8138 53.1329 45.2112C51.4677 46.6575 49.5489 47.8496 47.4714 48.7159C48.3992 47.8337 49.2317 46.8165 49.9216 45.68C50.2308 45.1635 50.5004 44.631 50.7541 44.0986ZM48.2247 44.6469C46.3534 47.7304 43.3007 49.8443 40.2638 50.1543C40.1132 50.1702 39.9784 50.2258 39.8515 50.3053C39.7009 50.3053 39.5582 50.3053 39.4075 50.2973C39.8912 47.341 40.3749 44.3767 40.8427 41.4045C43.7447 41.8575 46.4407 42.5171 48.9066 43.3913C48.6925 43.8125 48.4705 44.2337 48.2247 44.6469ZM54.6394 43.7568C53.6403 43.2164 52.5937 42.7158 51.4995 42.2548C52.1655 40.3555 52.5382 38.4164 52.784 36.6044L58.5961 37.1448C57.8111 39.5925 56.4314 41.8416 54.6394 43.7568ZM56.4631 24.0082C56.9626 24.6758 57.375 25.3751 57.7397 26.0983C56.1777 26.5592 54.5998 26.9248 53.006 27.195C52.8633 26.1698 52.6492 25.1526 52.3241 24.1513C51.6263 21.9737 50.4449 20.0585 48.9463 18.5724C51.9673 19.6532 54.5998 21.5128 56.4631 24.0082ZM37.3301 18.3339C35.2447 20.1538 33.4131 22.538 32.0017 25.3115C30.7409 24.8347 29.5278 24.2864 28.3463 23.6744C30.7806 21.2108 33.9126 19.3353 37.3301 18.3339ZM17.4755 45.7754C17.42 45.3224 17.6816 44.8853 18.1098 44.7184L32.2475 39.4098C32.6122 39.2747 33.0245 39.3621 33.2941 39.6402C33.5716 39.9184 33.6589 40.3316 33.5161 40.6972L28.4811 53.9928C28.3225 54.414 27.9023 54.6762 27.4583 54.6285C27.0142 54.5808 26.6495 54.2471 26.5781 53.802L26.142 51.1079L20.4885 56.1226C20.2982 56.2895 20.0683 56.369 19.8304 56.369C19.5688 56.369 19.315 56.2656 19.1247 56.067L15.6597 52.5066C15.4615 52.3 15.3584 52.0219 15.3822 51.7358C15.406 51.4497 15.5487 51.1874 15.7786 51.0205L21.1704 46.9595L18.3477 46.6417C17.8878 46.586 17.531 46.2284 17.4755 45.7754Z" fill="#FAFAFA"/>
</g>
<defs>
<clipPath id="clip0">
<rect width="77" height="89" fill="white"/>
</clipPath>
</defs>
</svg>
