<svg width="260" height="520" viewBox="0 0 260 520" fill="none" xmlns="http://www.w3.org/2000/svg">
<g filter="url(#filter0_i)">
<path fill-rule="evenodd" clip-rule="evenodd" d="M258.497 46.2924C258.497 16.8882 242.799 1.20233 213.39 1.20233H46.9105C17.5015 1.20233 1.80347 16.8882 1.80347 46.2924V78.4538C2.40463 79.7878 2.40463 85.0636 2.40463 85.0636V93.1792C2.35213 93.7824 2.31405 94.4482 2.27618 95.1104C2.18453 96.713 2.09409 98.2944 1.80347 98.9155V117.585C2.09227 117.721 2.31354 118.108 2.38228 119.01H2.40463V153.607C2.40463 154.776 2.1537 155.402 1.80347 155.615V167.481C2.09227 167.617 2.31354 168.004 2.38228 168.906H2.40463V203.503C2.40463 204.672 2.1537 205.298 1.80347 205.511V474.913C1.80347 504.311 17.4998 520 46.9105 520H114.742C115.418 519.641 116.681 519.399 118.127 519.399C118.161 519.399 118.195 519.399 118.228 519.399C118.295 519.399 118.362 519.4 118.428 519.399L142.474 519.402C143.794 519.433 144.93 519.666 145.558 520H213.39C242.801 520 258.497 504.307 258.497 474.91V193.418C258.312 193.222 258.155 192.851 258.048 192.37L257.896 190.566V134.358H257.918C257.987 133.45 258.208 132.715 258.497 132.408V46.2924Z" fill="url(#paint0_linear)"/>
<path fill-rule="evenodd" clip-rule="evenodd" d="M258.497 46.2924C258.497 16.8882 242.799 1.20233 213.39 1.20233H46.9105C17.5015 1.20233 1.80347 16.8882 1.80347 46.2924V78.4538C2.40463 79.7878 2.40463 85.0636 2.40463 85.0636V93.1792C2.35213 93.7824 2.31405 94.4482 2.27618 95.1104C2.18453 96.713 2.09409 98.2944 1.80347 98.9155V117.585C2.09227 117.721 2.31354 118.108 2.38228 119.01H2.40463V153.607C2.40463 154.776 2.1537 155.402 1.80347 155.615V167.481C2.09227 167.617 2.31354 168.004 2.38228 168.906H2.40463V203.503C2.40463 204.672 2.1537 205.298 1.80347 205.511V474.913C1.80347 504.311 17.4998 520 46.9105 520H114.742C115.418 519.641 116.681 519.399 118.127 519.399C118.161 519.399 118.195 519.399 118.228 519.399C118.295 519.399 118.362 519.4 118.428 519.399L142.474 519.402C143.794 519.433 144.93 519.666 145.558 520H213.39C242.801 520 258.497 504.307 258.497 474.91V193.418C258.312 193.222 258.155 192.851 258.048 192.37L257.896 190.566V134.358H257.918C257.987 133.45 258.208 132.715 258.497 132.408V46.2924Z" fill="url(#paint1_linear)"/>
</g>
<g filter="url(#filter1_ii)">
<path fill-rule="evenodd" clip-rule="evenodd" d="M210.45 5.4104C240.235 5.4104 254.289 17.6859 254.289 47.4913V474.913C254.289 504.712 240.236 516.393 210.45 516.393H49.851C20.0645 516.393 5.41041 504.712 5.41041 474.913V47.4913C5.41041 17.6859 20.0661 5.4104 49.851 5.4104H210.45Z" fill="url(#paint2_linear)"/>
</g>
<path fill-rule="evenodd" clip-rule="evenodd" d="M210.45 5.4104C240.235 5.4104 254.289 17.6859 254.289 47.4913V474.913C254.289 504.712 240.236 516.393 210.45 516.393H49.851C20.0645 516.393 5.41041 504.712 5.41041 474.913V47.4913C5.41041 17.6859 20.0661 5.4104 49.851 5.4104H210.45Z" stroke="url(#paint3_linear)" stroke-width="0.5"/>
<g filter="url(#filter2_ii)">
<path fill-rule="evenodd" clip-rule="evenodd" d="M210.694 7.21387C240.482 7.21387 251.884 19.23 251.884 49.0657V472.738C251.884 502.567 240.484 513.989 209.491 513.989H49.6071C20.4179 513.989 7.81503 502.567 7.81503 473.339V49.0657C7.81503 19.23 19.8183 7.21387 49.6071 7.21387H210.694Z" fill="url(#paint4_linear)"/>
<path fill-rule="evenodd" clip-rule="evenodd" d="M210.694 7.21387C240.482 7.21387 251.884 19.23 251.884 49.0657V472.738C251.884 502.567 240.484 513.989 209.491 513.989H49.6071C20.4179 513.989 7.81503 502.567 7.81503 473.339V49.0657C7.81503 19.23 19.8183 7.21387 49.6071 7.21387H210.694Z" fill="url(#paint5_linear)"/>
</g>
<g filter="url(#filter3_di)">
<path fill-rule="evenodd" clip-rule="evenodd" d="M257.595 136.782C257.638 135.023 257.915 133.69 258.091 133.176C259.493 133.517 259.699 133.416 259.699 133.416V191.924C259.699 191.924 259.262 192.585 258.091 192.742C257.932 192.554 257.701 192.035 257.595 189.439C257.595 187.035 257.553 138.541 257.595 136.782Z" fill="url(#paint6_linear)"/>
</g>
<mask id="mask0" mask-type="alpha" maskUnits="userSpaceOnUse" x="257" y="133" width="3" height="60">
<path fill-rule="evenodd" clip-rule="evenodd" d="M257.595 136.782C257.638 135.023 257.915 133.69 258.091 133.176C259.493 133.517 259.699 133.416 259.699 133.416V191.924C259.699 191.924 259.262 192.585 258.091 192.742C257.932 192.554 257.701 192.035 257.595 189.439C257.595 187.035 257.553 138.541 257.595 136.782Z" fill="white"/>
</mask>
<g mask="url(#mask0)">
<path fill-rule="evenodd" clip-rule="evenodd" d="M260.766 132.254C260.766 132.254 259.285 132.064 259.098 136.462C259.098 167.749 259.098 187.561 259.098 187.46C259.098 192.429 260.54 192.695 260.766 192.971L260.902 192.102C260.068 190.861 259.932 189.349 259.932 186.989C259.932 185.079 259.932 140.299 259.932 138.845C259.932 136.031 260.535 133.301 260.766 133.313V132.254Z" fill="#F7FAFF"/>
</g>
<g filter="url(#filter4_di)">
<path fill-rule="evenodd" clip-rule="evenodd" d="M2.7052 171.649C2.6628 169.89 2.7052 168.647 2.19328 167.962C1.6986 168.03 1.16789 168.138 0.601158 168.283L0.601158 204.548C0.846454 204.706 1.37716 204.923 2.19328 205.199C2.50443 204.728 2.59945 204.659 2.7052 202.064C2.7052 199.659 2.74761 173.408 2.7052 171.649Z" fill="url(#paint7_linear)"/>
</g>
<mask id="mask1" mask-type="alpha" maskUnits="userSpaceOnUse" x="0" y="167" width="3" height="39">
<path fill-rule="evenodd" clip-rule="evenodd" d="M2.7052 171.649C2.6628 169.89 2.7052 168.647 2.19328 167.962C1.6986 168.03 1.16789 168.138 0.601158 168.283L0.601158 204.548C0.846454 204.706 1.37716 204.923 2.19328 205.199C2.50443 204.728 2.59945 204.659 2.7052 202.064C2.7052 199.659 2.74761 173.408 2.7052 171.649Z" fill="white"/>
</mask>
<g mask="url(#mask1)">
<path fill-rule="evenodd" clip-rule="evenodd" d="M-0.465087 167.121C-0.465087 167.121 1.0156 166.931 1.20231 171.329V200.085C1.20231 205.053 -0.239463 205.319 -0.465087 205.595L-0.601154 204.726C0.232547 203.485 0.368613 201.973 0.368613 199.614V173.712C0.368613 170.898 -0.234214 168.168 -0.465087 168.18V167.121Z" fill="#D0D5DA"/>
</g>
<g filter="url(#filter5_di)">
<path fill-rule="evenodd" clip-rule="evenodd" d="M2.7052 121.753C2.6628 119.994 2.50656 118.224 2.21148 117.991C1.7168 118.072 1.18003 118.204 0.601158 118.387L0.601158 154.652C0.681587 154.897 1.19297 155.105 2.13531 155.278C2.46671 154.885 2.7052 154.342 2.7052 152.168C2.7052 149.763 2.74761 123.512 2.7052 121.753Z" fill="url(#paint8_linear)"/>
</g>
<mask id="mask2" mask-type="alpha" maskUnits="userSpaceOnUse" x="0" y="117" width="3" height="39">
<path fill-rule="evenodd" clip-rule="evenodd" d="M2.7052 121.753C2.6628 119.994 2.50656 118.224 2.21148 117.991C1.7168 118.072 1.18003 118.204 0.601158 118.387L0.601158 154.652C0.681587 154.897 1.19297 155.105 2.13531 155.278C2.46671 154.885 2.7052 154.342 2.7052 152.168C2.7052 149.763 2.74761 123.512 2.7052 121.753Z" fill="white"/>
</mask>
<g mask="url(#mask2)">
<path fill-rule="evenodd" clip-rule="evenodd" d="M-0.465087 117.225C-0.465087 117.225 1.0156 117.035 1.20231 121.434V150.189C1.20231 155.157 -0.239463 155.423 -0.465087 155.699L-0.601154 154.83C0.232547 153.589 0.368613 152.077 0.368613 149.718V123.816C0.368613 121.002 -0.234214 118.272 -0.465087 118.284V117.225Z" fill="#D0D5DA"/>
</g>
<g filter="url(#filter6_di)">
<path fill-rule="evenodd" clip-rule="evenodd" d="M2.40462 81.1561C2.40462 79.7194 2.04098 78.7515 2.04098 78.7515H0.561541L0 79.3117L0 97.5426L0.599952 98.197L2.04098 98.2006C2.04098 98.2006 2.40462 96.6689 2.40462 94.9827C2.40462 93.7892 2.40462 82.2364 2.40462 81.1561Z" fill="url(#paint9_linear)"/>
<path fill-rule="evenodd" clip-rule="evenodd" d="M2.40462 81.1561C2.40462 79.7194 2.04098 78.7515 2.04098 78.7515H0.561541L0 79.3117L0 97.5426L0.599952 98.197L2.04098 98.2006C2.04098 98.2006 2.40462 96.6689 2.40462 94.9827C2.40462 93.7892 2.40462 82.2364 2.40462 81.1561Z" fill="url(#paint10_linear)"/>
</g>
<mask id="mask3" mask-type="alpha" maskUnits="userSpaceOnUse" x="0" y="78" width="3" height="21">
<path fill-rule="evenodd" clip-rule="evenodd" d="M2.40462 81.1561C2.40462 79.7194 2.04098 78.7515 2.04098 78.7515H0.561541L0 79.3117L0 97.5426L0.599952 98.197L2.04098 98.2006C2.04098 98.2006 2.40462 96.6689 2.40462 94.9827C2.40462 93.7892 2.40462 82.2364 2.40462 81.1561Z" fill="white"/>
<path fill-rule="evenodd" clip-rule="evenodd" d="M2.40462 81.1561C2.40462 79.7194 2.04098 78.7515 2.04098 78.7515H0.561541L0 79.3117L0 97.5426L0.599952 98.197L2.04098 98.2006C2.04098 98.2006 2.40462 96.6689 2.40462 94.9827C2.40462 93.7892 2.40462 82.2364 2.40462 81.1561Z" stroke="white"/>
</mask>
<g mask="url(#mask3)">
<path fill-rule="evenodd" clip-rule="evenodd" d="M-1.3113e-06 77.5492C-0.0981148 77.5492 0.901733 78.6348 0.901733 81.3304V94.6743C0.901733 98.928 -0.0397751 98.7689 -0.202466 99.0484L-0.300579 98.1687C0.300577 96.9133 0.300577 95.5669 0.300577 94.3815V82.3584C0.300577 80.6527 -0.0359898 78.6084 -0.202466 78.6205L-1.3113e-06 77.5492Z" fill="url(#paint11_linear)" fill-opacity="0.2"/>
</g>
<g filter="url(#filter7_ddi)">
<path fill-rule="evenodd" clip-rule="evenodd" d="M116.324 19.8382C115.162 19.8382 114.22 20.7802 114.22 21.9422C114.22 23.1042 115.162 24.0463 116.324 24.0463H143.376C144.538 24.0463 145.48 23.1042 145.48 21.9422C145.48 20.7802 144.538 19.8382 143.376 19.8382H116.324Z" fill="#F4F4F4"/>
<path d="M114.47 21.9422C114.47 20.9182 115.3 20.0882 116.324 20.0882H143.376C144.4 20.0882 145.23 20.9182 145.23 21.9422C145.23 22.9662 144.4 23.7963 143.376 23.7963H116.324C115.3 23.7963 114.47 22.9662 114.47 21.9422Z" stroke="url(#paint12_linear)" stroke-width="0.5"/>
</g>
<g filter="url(#filter8_i)">
<path fill-rule="evenodd" clip-rule="evenodd" d="M160.97 22.9364C161.519 21.0215 160.412 19.0241 158.497 18.475C156.582 17.9259 154.585 19.0331 154.036 20.948C153.487 22.8629 154.594 24.8603 156.509 25.4094C158.424 25.9585 160.421 24.8513 160.97 22.9364Z" fill="url(#paint13_linear)"/>
</g>
<g filter="url(#filter9_i)">
<path fill-rule="evenodd" clip-rule="evenodd" d="M159.814 22.605C160.18 21.3284 159.442 19.9968 158.166 19.6307C156.889 19.2647 155.557 20.0028 155.191 21.2794C154.825 22.556 155.563 23.8876 156.84 24.2537C158.117 24.6197 159.448 23.8816 159.814 22.605Z" fill="url(#paint14_radial)"/>
</g>
<mask id="mask4" mask-type="alpha" maskUnits="userSpaceOnUse" x="155" y="19" width="5" height="6">
<path fill-rule="evenodd" clip-rule="evenodd" d="M159.814 22.605C160.18 21.3284 159.442 19.9968 158.166 19.6307C156.889 19.2647 155.557 20.0028 155.191 21.2794C154.825 22.556 155.563 23.8876 156.84 24.2537C158.117 24.6197 159.448 23.8816 159.814 22.605Z" fill="white"/>
</mask>
<g mask="url(#mask4)">
</g>
<defs>
<filter id="filter0_i" x="1.80347" y="1.20233" width="256.694" height="518.798" filterUnits="userSpaceOnUse" color-interpolation-filters="sRGB">
<feFlood flood-opacity="0" result="BackgroundImageFix"/>
<feBlend mode="normal" in="SourceGraphic" in2="BackgroundImageFix" result="shape"/>
<feColorMatrix in="SourceAlpha" type="matrix" values="0 0 0 0 0 0 0 0 0 0 0 0 0 0 0 0 0 0 127 0" result="hardAlpha"/>
<feOffset/>
<feGaussianBlur stdDeviation="1.5"/>
<feComposite in2="hardAlpha" operator="arithmetic" k2="-1" k3="1"/>
<feColorMatrix type="matrix" values="0 0 0 0 0 0 0 0 0 0 0 0 0 0 0 0 0 0 0.1 0"/>
<feBlend mode="normal" in2="shape" result="effect1_innerShadow"/>
</filter>
<filter id="filter1_ii" x="4.16041" y="5.1604" width="251.379" height="511.483" filterUnits="userSpaceOnUse" color-interpolation-filters="sRGB">
<feFlood flood-opacity="0" result="BackgroundImageFix"/>
<feBlend mode="normal" in="SourceGraphic" in2="BackgroundImageFix" result="shape"/>
<feColorMatrix in="SourceAlpha" type="matrix" values="0 0 0 0 0 0 0 0 0 0 0 0 0 0 0 0 0 0 127 0" result="hardAlpha"/>
<feOffset dx="1"/>
<feGaussianBlur stdDeviation="1"/>
<feComposite in2="hardAlpha" operator="arithmetic" k2="-1" k3="1"/>
<feColorMatrix type="matrix" values="0 0 0 0 0 0 0 0 0 0 0 0 0 0 0 0 0 0 0.15666 0"/>
<feBlend mode="normal" in2="shape" result="effect1_innerShadow"/>
<feColorMatrix in="SourceAlpha" type="matrix" values="0 0 0 0 0 0 0 0 0 0 0 0 0 0 0 0 0 0 127 0" result="hardAlpha"/>
<feOffset dx="-1"/>
<feGaussianBlur stdDeviation="1"/>
<feComposite in2="hardAlpha" operator="arithmetic" k2="-1" k3="1"/>
<feColorMatrix type="matrix" values="0 0 0 0 0 0 0 0 0 0 0 0 0 0 0 0 0 0 0.05 0"/>
<feBlend mode="normal" in2="effect1_innerShadow" result="effect2_innerShadow"/>
</filter>
<filter id="filter2_ii" x="7.81503" y="7.21387" width="247.069" height="508.775" filterUnits="userSpaceOnUse" color-interpolation-filters="sRGB">
<feFlood flood-opacity="0" result="BackgroundImageFix"/>
<feBlend mode="normal" in="SourceGraphic" in2="BackgroundImageFix" result="shape"/>
<feColorMatrix in="SourceAlpha" type="matrix" values="0 0 0 0 0 0 0 0 0 0 0 0 0 0 0 0 0 0 127 0" result="hardAlpha"/>
<feOffset dy="2"/>
<feGaussianBlur stdDeviation="3"/>
<feComposite in2="hardAlpha" operator="arithmetic" k2="-1" k3="1"/>
<feColorMatrix type="matrix" values="0 0 0 0 1 0 0 0 0 1 0 0 0 0 1 0 0 0 0.794307 0"/>
<feBlend mode="normal" in2="shape" result="effect1_innerShadow"/>
<feColorMatrix in="SourceAlpha" type="matrix" values="0 0 0 0 0 0 0 0 0 0 0 0 0 0 0 0 0 0 127 0" result="hardAlpha"/>
<feOffset dx="3"/>
<feGaussianBlur stdDeviation="3"/>
<feComposite in2="hardAlpha" operator="arithmetic" k2="-1" k3="1"/>
<feColorMatrix type="matrix" values="0 0 0 0 0 0 0 0 0 0 0 0 0 0 0 0 0 0 0.100579 0"/>
<feBlend mode="normal" in2="effect1_innerShadow" result="effect2_innerShadow"/>
</filter>
<filter id="filter3_di" x="257.377" y="133.176" width="2.82289" height="59.5663" filterUnits="userSpaceOnUse" color-interpolation-filters="sRGB">
<feFlood flood-opacity="0" result="BackgroundImageFix"/>
<feColorMatrix in="SourceAlpha" type="matrix" values="0 0 0 0 0 0 0 0 0 0 0 0 0 0 0 0 0 0 127 0"/>
<feOffset dx="-0.2"/>
<feColorMatrix type="matrix" values="0 0 0 0 0 0 0 0 0 0 0 0 0 0 0 0 0 0 0.3 0"/>
<feBlend mode="normal" in2="BackgroundImageFix" result="effect1_dropShadow"/>
<feBlend mode="normal" in="SourceGraphic" in2="effect1_dropShadow" result="shape"/>
<feColorMatrix in="SourceAlpha" type="matrix" values="0 0 0 0 0 0 0 0 0 0 0 0 0 0 0 0 0 0 127 0" result="hardAlpha"/>
<feOffset dx="0.5"/>
<feGaussianBlur stdDeviation="0.5"/>
<feComposite in2="hardAlpha" operator="arithmetic" k2="-1" k3="1"/>
<feColorMatrix type="matrix" values="0 0 0 0 0 0 0 0 0 0 0 0 0 0 0 0 0 0 0.100934 0"/>
<feBlend mode="normal" in2="shape" result="effect2_innerShadow"/>
</filter>
<filter id="filter4_di" x="0.101158" y="167.962" width="2.82289" height="37.2375" filterUnits="userSpaceOnUse" color-interpolation-filters="sRGB">
<feFlood flood-opacity="0" result="BackgroundImageFix"/>
<feColorMatrix in="SourceAlpha" type="matrix" values="0 0 0 0 0 0 0 0 0 0 0 0 0 0 0 0 0 0 127 0"/>
<feOffset dx="0.2"/>
<feColorMatrix type="matrix" values="0 0 0 0 0 0 0 0 0 0 0 0 0 0 0 0 0 0 0.3 0"/>
<feBlend mode="normal" in2="BackgroundImageFix" result="effect1_dropShadow"/>
<feBlend mode="normal" in="SourceGraphic" in2="effect1_dropShadow" result="shape"/>
<feColorMatrix in="SourceAlpha" type="matrix" values="0 0 0 0 0 0 0 0 0 0 0 0 0 0 0 0 0 0 127 0" result="hardAlpha"/>
<feOffset dx="-0.5"/>
<feGaussianBlur stdDeviation="0.5"/>
<feComposite in2="hardAlpha" operator="arithmetic" k2="-1" k3="1"/>
<feColorMatrix type="matrix" values="0 0 0 0 0 0 0 0 0 0 0 0 0 0 0 0 0 0 0.0963724 0"/>
<feBlend mode="normal" in2="shape" result="effect2_innerShadow"/>
</filter>
<filter id="filter5_di" x="0.101158" y="117.991" width="2.82289" height="37.2871" filterUnits="userSpaceOnUse" color-interpolation-filters="sRGB">
<feFlood flood-opacity="0" result="BackgroundImageFix"/>
<feColorMatrix in="SourceAlpha" type="matrix" values="0 0 0 0 0 0 0 0 0 0 0 0 0 0 0 0 0 0 127 0"/>
<feOffset dx="0.2"/>
<feColorMatrix type="matrix" values="0 0 0 0 0 0 0 0 0 0 0 0 0 0 0 0 0 0 0.3 0"/>
<feBlend mode="normal" in2="BackgroundImageFix" result="effect1_dropShadow"/>
<feBlend mode="normal" in="SourceGraphic" in2="effect1_dropShadow" result="shape"/>
<feColorMatrix in="SourceAlpha" type="matrix" values="0 0 0 0 0 0 0 0 0 0 0 0 0 0 0 0 0 0 127 0" result="hardAlpha"/>
<feOffset dx="-0.5"/>
<feGaussianBlur stdDeviation="0.5"/>
<feComposite in2="hardAlpha" operator="arithmetic" k2="-1" k3="1"/>
<feColorMatrix type="matrix" values="0 0 0 0 0 0 0 0 0 0 0 0 0 0 0 0 0 0 0.100716 0"/>
<feBlend mode="normal" in2="shape" result="effect2_innerShadow"/>
</filter>
<filter id="filter6_di" x="-0.5" y="78.7515" width="3.10462" height="19.4491" filterUnits="userSpaceOnUse" color-interpolation-filters="sRGB">
<feFlood flood-opacity="0" result="BackgroundImageFix"/>
<feColorMatrix in="SourceAlpha" type="matrix" values="0 0 0 0 0 0 0 0 0 0 0 0 0 0 0 0 0 0 127 0"/>
<feOffset dx="0.2"/>
<feColorMatrix type="matrix" values="0 0 0 0 0 0 0 0 0 0 0 0 0 0 0 0 0 0 0.3 0"/>
<feBlend mode="normal" in2="BackgroundImageFix" result="effect1_dropShadow"/>
<feBlend mode="normal" in="SourceGraphic" in2="effect1_dropShadow" result="shape"/>
<feColorMatrix in="SourceAlpha" type="matrix" values="0 0 0 0 0 0 0 0 0 0 0 0 0 0 0 0 0 0 127 0" result="hardAlpha"/>
<feOffset dx="-0.5"/>
<feGaussianBlur stdDeviation="0.5"/>
<feComposite in2="hardAlpha" operator="arithmetic" k2="-1" k3="1"/>
<feColorMatrix type="matrix" values="0 0 0 0 0 0 0 0 0 0 0 0 0 0 0 0 0 0 0.5 0"/>
<feBlend mode="normal" in2="shape" result="effect2_innerShadow"/>
</filter>
<filter id="filter7_ddi" x="113.72" y="19.3382" width="32.2601" height="5.20809" filterUnits="userSpaceOnUse" color-interpolation-filters="sRGB">
<feFlood flood-opacity="0" result="BackgroundImageFix"/>
<feColorMatrix in="SourceAlpha" type="matrix" values="0 0 0 0 0 0 0 0 0 0 0 0 0 0 0 0 0 0 127 0"/>
<feOffset dx="-0.5" dy="0.5"/>
<feColorMatrix type="matrix" values="0 0 0 0 1 0 0 0 0 1 0 0 0 0 1 0 0 0 0.5 0"/>
<feBlend mode="normal" in2="BackgroundImageFix" result="effect1_dropShadow"/>
<feColorMatrix in="SourceAlpha" type="matrix" values="0 0 0 0 0 0 0 0 0 0 0 0 0 0 0 0 0 0 127 0"/>
<feOffset dx="0.5" dy="-0.5"/>
<feColorMatrix type="matrix" values="0 0 0 0 0 0 0 0 0 0 0 0 0 0 0 0 0 0 0.152262 0"/>
<feBlend mode="normal" in2="effect1_dropShadow" result="effect2_dropShadow"/>
<feBlend mode="normal" in="SourceGraphic" in2="effect2_dropShadow" result="shape"/>
<feColorMatrix in="SourceAlpha" type="matrix" values="0 0 0 0 0 0 0 0 0 0 0 0 0 0 0 0 0 0 127 0" result="hardAlpha"/>
<feOffset dy="0.5"/>
<feGaussianBlur stdDeviation="0.5"/>
<feComposite in2="hardAlpha" operator="arithmetic" k2="-1" k3="1"/>
<feColorMatrix type="matrix" values="0 0 0 0 0 0 0 0 0 0 0 0 0 0 0 0 0 0 0.151524 0"/>
<feBlend mode="normal" in2="shape" result="effect3_innerShadow"/>
</filter>
<filter id="filter8_i" x="153.895" y="18.3343" width="7.21574" height="7.71574" filterUnits="userSpaceOnUse" color-interpolation-filters="sRGB">
<feFlood flood-opacity="0" result="BackgroundImageFix"/>
<feBlend mode="normal" in="SourceGraphic" in2="BackgroundImageFix" result="shape"/>
<feColorMatrix in="SourceAlpha" type="matrix" values="0 0 0 0 0 0 0 0 0 0 0 0 0 0 0 0 0 0 127 0" result="hardAlpha"/>
<feOffset dy="0.5"/>
<feGaussianBlur stdDeviation="0.5"/>
<feComposite in2="hardAlpha" operator="arithmetic" k2="-1" k3="1"/>
<feColorMatrix type="matrix" values="0 0 0 0 0 0 0 0 0 0 0 0 0 0 0 0 0 0 0.149858 0"/>
<feBlend mode="normal" in2="shape" result="effect1_innerShadow"/>
</filter>
<filter id="filter9_i" x="155.098" y="19.5369" width="4.81048" height="4.81049" filterUnits="userSpaceOnUse" color-interpolation-filters="sRGB">
<feFlood flood-opacity="0" result="BackgroundImageFix"/>
<feBlend mode="normal" in="SourceGraphic" in2="BackgroundImageFix" result="shape"/>
<feColorMatrix in="SourceAlpha" type="matrix" values="0 0 0 0 0 0 0 0 0 0 0 0 0 0 0 0 0 0 127 0" result="hardAlpha"/>
<feOffset/>
<feGaussianBlur stdDeviation="1"/>
<feComposite in2="hardAlpha" operator="arithmetic" k2="-1" k3="1"/>
<feColorMatrix type="matrix" values="0 0 0 0 0 0 0 0 0 0 0 0 0 0 0 0 0 0 0.101508 0"/>
<feBlend mode="normal" in2="shape" result="effect1_innerShadow"/>
</filter>
<linearGradient id="paint0_linear" x1="1.80347" y1="520" x2="258.497" y2="520" gradientUnits="userSpaceOnUse">
<stop stop-color="#CFD3D8"/>
<stop offset="0.125764" stop-color="#ECEDF0"/>
<stop offset="0.933415" stop-color="#F0F1F2"/>
<stop offset="1" stop-color="#FBFEFF"/>
</linearGradient>
<linearGradient id="paint1_linear" x1="104.73" y1="417.247" x2="104.73" y2="520" gradientUnits="userSpaceOnUse">
<stop stop-color="white" stop-opacity="0.5"/>
<stop offset="1" stop-color="#D0D5DA"/>
</linearGradient>
<linearGradient id="paint2_linear" x1="5.41041" y1="516.393" x2="254.289" y2="516.393" gradientUnits="userSpaceOnUse">
<stop stop-color="#D9D9D9"/>
<stop offset="0.204224" stop-color="#EDF1F4" stop-opacity="0.01"/>
<stop offset="0.903481" stop-color="#EEF1F4" stop-opacity="0.01"/>
<stop offset="1" stop-color="white"/>
</linearGradient>
<linearGradient id="paint3_linear" x1="5.41041" y1="516.393" x2="254.289" y2="516.393" gradientUnits="userSpaceOnUse">
<stop stop-color="white" stop-opacity="0.5"/>
<stop offset="0.0657694" stop-opacity="0.05"/>
<stop offset="0.949195" stop-opacity="0.05"/>
<stop offset="1" stop-opacity="0.1"/>
</linearGradient>
<linearGradient id="paint4_linear" x1="7.81503" y1="513.989" x2="251.884" y2="513.989" gradientUnits="userSpaceOnUse">
<stop stop-color="#ECEDF0"/>
<stop offset="1" stop-color="#F8F8F8"/>
</linearGradient>
<linearGradient id="paint5_linear" x1="112.225" y1="440.8" x2="112.225" y2="513.989" gradientUnits="userSpaceOnUse">
<stop stop-color="#E3E6EB" stop-opacity="0.01"/>
<stop offset="1" stop-color="#E3E6EB"/>
</linearGradient>
<linearGradient id="paint6_linear" x1="257.61" y1="134.188" x2="257.61" y2="191.886" gradientUnits="userSpaceOnUse">
<stop stop-color="#B1B8C2"/>
<stop offset="0.0516372" stop-color="#ECEEF1"/>
<stop offset="0.920731" stop-color="#EDEEF1"/>
<stop offset="1" stop-color="#B1B8C2"/>
</linearGradient>
<linearGradient id="paint7_linear" x1="0.634453" y1="168.594" x2="0.634453" y2="204.664" gradientUnits="userSpaceOnUse">
<stop stop-color="#B1B8C2"/>
<stop offset="0.0516372" stop-color="#ECEEF1"/>
<stop offset="0.920731" stop-color="#EDEEF1"/>
<stop offset="1" stop-color="#B1B8C2"/>
</linearGradient>
<linearGradient id="paint8_linear" x1="0.634453" y1="118.624" x2="0.634453" y2="154.742" gradientUnits="userSpaceOnUse">
<stop stop-color="#B1B8C2"/>
<stop offset="0.0516372" stop-color="#ECEEF1"/>
<stop offset="0.920731" stop-color="#EDEEF1"/>
<stop offset="1" stop-color="#B1B8C2"/>
</linearGradient>
<linearGradient id="paint9_linear" x1="0.0377132" y1="79.082" x2="0.0377132" y2="97.921" gradientUnits="userSpaceOnUse">
<stop stop-color="#B1B8C2"/>
<stop offset="0.0516372" stop-color="#ECEEF1"/>
<stop offset="0.920731" stop-color="#EDEEF1"/>
<stop offset="1" stop-color="#B1B8C2"/>
</linearGradient>
<linearGradient id="paint10_linear" x1="0" y1="98.2006" x2="2.40462" y2="98.2006" gradientUnits="userSpaceOnUse">
<stop stop-color="#D0D5DA" stop-opacity="0.01"/>
<stop offset="0.684204" stop-color="#D0D4D9" stop-opacity="0.01"/>
<stop offset="1" stop-color="#D0D4D9"/>
</linearGradient>
<linearGradient id="paint11_linear" x1="-0.200833" y1="79.3799" x2="-0.200833" y2="97.3118" gradientUnits="userSpaceOnUse">
<stop stop-color="#111111"/>
<stop offset="0.153528" stop-color="#FEFEFE"/>
<stop offset="0.831036" stop-color="#FEFEFE"/>
<stop offset="1" stop-color="#1D1D1D"/>
</linearGradient>
<linearGradient id="paint12_linear" x1="145.48" y1="24.0463" x2="145.48" y2="19.8382" gradientUnits="userSpaceOnUse">
<stop stop-color="white" stop-opacity="0.2"/>
<stop offset="1" stop-opacity="0.3"/>
</linearGradient>
<linearGradient id="paint13_linear" x1="162.704" y1="21.6301" x2="157.291" y2="17.3587" gradientUnits="userSpaceOnUse">
<stop stop-color="#F5F9FC"/>
<stop offset="1" stop-color="#EAEAEA"/>
</linearGradient>
<radialGradient id="paint14_radial" cx="0" cy="0" r="1" gradientUnits="userSpaceOnUse" gradientTransform="translate(157.256 20.6207) rotate(16) scale(3.24559)">
<stop stop-color="white"/>
<stop offset="1" stop-color="#DBDBDC"/>
</radialGradient>
</defs>
</svg>
