<svg width="53" height="60" viewBox="0 0 53 60" fill="none" xmlns="http://www.w3.org/2000/svg">
<g clip-path="url(#clip0)">
<path d="M20.8444 0C15.0265 5.20336 16.5163 17.4934 18.2891 24.2927C12.9841 25.0442 8.16975 29.023 6.54287 34.0495C6.20688 35.2564 5.39344 38.0592 6.89212 38.6074C7.5464 42.6835 11.2732 46.1848 15.2343 47.2546C19.2573 48.1521 24.0495 47.9531 27.8117 46.1627C31.3262 50.1636 42.9752 62.8824 48.4394 59.4032C48.8506 58.7224 48.6428 57.8205 47.8161 57.6304C47.1795 57.3431 46.6887 56.7683 46.2246 56.3218C47.427 57.1706 49.6728 57.122 49.1512 55.2255C48.488 54.3457 47.4845 53.5588 46.8921 52.5729C48.2758 52.8691 51.8125 54.1026 51.2157 51.4677C49.1821 49.5402 46.4942 48.1079 44.7215 45.7869C42.3917 43.3687 40.473 40.6764 38.7356 37.9089C43.3068 33.2847 47.626 28.1565 49.8231 21.9496C52.1574 17.4536 56.2069 -1.70645 47.9045 12.0601C48.1963 6.33952 46.8435 3.63395 44.2926 10.5526C43.0239 4.21309 41.6136 7.33422 40.0486 11.1981C37.8956 15.6233 34.2617 19.7082 29.7701 21.534C28.8461 17.1485 27.7498 12.847 27.0247 8.3908C26.5031 6.13174 27.3696 -2.78957 24.4253 3.78868C24.5446 -0.0397879 23.2979 -0.623342 21.8479 3.16534C21.6755 2.15296 22.0159 0.419982 20.8444 0Z" fill="#161616"/>
<path d="M5.30063 38.1966C-1.62687 39.0852 -1.98054 42.6396 5.5261 39.9915C4.73476 41.9013 2.0734 43.369 2.21487 45.4866C3.52344 46.4592 6.39258 43.3778 6.95403 42.1798C7.36518 41.0083 7.61717 39.2885 6.37932 41.0967C6.7993 40.323 7.87358 39.2355 7.19718 38.3646C7.878 38.0507 5.72503 38.1391 5.30063 38.1966ZM0.791347 39.7881C0.800189 39.7925 0.80903 39.7925 0.817872 39.7969C0.80903 39.7925 0.800189 39.7925 0.791347 39.7881Z" fill="#EA9A00"/>
</g>
<defs>
<clipPath id="clip0">
<rect width="52.8868" height="60" fill="white"/>
</clipPath>
</defs>
</svg>
