<svg width="134" height="104" viewBox="0 0 134 104" fill="none" xmlns="http://www.w3.org/2000/svg">
<g clip-path="url(#clip0)">
<path d="M127.719 14.39C120.185 15.188 113.194 18.7963 106.116 21.3508C92.5114 25.9653 79.57 32.3146 65.167 33.8022C51.0632 35.8015 38.2562 37.6924 24.8724 39.2364C20.9561 39.566 16.4977 38.4687 12.7896 40.043C9.36345 40.8454 8.15345 53.4919 12.6422 50.9158C20.8303 92.2425 21.5112 76.9114 53.3184 68.8404C63.1199 66.6762 72.774 64.2128 82.5278 61.8796C90.8807 61.242 99.4158 60.7389 107.942 60.2142C115.233 59.0779 131.327 61.1683 133.365 52.3079C136.111 44.3843 140.253 14.8887 127.719 14.39Z" fill="#EA9A00"/>
<path d="M191.411 0.0303497C179.276 5.03952 167.103 9.99665 154.556 13.9606C146.767 16.411 138.778 18.4537 131.544 22.3439C125.416 25.0502 120.129 29.0402 114.604 32.7353C108.762 37.0505 102.66 27.249 90.0177 30.775C74.2746 33.4465 60.765 42.2635 46.9171 49.5496C43.9159 51.1586 41.0232 50.1221 38.1608 48.8037C26.6028 46.2926 16.051 54.0817 6.58783 59.6417C4.61018 60.9731 -1.53961 63.1936 0.359971 65.952C0.988829 66.5938 1.96898 66.5591 2.61952 65.9823C4.82269 63.9916 7.5593 62.8467 10.1008 61.3808C40.3206 41.9426 34.9818 59.5896 50.6902 51.8308C60.1058 46.6439 69.144 40.7803 79.4876 37.4625C88.2569 34.045 98.3186 31.7464 106.975 36.6645C114.287 40.3119 120.142 32.4837 126.066 29.4262C134.033 24.8073 142.486 21.2077 151.377 18.7963C164.908 14.6372 178.201 9.6974 191.168 4.05504C194.642 3.84686 195.31 -0.412019 191.411 0.0303497ZM189.707 4.54077C189.603 4.58414 189.499 4.62318 189.395 4.66655C189.395 4.66655 189.399 4.66655 189.399 4.66221C189.377 4.67088 189.36 4.67956 189.338 4.68823C189.46 4.63619 189.585 4.58848 189.707 4.54077ZM117.674 30.7793C117.622 30.8183 117.575 30.8574 117.523 30.8921C117.57 30.853 117.622 30.8183 117.674 30.7793ZM40.7239 49.8228C40.8194 49.8619 40.9104 49.9052 41.0058 49.9486C40.9148 49.9052 40.8194 49.8619 40.7239 49.8228Z" fill="#2D2E30"/>
<path d="M196.672 10.4737C190.544 12.3473 185.175 16.4761 178.934 18.2108C168.091 20.5658 157.032 22.6258 147.148 27.9386C138.912 31.8115 131.674 37.3975 123.742 41.8125C118.737 44.8657 112.357 49.1419 106.572 45.5466C87.9706 27.6957 51.228 70.1024 37.4018 61.203C29.0098 55.7775 20.5181 64.2085 14.1384 69.1353C11.2761 71.1693 8.73461 73.7108 5.45588 75.0986C4.07239 75.7925 4.30225 78.0911 5.84187 78.4641C14.763 76.6165 22.5001 63.2804 32.3536 63.0028C36.5475 64.4514 40.3466 67.3962 45.0609 65.7134C62.1051 60.6175 75.9269 47.4158 93.7691 44.4667C93.6174 44.4841 93.4612 44.5014 93.3094 44.5188C98.6222 43.4042 102.218 47.4592 106.589 49.4672C117.974 54.8667 139.034 34.1535 151.147 29.9726C159.856 25.7268 169.414 23.9139 178.847 22.0751C183.778 20.8173 188.241 18.2889 192.86 16.2245C194.69 14.9061 198.862 14.8671 198.511 11.9439C198.324 11.1373 197.518 10.4434 196.672 10.4737Z" fill="#2D2E30"/>
<path d="M187.681 33.5766C184.585 34.1751 181.614 35.8839 178.392 35.4459C176.054 34.9428 173.755 33.9323 171.314 34.1795C152.409 36.1181 137.438 49.5583 121.855 59.195C102.378 71.3515 104.299 57.6727 89.0029 59.3771C73.0819 63.1286 60.6696 74.9251 45.7461 80.8277C32.9912 83.1046 35.216 73.7411 19.8155 84.3753C18.0894 86.045 10.8901 88.6299 11.6621 90.9024C11.9526 91.4185 12.6943 91.6787 13.2147 91.3361C15.4742 89.6924 17.9853 88.4911 20.3967 87.0989C35.7321 76.6252 34.006 87.6671 47.4809 83.8592C61.3331 78.2819 72.9518 67.8472 87.3982 63.4235C105.813 59.4596 99.2467 80.6802 133.248 56.2632C143.314 49.9009 153.25 42.7666 164.791 39.3144C171.7 36.812 174.731 39.592 180.942 39.5573C183.999 39.0499 187.053 38.1868 189.919 37.0158C192.201 35.576 190.019 32.449 187.681 33.5766Z" fill="#2D2E30"/>
<path d="M171.097 48.37C149.208 52.052 129.796 83.7248 107.11 77.4189C107.196 77.4579 107.287 77.4969 107.374 77.536C92.1341 68.5628 73.7628 85.3164 60.5264 92.3553C45.6811 99.8322 46.774 84.2409 26.6852 101.745C25.64 100.266 24.0961 103.107 25.2627 103.827C26.7286 104.52 28.1294 103.003 29.2657 102.244C32.462 99.9233 35.9403 97.976 39.592 96.4754C46.7696 94.1725 51.7831 100.899 60.392 96.2455C72.8997 89.9353 84.2886 79.4442 98.7783 78.3773C104.841 80.1208 109.976 83.4993 116.629 82.0204C136.076 78.6375 149.117 61.1466 167.007 53.9039C175.685 49.6927 179.936 56.2155 182.009 53.0669C183.726 48.3787 174.024 47.8235 171.097 48.37ZM103.315 79.8345C103.371 79.8562 103.423 79.8822 103.48 79.9083C103.428 79.8822 103.371 79.8562 103.315 79.8345Z" fill="#2D2E30"/>
</g>
<defs>
<clipPath id="clip0">
<rect width="198.528" height="104" fill="white"/>
</clipPath>
</defs>
</svg>
