<svg width="111" height="40" viewBox="0 0 111 40" fill="none" xmlns="http://www.w3.org/2000/svg">
<g clip-path="url(#clip0)">
<path d="M36.4772 27.2314C36.4818 27.2268 36.4864 27.22 36.4909 27.2154C36.5092 26.935 36.5502 26.6386 36.6095 26.3353C36.5479 26.6408 36.4932 26.9623 36.4772 27.2314Z" fill="#272727"/>
<path d="M41.1446 4.10876C41.1355 4.13613 41.1286 4.16349 41.1172 4.19313C41.1286 4.16349 41.1378 4.13613 41.1446 4.10876Z" fill="#272727"/>
<path d="M41.1993 3.93547C41.2404 3.80551 41.3179 3.51821 41.2381 3.42017C41.2906 3.49085 41.2746 3.6687 41.1993 3.93547Z" fill="#272727"/>
<path d="M36.8922 25.2317C36.8922 25.2317 36.8352 25.421 36.7623 25.6969C36.8056 25.5373 36.8535 25.3776 36.9059 25.2158C36.6232 25.4962 36.304 25.8018 35.9642 26.1141C36.2903 25.8177 36.63 25.5008 36.8922 25.2317Z" fill="#272727"/>
<path d="M42.5629 6.02179C42.8433 5.4016 43.0599 4.82473 43.2013 4.30258C43.1717 4.38467 43.0736 4.65828 42.7453 5.57032C42.6814 5.74361 42.6199 5.8941 42.5629 6.02179Z" fill="#272727"/>
<path d="M41.2723 6.22242L40.456 5.72079C40.1437 6.32958 39.5189 7.50612 39.0971 8.21752C37.8294 10.3289 35.5812 13.9657 33.9486 16.3096C34.3476 15.808 34.3864 17.6845 34.3864 17.7073C37.3733 14.294 41.1469 9.11132 42.6746 5.75272C42.2687 6.63512 41.2723 6.22242 41.2723 6.22242Z" fill="#272727"/>
<path d="M34.2085 15.9038C34.2108 15.9015 34.2131 15.8992 34.2131 15.8947C33.6955 16.6357 33.2098 17.2924 32.788 17.8031C33.2326 17.3038 33.7594 16.6425 34.2085 15.9038Z" fill="#272727"/>
<path d="M41.1058 4.22733C41.0511 4.38237 40.9804 4.56022 40.9006 4.75175C40.9804 4.56706 41.0511 4.38693 41.1058 4.22733Z" fill="#272727"/>
<path d="M34.6029 17.4657C34.3453 17.753 33.3466 18.8634 32.4482 19.7845C33.1163 19.1142 33.8482 18.3275 34.6029 17.4657Z" fill="#272727"/>
<path d="M41.1833 3.39053C41.1993 3.39281 41.2107 3.39737 41.2221 3.4065C41.2107 3.39965 41.1993 3.39281 41.1833 3.39053Z" fill="#272727"/>
<path d="M35.1342 26.9258C35.1342 26.9258 35.287 26.7115 35.2915 26.7069C34.0375 27.7444 32.2795 28.9848 31.331 28.9848C30.5193 28.9848 30.2479 28.1275 30.2479 26.9076C30.2479 24.6047 30.5694 22.051 31.201 20.9656L31.8577 18.7699C31.8577 18.7243 34.8538 12.0549 38.2397 6.99766C39.943 4.39833 40.8436 3.40192 41.1674 3.38824C41.1492 3.38824 41.1309 3.39052 41.1081 3.39736C41.1081 3.39736 43.6983 1.04201 43.2218 4.2296C43.3267 3.82146 43.3882 3.44525 43.3882 3.11691C43.3882 1.44559 42.5309 0.542664 41.2654 0.542664C36.5707 0.542664 31.6935 9.97776 29.7075 14.2211C27.9792 18.0744 26.9874 21.2643 26.5838 23.8158C26.903 23.6242 27.1857 23.4692 27.4046 23.3848C27.7216 23.476 27.9473 23.7907 27.9906 24.0164C28.0773 24.5249 27.4639 25.3776 26.3672 26.3809C26.3854 29.7691 27.7786 31.4655 29.7965 31.4655C32.1609 31.4655 34.6121 29.304 36.4704 27.2382L35.8844 27.3887L35.1342 26.9258Z" fill="#272727"/>
<path d="M53.7696 24.9649L53.724 25.0128L53.7217 25.0151L53.7696 24.9672V24.9649Z" fill="#272727"/>
<path d="M49.3599 17.9924C49.1706 18.0517 48.9859 18.1109 48.8058 18.1748C48.9882 18.1087 49.1729 18.0494 49.3599 17.9924Z" fill="#272727"/>
<path d="M47.0159 18.9363C45.6251 19.6341 44.6127 20.4047 43.9925 20.9292C44.9114 20.163 45.9169 19.4904 47.0159 18.9363Z" fill="#272727"/>
<path d="M48.1605 18.4187C47.9781 18.4917 47.8025 18.5669 47.6315 18.6445C47.8048 18.5669 47.9827 18.4917 48.1605 18.4187Z" fill="#272727"/>
<path d="M48.767 18.1884C48.5869 18.2523 48.4136 18.3184 48.2426 18.3868C48.4136 18.3184 48.5892 18.2523 48.767 18.1884Z" fill="#272727"/>
<path d="M47.5654 18.6741C47.3762 18.7585 47.1938 18.8474 47.0182 18.9363C47.1983 18.8451 47.3807 18.7585 47.5654 18.6741Z" fill="#272727"/>
<path d="M53.2999 26.2897C52.8484 26.5154 52.2351 26.8187 52.1895 26.4561C52.5725 26.1438 53.0058 25.7516 53.3523 25.4004C52.4813 26.2623 50.9605 27.4936 50.069 27.4936C49.6175 27.4936 49.3918 27.1766 49.3918 26.6363C49.3918 25.4164 50.5204 23.1158 51.2888 21.8959C51.6947 21.2643 50.1602 19.8187 49.0771 19.8187C48.7602 19.8187 48.4455 19.9099 48.1742 20.2246C45.5566 23.2936 44.5625 24.1076 42.8023 25.6421C38.9192 29.0737 39.2362 26.4539 41.7192 23.2047C42.2094 22.621 42.7339 22.0669 43.2925 21.5493C43.2902 21.5516 43.2856 21.5539 43.2834 21.5562C42.9254 21.7454 44.8293 19.992 44.8293 19.992C46.17 18.8246 47.8231 18.0585 48.7351 17.6298C49.6472 17.306 49.9504 17.8191 49.9504 17.8191C49.7885 17.8624 49.6289 17.908 49.4716 17.9559C49.67 17.8966 49.8683 17.8396 50.0713 17.7871C50.7028 17.5614 49.5742 15.3041 47.8595 15.3041C42.9573 15.3041 38.3104 20.8767 36.9105 25.2112C36.858 25.3731 36.8101 25.535 36.7668 25.6923C36.7189 25.877 36.6642 26.0982 36.6163 26.3307C36.557 26.6363 36.516 26.9304 36.4978 27.2108C36.4886 27.3363 36.4841 27.4617 36.4841 27.5802C36.4841 29.5662 37.5215 30.3346 38.6502 30.3346C41.2677 30.3346 44.6537 26.903 46.7309 25.0083C46.7309 25.0083 45.7801 25.2272 46.0833 24.1441C46.2475 23.5604 47.8801 21.1754 48.1514 20.5643C48.4227 19.951 48.0944 21.49 47.9097 21.8617C47.725 22.2311 46.7309 25.0105 46.7309 25.0105C45.8736 27.8994 47.0022 29.6164 48.7625 29.6164C50.8397 29.6164 53.0514 27.4047 54.4058 25.6877L54.7637 25.2386C54.3966 25.6923 53.8403 25.9728 53.2999 26.2897Z" fill="#272727"/>
<path d="M61.1298 13.2338C61.0751 13.3022 61.0249 13.3683 60.9839 13.423C61.0295 13.3615 61.0774 13.2976 61.1298 13.2338Z" fill="#272727"/>
<path d="M57.4953 18.5738C56.5513 20.6783 55.1536 23.3734 53.7719 24.965C53.7719 24.965 53.7719 24.965 53.7696 24.9672L53.7217 25.0151L53.6328 25.104C53.5507 25.1975 53.4527 25.2979 53.3501 25.4027C53.0058 25.7516 51.868 26.6135 51.4849 26.9258C51.5305 27.2861 52.6615 27.7376 53.1631 27.106C53.6533 26.5793 54.3966 25.6923 54.7592 25.2408L54.7614 25.2386L54.9416 25.0128C56.9732 22.5298 58.193 19.821 59.6819 16.7064L59.0686 17.9924L57.4953 18.5738Z" fill="#272727"/>
<path d="M61.6633 12.5954C61.6633 12.5954 61.6451 12.6182 61.6132 12.6546L61.5721 12.7025C61.4672 12.8256 61.2917 13.0309 61.1458 13.2133C61.4741 12.8006 61.8982 12.3423 62.2356 11.9364C62.149 12.039 62.0829 12.112 62.0829 12.112L61.6633 12.5954Z" fill="#272727"/>
<path d="M67.4024 26.5245C67.407 26.52 67.4115 26.5131 67.4161 26.5086C67.4184 26.4607 67.4229 26.4128 67.4275 26.3626C67.4115 26.463 67.4024 26.5245 67.4024 26.5245Z" fill="#272727"/>
<path d="M67.7284 24.7346C67.7262 24.7369 67.7216 24.7392 67.7193 24.7415C67.7011 24.8076 67.6783 24.9102 67.6532 25.0356C67.676 24.9353 67.7011 24.835 67.7284 24.7346Z" fill="#272727"/>
<path d="M60.7832 13.7263C60.733 13.8083 60.6897 13.8859 60.6624 13.9725C60.6874 13.8996 60.7308 13.8152 60.7832 13.7263Z" fill="#272727"/>
<path d="M66.9372 27.0011C66.8916 27.0444 66.8529 27.0832 66.8187 27.1174C66.8597 27.0763 66.8985 27.0375 66.9372 27.0011Z" fill="#272727"/>
<path d="M62.605 11.453C62.6028 11.4576 62.6005 11.4621 62.5982 11.4644C62.6005 11.4598 62.6028 11.4576 62.605 11.453Z" fill="#272727"/>
<path d="M58.3253 16.5468C58.4712 16.1865 58.5784 15.9175 58.5989 15.8491C58.5077 16.0816 58.4165 16.3142 58.3253 16.5468Z" fill="#272727"/>
<path d="M67.391 26.5382C67.3864 26.5428 67.3819 26.5496 67.3773 26.5542C67.3819 26.5496 67.3864 26.5428 67.391 26.5382Z" fill="#272727"/>
<path d="M66.9441 26.9942C66.9897 26.9486 67.0353 26.903 67.0809 26.8597C67.033 26.9053 66.9874 26.9509 66.9441 26.9942Z" fill="#272727"/>
<path d="M66.5291 25.8815C66.5861 25.8359 66.7184 25.7151 66.8711 25.5692C65.3799 26.9577 63.9914 27.8105 62.3907 27.8105C61.579 27.8105 61.0819 27.4046 61.0819 26.5473C61.0819 24.3812 65.0106 21.0386 65.0106 18.4666C65.0106 16.1637 60.6305 15.1718 60.6305 14.1321C60.6305 14.1321 60.2383 13.5256 60.6305 12.8621L60.9383 12.3947C60.9383 12.3856 60.9406 12.3764 60.9451 12.3673C61.0113 12.2624 61.0728 12.1758 61.1344 12.096L61.1412 12.0869C61.221 11.9843 61.2985 11.8999 61.3692 11.8315C61.5836 11.624 61.7272 11.4826 62.1285 11.1361C62.7282 10.6185 62.6324 11.4028 62.6301 11.4097C62.7327 11.2523 62.7966 11.1155 62.7966 11.0175C62.7966 10.6116 61.8937 9.7543 60.8106 9.7543C59.9077 9.7543 58.9592 10.566 58.3732 11.6514C57.6048 13.0057 57.4246 14.8116 58.5077 15.7601L58.5989 15.8513L59.6819 16.7086C60.4503 17.2946 60.9451 17.6572 60.9451 18.2432C60.9451 19.8233 57.3334 23.2092 57.3334 26.5952C57.3334 28.6268 58.8679 30.0268 60.9907 30.0268C63.0884 30.0268 65.4255 28.417 66.935 27.0033C66.935 26.9874 66.3376 26.0297 66.5291 25.8815Z" fill="#272727"/>
<path d="M75.9688 26.3353C76.0052 26.3034 76.0417 26.2737 76.0782 26.2418C76.0417 26.2737 76.0052 26.3056 75.9688 26.3353Z" fill="#272727"/>
<path d="M75.8434 27.9633C75.6017 28.1822 75.4056 28.3509 75.2688 28.4649C75.4649 28.3053 75.6564 28.1366 75.8434 27.9633Z" fill="#272727"/>
<path d="M77.3208 25.0265C77.2821 25.0698 77.241 25.1132 77.2023 25.1588C77.2593 25.0972 77.3003 25.0493 77.3208 25.0265Z" fill="#272727"/>
<path d="M74.4913 15.621C75.8001 15.621 76.7486 14.9894 76.7486 14.1321C76.7486 12.8233 74.2199 11.152 73.2714 11.9204C72.4597 12.5976 72.1428 14.6748 72.6398 15.1263C72.9112 15.3953 73.6773 15.621 74.4913 15.621Z" fill="#272727"/>
<path d="M74.8971 27.1265C75.2483 26.9076 75.5857 26.6522 75.8935 26.3968C74.7056 27.3682 73.26 28.1708 71.9626 28.1708C71.1053 28.1708 70.7428 27.7193 70.7428 26.9509C70.7428 25.9568 71.3288 24.5135 72.1884 22.979C72.6193 22.2356 73.1232 21.4764 73.5861 20.7855C73.4401 20.993 73.3375 21.1343 73.3375 21.1343L71.3037 23.5376C71.3037 23.5376 73.3672 19.7777 73.9258 19.1666C74.7079 18.3116 74.6258 19.1484 74.6258 19.1484C74.619 19.162 74.6121 19.178 74.6053 19.194C74.7353 18.966 74.8379 18.763 74.8994 18.5989C75.3053 17.4702 72.2362 17.0643 71.0164 18.1474C70.2936 18.779 69.6164 20.0878 68.9848 21.4422C68.3874 22.7076 67.9816 23.793 67.7307 24.7324C67.7034 24.835 67.6783 24.933 67.6532 25.0333C67.5734 25.4392 67.4731 26.0685 67.4275 26.3626C67.4229 26.4128 67.4207 26.4607 67.4161 26.5086C67.407 26.6454 67.4024 26.7799 67.4024 26.9076C67.4024 29.4818 69.6141 30.2023 70.9229 30.2023C72.5418 30.2023 73.8734 29.5616 75.0613 28.6313C73.3854 28.4672 74.8971 27.1265 74.8971 27.1265Z" fill="#272727"/>
<path d="M90.6641 4.47359C90.6755 4.4713 90.6869 4.46902 90.6983 4.46902C90.6869 4.4713 90.6755 4.4713 90.6641 4.47359Z" fill="#272727"/>
<path d="M97.5797 25.0402C97.5956 25.022 97.607 25.0106 97.607 25.0106C97.5979 25.022 97.5865 25.0311 97.5797 25.0402Z" fill="#272727"/>
<path d="M97.1031 25.5486C96.736 25.9157 96.321 26.2851 95.8764 26.6249C95.881 26.6226 95.8855 26.618 95.8901 26.6157C96.1728 26.4789 96.7041 25.9613 97.1031 25.5486Z" fill="#272727"/>
<path d="M90.623 4.48726C90.6367 4.4827 90.6504 4.47814 90.6618 4.47586C90.6504 4.47814 90.6367 4.48042 90.623 4.48726Z" fill="#272727"/>
<path d="M97.8077 24.8099L97.6047 25.0128L97.8077 24.8167C97.8077 24.8122 97.8077 24.8122 97.8077 24.8099Z" fill="#272727"/>
<path d="M92.9328 6.26804C92.9146 6.3296 92.723 6.94979 92.5292 7.52438C92.6843 7.09572 92.8211 6.67618 92.9328 6.26804Z" fill="#272727"/>
<path d="M81.4228 35.8069C81.3316 36.0941 81.2472 36.3336 81.2039 36.459C81.2814 36.2492 81.3544 36.0303 81.4228 35.8069Z" fill="#272727"/>
<path d="M92.91 15.124C93.1814 15.3953 93.9475 15.621 94.7615 15.621C96.0703 15.621 97.0188 14.9894 97.0188 14.1321C97.0188 12.8233 94.4901 11.152 93.5416 11.9204C92.7299 12.5976 92.413 14.6725 92.91 15.124Z" fill="#272727"/>
<path d="M84.6104 18.836C84.3687 19.0572 84.0905 19.3057 83.8192 19.5474C84.0883 19.3125 84.3505 19.0754 84.6104 18.836Z" fill="#272727"/>
<path d="M93.1927 5.13708C93.1335 5.4221 93.0537 5.78464 92.9374 6.25434C93.0423 5.87356 93.1266 5.49962 93.1927 5.13708Z" fill="#272727"/>
<path d="M84.9752 22.2356C83.9218 22.4956 82.8934 22.491 82.0316 22.0327C82.2117 21.5357 82.4374 21.0386 82.6176 20.5438L84.6947 15.5777C85.5065 13.6807 86.4094 11.7859 87.2234 10.1146C89.1045 6.22926 90.1716 4.70387 90.6071 4.49638C90.5979 4.50094 90.5911 4.50322 90.582 4.50778C90.582 4.50778 92.4996 1.93125 93.3272 4.16576C93.35 3.91495 93.3637 3.6687 93.3637 3.43156C93.3637 1.94265 92.6409 0.813995 91.1976 0.813995C85.7345 0.813995 80.4081 17.021 79.3684 19.3239C78.8257 20.6327 77.8795 21.0842 76.7052 21.3555C76.2082 21.4467 76.5707 22.8444 77.1111 23.0702C77.3368 23.1614 77.7427 23.1614 77.9684 23.1614C77.7609 23.7451 77.542 24.3721 77.3231 25.0288C77.3323 25.0174 77.3368 25.0128 77.3368 25.0128L76.6209 27.2086C76.1329 28.7955 75.6792 30.4509 75.3486 32.0105C75.0316 33.4561 74.8971 34.7193 74.8971 35.7567C74.8971 38.7368 76.0714 40 77.4257 40C79.2179 40 80.4036 38.5909 81.1651 36.5662C79.1791 40.2736 78.47 37.0678 78.47 37.0678C78.4723 37.0678 78.4769 37.0632 78.4791 37.0632C78.2033 37.1202 78.1873 35.8844 78.8713 32.5965C79.1427 31.1965 79.5941 29.5708 80.3169 27.3135C80.1892 29.1923 79.9065 32.0219 79.6215 33.8551C81.0602 31.5225 81.6599 34.4365 81.7146 34.7284C82.1296 32.6945 82.3941 29.8877 82.3941 27.8561C82.3941 26.4105 82.3029 25.1017 82.214 24.1099C82.9026 24.3334 83.7508 24.3265 84.6491 24.1487C86.4595 23.1614 84.8361 22.3428 84.9752 22.2356ZM78.3515 21.7089C77.6537 21.319 76.5479 21.7089 76.5479 21.7089L77.1042 21.3806C78.4541 21.0591 78.771 20.5917 78.771 20.5917L78.3515 21.7089Z" fill="#272727"/>
<path d="M96.6106 27.4868C96.866 27.2314 97.1168 26.9692 97.363 26.7024C97.0438 27.0398 96.622 27.4731 96.622 27.4731C96.6197 27.4776 96.6152 27.4822 96.6106 27.4868Z" fill="#272727"/>
<path d="M95.6347 26.805C94.5608 27.5825 93.3432 28.1731 92.2328 28.1731C91.3755 28.1731 91.0129 27.7216 91.0129 26.9532C91.0129 25.9591 91.5989 24.5158 92.4585 22.9812C93.4527 21.2666 94.8504 19.4607 95.1673 18.6011C95.5732 17.4725 92.5041 17.0666 91.2843 18.1497C91.1497 18.2842 90.9673 18.4666 90.8328 18.6467C89.8364 19.7366 87.3579 21.6428 84.9957 22.2311C86.7811 22.5594 89.4169 20.48 90.7142 19.3559C91.5693 18.6148 88.9358 22.1695 88.9358 22.1695C88.0328 24.2011 87.6726 25.7356 87.6726 26.9099C87.6726 29.4841 89.8843 30.2046 91.1931 30.2046C92.9488 30.2046 94.3647 29.4522 95.6256 28.3919C95.4728 28.5173 95.3657 28.604 95.3657 28.604C96.6106 26.9258 95.0237 27.3431 95.6347 26.805Z" fill="#272727"/>
<path d="M89.768 8.20839C89.2664 9.13867 87.7296 11.7608 87.0889 12.6797C87.3898 12.4973 89.7292 11.2888 89.0703 13.8585C89.0703 13.8585 89.0703 13.8585 88.3087 14.8412C90.0028 12.6911 91.6696 9.57417 92.5292 7.52435C92.3628 7.77061 89.9436 11.4028 89.768 8.20839Z" fill="#272727"/>
<path d="M97.794 24.9057C97.6595 25.7151 97.696 26.3399 97.696 26.3399C97.696 26.3421 97.6937 26.3421 97.6914 26.3444C97.696 26.3399 97.6982 26.3353 97.7028 26.3307C97.7005 26.2669 97.6937 26.2053 97.6937 26.1392C97.696 25.7311 97.7324 25.3184 97.794 24.9057Z" fill="#272727"/>
<path d="M84.6948 15.5755C84.6948 15.5755 84.7609 15.5048 84.8726 15.3794C84.8133 15.4455 84.754 15.5139 84.6948 15.5755Z" fill="#272727"/>
<path d="M90.7644 4.49637C90.7758 4.50549 90.7849 4.51917 90.794 4.53513C90.7849 4.51917 90.7758 4.50549 90.7644 4.49637Z" fill="#272727"/>
<path d="M90.4543 6.47779C90.6071 6.03773 90.794 5.4221 90.8282 4.95696C90.8282 4.95696 90.8647 4.69246 90.8031 4.55338C90.8237 4.60354 90.8351 4.67878 90.8351 4.78595C90.8328 5.1348 90.696 5.74587 90.4543 6.47779Z" fill="#272727"/>
<path d="M90.7006 4.47128C90.7188 4.47128 90.7325 4.47812 90.7462 4.48496C90.7325 4.47584 90.7165 4.47128 90.7006 4.47128Z" fill="#272727"/>
<path d="M109.885 24.7415L109.614 25.0128C107.448 27.2701 104.965 28.49 103.248 28.49C101.894 28.49 100.991 27.7216 100.991 26.0982C100.991 25.4871 101.123 24.8099 101.349 24.119C101.34 24.1487 101.536 23.606 101.536 23.606L101.182 22.8171C101.392 22.2471 101.536 21.5676 101.536 21.5676C102.466 20.1038 104.5 18.8702 104.5 18.8702C106.021 18.0904 106.308 19.0982 106.308 19.0982C106.303 19.0891 106.296 19.0845 106.29 19.0777C106.54 19.4448 106.002 20.3705 106.002 20.7285C106.002 20.9542 106.363 21.0888 106.86 21.0888C108.485 21.0888 109.388 19.78 109.388 18.1999C109.388 16.8455 108.485 15.7624 106.725 15.7624C102.783 15.7624 98.5418 20.3204 97.8076 24.8145C97.8076 24.8167 97.8076 24.819 97.8076 24.8213L97.8099 24.819C97.8054 24.8509 97.7985 24.8806 97.794 24.9102C97.7301 25.3252 97.6959 25.7379 97.6959 26.146C97.6959 26.2122 97.7028 26.2737 97.705 26.3376C97.7894 28.9757 99.6089 30.5717 102.122 30.5717C104.513 30.5717 107.585 29.1262 110.294 25.6969L110.654 25.2454C111.06 24.7415 110.066 24.5591 109.885 24.7415Z" fill="#272727"/>
<path d="M105.745 18.9272C105.79 18.9227 105.836 18.9204 105.879 18.9181C105.834 18.9204 105.79 18.9227 105.745 18.9272Z" fill="#272727"/>
<path d="M103.15 20.7855C102.614 21.3988 102.188 22.165 101.882 22.8148C102.594 21.3578 103.636 20.0148 104.664 19.3536C104.386 19.5291 104.222 19.6774 104.222 19.6774C103.718 20.0673 103.15 20.7855 103.15 20.7855Z" fill="#272727"/>
<path d="M105.665 18.9386C105.66 18.9386 105.656 18.9409 105.649 18.9409C105.656 18.9409 105.66 18.9386 105.665 18.9386Z" fill="#272727"/>
<path d="M104.801 19.2692C104.792 19.2738 104.785 19.2783 104.776 19.2829C104.785 19.2783 104.792 19.2738 104.801 19.2692Z" fill="#272727"/>
<path d="M105.175 19.08C105.204 19.0686 105.234 19.0549 105.266 19.0435C105.225 19.0572 105.2 19.0686 105.2 19.0686C105.191 19.0731 105.184 19.0777 105.175 19.08Z" fill="#272727"/>
<path d="M105.984 18.9249C105.968 18.9227 105.954 18.9204 105.939 18.9204C105.954 18.9204 105.968 18.9227 105.984 18.9249Z" fill="#272727"/>
<path d="M21.5721 4.61266C22.0601 5.74588 20.6305 8.56182 18.6445 10.655C19.5018 12.1895 20.4047 12.8211 21.262 12.8211C26.048 12.9123 30.1112 0.134524 21.3533 -2.57621e-06C20.2542 -0.0159634 19.1165 0.177846 17.9673 0.542664C20.7285 1.3179 21.4171 3.35404 21.5721 4.61266Z" fill="#272727"/>
<path d="M19.9327 27.6555C16.5901 29.1786 12.3035 30.6561 9.79536 30.6561C6.40939 30.6561 4.73807 29.1216 4.73807 25.0584C4.73807 18.136 11.6263 9.88428 16.5696 6.04685C14.7022 7.35336 12.4448 7.28951 12.4448 7.28951C12.4448 7.28951 11.7996 6.71721 11.9683 3.88303C5.51103 8.94943 0 18.022 0 25.1473C0 30.0678 2.39184 34.2222 8.30645 34.2222C14.4582 34.2222 22.5594 29.7418 26.1483 26.5793C25.6193 27.0421 24.6092 28.0089 22.9949 28.8685C22.2402 29.2698 19.9327 27.6555 19.9327 27.6555Z" fill="#272727"/>
<path d="M26.2464 26.4926C26.2327 26.5063 26.219 26.5177 26.2031 26.5314C26.2167 26.5177 26.2304 26.5063 26.2464 26.4926Z" fill="#272727"/>
<path d="M28.6359 24.0073C28.5903 23.7816 27.8196 22.9105 27.5027 22.8216C27.2838 22.906 27.0353 22.8695 26.716 23.061L26.5792 23.818C26.5792 23.818 26.2965 26.4926 26.39 27.0535C26.39 27.0535 26.3672 26.3832 26.3672 26.3809C27.4616 25.3799 28.7225 24.518 28.6359 24.0073Z" fill="#272727"/>
<path d="M17.965 0.542664C17.965 0.542664 15.6689 1.09901 12.3628 3.55013C12.2237 3.65274 12.096 3.76446 11.9706 3.87847C13.9246 2.34395 15.9653 1.17881 17.9673 0.542664C17.9673 0.542664 17.965 0.542664 17.965 0.542664Z" fill="url(#paint0_linear)"/>
<path d="M21.6132 5.16672C21.6178 5.26248 21.6178 5.36509 21.6086 5.47681C21.6132 5.39701 21.6155 5.29212 21.6132 5.16672Z" fill="url(#paint1_linear)"/>
<path d="M21.6109 5.47684C21.6063 5.53612 21.6064 5.59312 21.5972 5.65925C21.5972 5.65925 21.6041 5.59312 21.6109 5.47684Z" fill="url(#paint2_linear)"/>
<path d="M10.1967 11.9296C10.1967 11.9296 14.0728 7.82535 15.9403 6.51885C17.8966 5.00029 19.6477 4.09737 20.7239 4.10877C21.1686 4.11789 21.4422 4.30258 21.5744 4.61267C21.4194 3.35405 20.7308 1.31791 17.9696 0.544952C15.9676 1.1811 13.9269 2.34852 11.9729 3.88076C9.15237 6.49148 10.1967 11.9296 10.1967 11.9296Z" fill="#272727"/>
<path d="M10.1967 11.9296C10.1967 11.9296 14.0728 7.82535 15.9403 6.51885C17.8966 5.00029 19.6477 4.09737 20.7239 4.10877C21.1686 4.11789 21.4422 4.30258 21.5744 4.61267C21.4194 3.35405 20.7308 1.31791 17.9696 0.544952C15.9676 1.1811 13.9269 2.34852 11.9729 3.88076C9.15237 6.49148 10.1967 11.9296 10.1967 11.9296Z" fill="url(#paint3_linear)"/>
<path d="M26.203 26.5314C26.1848 26.5473 26.1688 26.5633 26.1506 26.577C26.1665 26.561 26.1871 26.5451 26.203 26.5314Z" fill="url(#paint4_linear)"/>
<path d="M26.3649 26.3854C26.3649 26.3854 26.3649 26.3832 26.3649 26.3854C26.3261 26.4219 26.2851 26.4561 26.2463 26.4926C26.3216 26.4265 26.3649 26.3854 26.3649 26.3854Z" fill="url(#paint5_linear)"/>
<path d="M26.5793 23.8181C26.0435 24.1396 25.405 24.5705 24.7848 24.965C23.0884 26.0503 21.1207 27.1219 19.1074 28.0385C19.1074 28.0385 21.8093 29.5092 22.564 29.1056C24.1783 28.246 25.6194 27.0399 26.1483 26.577C26.1666 26.561 26.1848 26.5451 26.2008 26.5314C26.2167 26.5177 26.2304 26.504 26.2441 26.4926C26.2852 26.4561 26.3239 26.4197 26.3627 26.3832C26.2715 25.8223 26.5793 23.8181 26.5793 23.8181Z" fill="#272727"/>
<path d="M26.5793 23.8181C26.0435 24.1396 25.405 24.5705 24.7848 24.965C23.0884 26.0503 21.1207 27.1219 19.1074 28.0385C19.1074 28.0385 21.8093 29.5092 22.564 29.1056C24.1783 28.246 25.6194 27.0399 26.1483 26.577C26.1666 26.561 26.1848 26.5451 26.2008 26.5314C26.2167 26.5177 26.2304 26.504 26.2441 26.4926C26.2852 26.4561 26.3239 26.4197 26.3627 26.3832C26.2715 25.8223 26.5793 23.8181 26.5793 23.8181Z" fill="url(#paint6_linear)"/>
<path d="M34.6668 17.395C34.6463 17.4178 34.6235 17.4428 34.603 17.4656C34.644 17.42 34.6668 17.395 34.6668 17.395Z" fill="url(#paint7_linear)"/>
<path d="M32.7903 17.8031C32.2636 18.4005 31.8577 18.7699 31.8577 18.7699C32.1063 18.5829 32.4255 18.2477 32.7903 17.8031Z" fill="url(#paint8_linear)"/>
<path d="M31.201 20.9679C31.4906 20.7445 31.9558 20.293 32.4483 19.7868C32.0014 20.2337 31.5818 20.6327 31.201 20.9679Z" fill="url(#paint9_linear)"/>
<path d="M34.2587 15.8331C34.245 15.8513 34.2313 15.8719 34.2153 15.8947C34.229 15.8741 34.2427 15.8536 34.2587 15.8331Z" fill="url(#paint10_linear)"/>
<path d="M34.2587 15.8331C34.245 15.8536 34.229 15.8742 34.2153 15.8947C34.2131 15.897 34.2108 15.8992 34.2108 15.9038C33.7616 16.6425 33.2349 17.3038 32.7925 17.8031C32.4277 18.2455 32.1085 18.5829 31.86 18.7699L31.2033 20.9656C31.5841 20.6305 32.0036 20.2337 32.4505 19.7845C33.3466 18.8634 34.3476 17.753 34.6052 17.4657C34.6258 17.4406 34.6463 17.4178 34.6691 17.3927C34.6668 17.3722 34.6577 15.3315 34.2587 15.8331Z" fill="#272727"/>
<path d="M34.2587 15.8331C34.245 15.8536 34.229 15.8742 34.2153 15.8947C34.2131 15.897 34.2108 15.8992 34.2108 15.9038C33.7616 16.6425 33.2349 17.3038 32.7925 17.8031C32.4277 18.2455 32.1085 18.5829 31.86 18.7699L31.2033 20.9656C31.5841 20.6305 32.0036 20.2337 32.4505 19.7845C33.3466 18.8634 34.3476 17.753 34.6052 17.4657C34.6258 17.4406 34.6463 17.4178 34.6691 17.3927C34.6668 17.3722 34.6577 15.3315 34.2587 15.8331Z" fill="url(#paint11_linear)"/>
<path d="M41.1172 4.19312C41.1127 4.20452 41.1081 4.21592 41.1058 4.22732C41.1104 4.21592 41.115 4.20452 41.1172 4.19312Z" fill="url(#paint12_linear)"/>
<path d="M41.1743 3.38596C41.172 3.38596 41.1697 3.38824 41.1674 3.38824C41.1743 3.38824 41.1788 3.39052 41.1857 3.39052C41.1788 3.39052 41.1765 3.38596 41.1743 3.38596Z" fill="url(#paint13_linear)"/>
<path d="M41.1446 4.10875C41.1651 4.04947 41.1834 3.99019 41.197 3.93774C41.1856 3.97651 41.1765 4.00159 41.1765 4.00159C41.1674 4.03351 41.156 4.06999 41.1446 4.10875Z" fill="url(#paint14_linear)"/>
<path d="M41.2381 3.42243C41.2336 3.41559 41.2267 3.41331 41.2222 3.40875C41.229 3.41103 41.2336 3.41559 41.2381 3.42243Z" fill="url(#paint15_linear)"/>
<path d="M42.5629 6.02176C42.5583 6.0286 42.556 6.03772 42.5515 6.04684C42.556 6.03772 42.5583 6.0286 42.5629 6.02176Z" fill="url(#paint16_linear)"/>
<path d="M40.2029 6.22241C40.4879 5.66834 40.7251 5.169 40.9006 4.75174C40.6019 5.45401 40.2006 6.22241 40.2006 6.22241H40.2029Z" fill="url(#paint17_linear)"/>
<path d="M43.215 4.2661C43.2173 4.25242 43.2173 4.24329 43.2195 4.22961C43.2127 4.2547 43.2081 4.2775 43.2013 4.30258C43.215 4.2661 43.215 4.2661 43.215 4.2661Z" fill="url(#paint18_linear)"/>
<path d="M41.1059 3.39737C41.1287 3.39053 41.1492 3.38825 41.1651 3.38825C41.1674 3.38825 41.1697 3.38597 41.172 3.38597C41.1765 3.38597 41.1788 3.39053 41.1811 3.39053C41.1971 3.39281 41.2085 3.39737 41.2199 3.40649C41.2244 3.41105 41.2313 3.41561 41.2358 3.42017C41.3156 3.51821 41.2381 3.80551 41.1971 3.93547C41.1811 3.98792 41.1629 4.0472 41.1446 4.10648C41.1355 4.13384 41.1264 4.1612 41.1173 4.19085C41.1127 4.20225 41.1104 4.21365 41.1059 4.22505C41.0511 4.38466 40.9805 4.56478 40.9007 4.74947C40.7251 5.16901 40.488 5.66608 40.2029 6.22015L41.8902 6.68301C41.8902 6.68301 42.1456 6.92242 42.5514 6.0423C42.556 6.03546 42.5583 6.02634 42.5628 6.01722C42.6199 5.88953 42.6814 5.74132 42.7453 5.56575C43.0736 4.65371 43.1716 4.38238 43.2013 4.29801C43.2081 4.27293 43.2127 4.25013 43.2195 4.22505C43.6961 1.04429 41.1059 3.39737 41.1059 3.39737Z" fill="#272727"/>
<path d="M41.1059 3.39737C41.1287 3.39053 41.1492 3.38825 41.1651 3.38825C41.1674 3.38825 41.1697 3.38597 41.172 3.38597C41.1765 3.38597 41.1788 3.39053 41.1811 3.39053C41.1971 3.39281 41.2085 3.39737 41.2199 3.40649C41.2244 3.41105 41.2313 3.41561 41.2358 3.42017C41.3156 3.51821 41.2381 3.80551 41.1971 3.93547C41.1811 3.98792 41.1629 4.0472 41.1446 4.10648C41.1355 4.13384 41.1264 4.1612 41.1173 4.19085C41.1127 4.20225 41.1104 4.21365 41.1059 4.22505C41.0511 4.38466 40.9805 4.56478 40.9007 4.74947C40.7251 5.16901 40.488 5.66608 40.2029 6.22015L41.8902 6.68301C41.8902 6.68301 42.1456 6.92242 42.5514 6.0423C42.556 6.03546 42.5583 6.02634 42.5628 6.01722C42.6199 5.88953 42.6814 5.74132 42.7453 5.56575C43.0736 4.65371 43.1716 4.38238 43.2013 4.29801C43.2081 4.27293 43.2127 4.25013 43.2195 4.22505C43.6961 1.04429 41.1059 3.39737 41.1059 3.39737Z" fill="url(#paint19_linear)"/>
<path d="M34.8857 27.0535C35.2574 26.7457 35.6222 26.4242 35.9642 26.1118C35.4398 26.5861 34.9564 26.9965 34.8857 27.0535Z" fill="url(#paint20_linear)"/>
<path d="M36.4772 27.2314C36.475 27.2337 36.4727 27.2359 36.4704 27.2405L36.4772 27.2314Z" fill="url(#paint21_linear)"/>
<path d="M36.7623 25.6969C36.8352 25.421 36.8922 25.2317 36.8922 25.2317C36.6277 25.5031 36.288 25.82 35.9642 26.1118C35.6222 26.4265 35.2597 26.7457 34.8857 27.0535C34.8812 27.0581 34.8743 27.0626 34.8743 27.0626L35.5994 28.1548L36.4681 27.2382C36.4704 27.2359 36.4727 27.2314 36.475 27.2291C36.4887 26.96 36.5434 26.6385 36.6095 26.333C36.6597 26.1027 36.7144 25.8793 36.7623 25.6969Z" fill="#272727"/>
<path d="M36.7623 25.6969C36.8352 25.421 36.8922 25.2317 36.8922 25.2317C36.6277 25.5031 36.288 25.82 35.9642 26.1118C35.6222 26.4265 35.2597 26.7457 34.8857 27.0535C34.8812 27.0581 34.8743 27.0626 34.8743 27.0626L35.5994 28.1548L36.4681 27.2382C36.4704 27.2359 36.4727 27.2314 36.475 27.2291C36.4887 26.96 36.5434 26.6385 36.6095 26.333C36.6597 26.1027 36.7144 25.8793 36.7623 25.6969Z" fill="url(#paint22_linear)"/>
<path d="M48.8058 18.1725C48.7921 18.177 48.7785 18.1816 48.7648 18.1862C48.7807 18.1839 48.7921 18.1793 48.8058 18.1725Z" fill="url(#paint23_linear)"/>
<path d="M43.9925 20.9291C43.753 21.1298 43.5182 21.3373 43.2879 21.5493C43.354 21.506 43.5912 21.2689 43.9925 20.9291Z" fill="url(#paint24_linear)"/>
<path d="M48.2403 18.3868C48.213 18.3982 48.1856 18.4073 48.1605 18.4187C48.1879 18.4073 48.2152 18.3982 48.2403 18.3868Z" fill="url(#paint25_linear)"/>
<path d="M49.467 17.9582C49.4306 17.9696 49.3941 17.981 49.3576 17.9924C49.3964 17.981 49.4306 17.9696 49.467 17.9582Z" fill="url(#paint26_linear)"/>
<path d="M47.0182 18.9341C47.0159 18.9341 47.0159 18.9363 47.0136 18.9363C47.0159 18.9363 47.0182 18.9363 47.0182 18.9341Z" fill="url(#paint27_linear)"/>
<path d="M47.6315 18.6445C47.611 18.6536 47.5882 18.6627 47.5677 18.6741C47.5882 18.665 47.6087 18.6536 47.6315 18.6445Z" fill="url(#paint28_linear)"/>
<path d="M48.7306 17.6298C47.8185 18.0585 45.9671 18.7425 44.6264 19.9099C44.6264 19.9099 42.9208 21.7454 43.2788 21.5562C43.2811 21.5539 43.2857 21.5516 43.2879 21.5493C43.516 21.3373 43.7508 21.1298 43.9925 20.9291C44.6127 20.4047 45.6251 19.634 47.0159 18.9363C47.0182 18.9363 47.0182 18.9341 47.0205 18.9341C47.196 18.8451 47.3785 18.7585 47.5677 18.6718C47.5882 18.6627 47.611 18.6513 47.6315 18.6422C47.8026 18.5647 47.9804 18.4894 48.1605 18.4165C48.1879 18.4051 48.2153 18.3959 48.2403 18.3845C48.4113 18.3161 48.5869 18.25 48.7648 18.1862C48.7784 18.1816 48.7921 18.1771 48.8058 18.1725C48.9859 18.1087 49.1706 18.0494 49.3599 17.9901C49.3964 17.9787 49.4328 17.9673 49.4693 17.9559C49.6266 17.908 49.784 17.8624 49.9481 17.8191C49.9459 17.8214 49.6426 17.3083 48.7306 17.6298Z" fill="#272727"/>
<path d="M48.7306 17.6298C47.8185 18.0585 45.9671 18.7425 44.6264 19.9099C44.6264 19.9099 42.9208 21.7454 43.2788 21.5562C43.2811 21.5539 43.2857 21.5516 43.2879 21.5493C43.516 21.3373 43.7508 21.1298 43.9925 20.9291C44.6127 20.4047 45.6251 19.634 47.0159 18.9363C47.0182 18.9363 47.0182 18.9341 47.0205 18.9341C47.196 18.8451 47.3785 18.7585 47.5677 18.6718C47.5882 18.6627 47.611 18.6513 47.6315 18.6422C47.8026 18.5647 47.9804 18.4894 48.1605 18.4165C48.1879 18.4051 48.2153 18.3959 48.2403 18.3845C48.4113 18.3161 48.5869 18.25 48.7648 18.1862C48.7784 18.1816 48.7921 18.1771 48.8058 18.1725C48.9859 18.1087 49.1706 18.0494 49.3599 17.9901C49.3964 17.9787 49.4328 17.9673 49.4693 17.9559C49.6266 17.908 49.784 17.8624 49.9481 17.8191C49.9459 17.8214 49.6426 17.3083 48.7306 17.6298Z" fill="url(#paint29_linear)"/>
<path d="M48.1468 20.5666C47.8755 21.18 46.0446 23.6128 45.6683 24.0917C44.5671 25.4985 46.7263 25.0128 46.7263 25.0128C46.7263 25.0128 47.7182 22.2334 47.9051 21.864C48.0898 21.4923 48.4159 19.9533 48.1468 20.5666Z" fill="#272727"/>
<path d="M48.1468 20.5666C47.8755 21.18 46.0446 23.6128 45.6683 24.0917C44.5671 25.4985 46.7263 25.0128 46.7263 25.0128C46.7263 25.0128 47.7182 22.2334 47.9051 21.864C48.0898 21.4923 48.4159 19.9533 48.1468 20.5666Z" fill="url(#paint30_linear)"/>
<path d="M57.1533 19.3536C57.5592 18.4484 57.9445 17.509 58.3253 16.5445C57.9035 17.5774 57.1533 19.3536 57.1533 19.3536Z" fill="url(#paint31_linear)"/>
<path d="M58.3253 16.5468C57.9445 17.5113 57.5592 18.4507 57.1533 19.3559L58.9044 18.3298L59.682 16.7064L58.5989 15.8468C58.5807 15.9175 58.4735 16.1865 58.3253 16.5468Z" fill="#272727"/>
<path d="M58.3253 16.5468C57.9445 17.5113 57.5592 18.4507 57.1533 19.3559L58.9044 18.3298L59.682 16.7064L58.5989 15.8468C58.5807 15.9175 58.4735 16.1865 58.3253 16.5468Z" fill="url(#paint32_linear)"/>
<path d="M61.1435 13.2155C61.1389 13.2224 61.1344 13.2269 61.1298 13.2338C61.1344 13.2269 61.1389 13.2201 61.1435 13.2155Z" fill="url(#paint33_linear)"/>
<path d="M60.6624 13.9725C60.6418 14.0295 60.6304 14.0843 60.6304 14.1299C60.6373 14.0729 60.6487 14.0227 60.6624 13.9725Z" fill="url(#paint34_linear)"/>
<path d="M60.9406 13.4868C60.9542 13.4686 60.9679 13.4458 60.9862 13.423C60.9064 13.5302 60.8402 13.6305 60.7855 13.7263C60.8288 13.6533 60.879 13.5781 60.9406 13.4868Z" fill="url(#paint35_linear)"/>
<path d="M61.5699 12.7025C61.5699 12.7025 60.936 12.5383 60.9406 12.3924L60.6327 12.8598C60.2406 13.5256 60.6327 14.1298 60.6327 14.1298C60.6327 14.082 60.6441 14.0295 60.6647 13.9725C60.692 13.8859 60.7331 13.8061 60.7855 13.7263C60.8425 13.6305 60.9086 13.5302 60.9862 13.423C61.0249 13.3683 61.0751 13.3022 61.1321 13.2338C61.1366 13.2269 61.1412 13.2224 61.1458 13.2155C61.2894 13.0308 61.465 12.8256 61.5699 12.7025Z" fill="#272727"/>
<path d="M61.5699 12.7025C61.5699 12.7025 60.936 12.5383 60.9406 12.3924L60.6327 12.8598C60.2406 13.5256 60.6327 14.1298 60.6327 14.1298C60.6327 14.082 60.6441 14.0295 60.6647 13.9725C60.692 13.8859 60.7331 13.8061 60.7855 13.7263C60.8425 13.6305 60.9086 13.5302 60.9862 13.423C61.0249 13.3683 61.0751 13.3022 61.1321 13.2338C61.1366 13.2269 61.1412 13.2224 61.1458 13.2155C61.2894 13.0308 61.465 12.8256 61.5699 12.7025Z" fill="url(#paint36_linear)"/>
<path d="M61.6633 12.5953L61.6132 12.6546C61.6428 12.6181 61.6633 12.5953 61.6633 12.5953Z" fill="#272727"/>
<path d="M61.6633 12.5953L61.6132 12.6546C61.6428 12.6181 61.6633 12.5953 61.6633 12.5953Z" fill="url(#paint37_linear)"/>
<path d="M61.1435 12.0869L61.1367 12.096C61.1389 12.0937 61.1412 12.0914 61.1435 12.0869Z" fill="#272727"/>
<path d="M61.1435 12.0869L61.1367 12.096C61.1389 12.0937 61.1412 12.0914 61.1435 12.0869Z" fill="url(#paint38_linear)"/>
<path d="M62.5982 11.4644C62.5025 11.6058 62.3748 11.7677 62.2334 11.9364C62.352 11.7996 62.5047 11.6103 62.5982 11.4644Z" fill="url(#paint39_linear)"/>
<path d="M62.6324 11.4097C62.6233 11.4233 62.6164 11.437 62.605 11.453C62.6142 11.4393 62.6256 11.4233 62.6324 11.4097Z" fill="url(#paint40_linear)"/>
<path d="M62.1285 11.1361C61.7272 11.4826 61.5835 11.624 61.3692 11.8315C61.2985 11.8999 61.2233 11.9843 61.1412 12.0869L61.661 12.5953L62.0783 12.112C62.0783 12.112 62.1444 12.039 62.2311 11.9364C62.3724 11.7677 62.4978 11.6058 62.5959 11.4644C62.5982 11.4598 62.6004 11.4553 62.6027 11.453C62.6118 11.437 62.6187 11.4256 62.6301 11.4097C62.6324 11.4028 62.7304 10.6162 62.1285 11.1361Z" fill="#272727"/>
<path d="M62.1285 11.1361C61.7272 11.4826 61.5835 11.624 61.3692 11.8315C61.2985 11.8999 61.2233 11.9843 61.1412 12.0869L61.661 12.5953L62.0783 12.112C62.0783 12.112 62.1444 12.039 62.2311 11.9364C62.3724 11.7677 62.4978 11.6058 62.5959 11.4644C62.5982 11.4598 62.6004 11.4553 62.6027 11.453C62.6118 11.437 62.6187 11.4256 62.6301 11.4097C62.6324 11.4028 62.7304 10.6162 62.1285 11.1361Z" fill="url(#paint41_linear)"/>
<path d="M60.9474 12.3673C60.9428 12.3764 60.9406 12.3856 60.9406 12.3947L61.1366 12.0983C61.0751 12.1735 61.0135 12.2624 60.9474 12.3673Z" fill="#272727"/>
<path d="M60.9474 12.3673C60.9428 12.3764 60.9406 12.3856 60.9406 12.3947L61.1366 12.0983C61.0751 12.1735 61.0135 12.2624 60.9474 12.3673Z" fill="url(#paint42_linear)"/>
<path d="M61.6109 12.6546C61.5995 12.6683 61.5858 12.6843 61.5699 12.7025L61.6109 12.6546Z" fill="#272727"/>
<path d="M61.6109 12.6546C61.5995 12.6683 61.5858 12.6843 61.5699 12.7025L61.6109 12.6546Z" fill="url(#paint43_linear)"/>
<path d="M61.5698 12.7025C61.5858 12.6843 61.5995 12.6683 61.6109 12.6546L61.661 12.5953L61.1412 12.0869C61.1389 12.0892 61.1366 12.0937 61.1343 12.096L60.9382 12.3924C60.936 12.5383 61.5698 12.7025 61.5698 12.7025Z" fill="#272727"/>
<path d="M61.5698 12.7025C61.5858 12.6843 61.5995 12.6683 61.6109 12.6546L61.661 12.5953L61.1412 12.0869C61.1389 12.0892 61.1366 12.0937 61.1343 12.096L60.9382 12.3924C60.936 12.5383 61.5698 12.7025 61.5698 12.7025Z" fill="url(#paint44_linear)"/>
<path d="M61.5698 12.7025C61.5858 12.6843 61.5995 12.6683 61.6109 12.6546L61.661 12.5953L61.1412 12.0869C61.1389 12.0892 61.1366 12.0937 61.1343 12.096L60.9382 12.3924C60.936 12.5383 61.5698 12.7025 61.5698 12.7025Z" fill="url(#paint45_linear)"/>
<path d="M67.7193 24.7415C67.7193 24.7415 67.2314 25.2271 66.8734 25.5692C67.0627 25.3913 67.2542 25.2066 67.4503 25.0128L67.7193 24.7415Z" fill="url(#paint46_linear)"/>
<path d="M66.9441 26.9943C66.9418 26.9965 66.9395 26.9988 66.9373 27.0011C66.9395 26.9988 66.9418 26.9965 66.9441 26.9943Z" fill="url(#paint47_linear)"/>
<path d="M67.4024 26.5245C67.3978 26.5291 67.3933 26.5337 67.391 26.5382C67.3956 26.5337 67.3978 26.5291 67.4024 26.5245Z" fill="url(#paint48_linear)"/>
<path d="M67.375 26.5542C67.2815 26.6545 67.1812 26.7571 67.0809 26.8574C67.1789 26.7594 67.2838 26.6545 67.375 26.5542Z" fill="url(#paint49_linear)"/>
<path d="M66.6978 27.2314C66.6978 27.2314 66.7457 27.1858 66.8187 27.1151C66.7776 27.1538 66.7366 27.1926 66.6978 27.2314Z" fill="url(#paint50_linear)"/>
<path d="M67.6532 25.0333C67.6782 24.9079 67.701 24.8053 67.7193 24.7392L67.448 25.0105C67.2541 25.2043 67.0626 25.389 66.8711 25.5669C66.716 25.7128 66.5861 25.8359 66.5291 25.8793C66.3376 26.0275 66.6933 27.2177 66.6955 27.2291C66.7366 27.1903 66.7776 27.1516 66.8164 27.1151C66.8506 27.0809 66.8916 27.0444 66.9349 26.9988C66.9372 26.9965 66.9395 26.9942 66.9418 26.9919C66.9851 26.9509 67.0307 26.903 67.0786 26.8574C67.1812 26.7548 67.2792 26.6545 67.3727 26.5542C67.3773 26.5496 67.3818 26.5428 67.3864 26.5382C67.391 26.5336 67.3955 26.5291 67.3978 26.5245C67.3978 26.5245 67.4069 26.4607 67.4229 26.3626C67.473 26.0708 67.5734 25.4392 67.6532 25.0333Z" fill="#272727"/>
<path d="M67.6532 25.0333C67.6782 24.9079 67.701 24.8053 67.7193 24.7392L67.448 25.0105C67.2541 25.2043 67.0626 25.389 66.8711 25.5669C66.716 25.7128 66.5861 25.8359 66.5291 25.8793C66.3376 26.0275 66.6933 27.2177 66.6955 27.2291C66.7366 27.1903 66.7776 27.1516 66.8164 27.1151C66.8506 27.0809 66.8916 27.0444 66.9349 26.9988C66.9372 26.9965 66.9395 26.9942 66.9418 26.9919C66.9851 26.9509 67.0307 26.903 67.0786 26.8574C67.1812 26.7548 67.2792 26.6545 67.3727 26.5542C67.3773 26.5496 67.3818 26.5428 67.3864 26.5382C67.391 26.5336 67.3955 26.5291 67.3978 26.5245C67.3978 26.5245 67.4069 26.4607 67.4229 26.3626C67.473 26.0708 67.5734 25.4392 67.6532 25.0333Z" fill="url(#paint51_linear)"/>
<path d="M74.603 19.1963C74.3499 19.6386 73.9851 20.1881 73.5861 20.7855C73.903 20.334 74.432 19.5611 74.603 19.1963Z" fill="url(#paint52_linear)"/>
<path d="M73.9258 19.1689C73.3671 19.78 71.3036 23.5399 71.3036 23.5399L73.3375 21.1366C73.3375 21.1366 73.4401 20.9953 73.586 20.7878C73.9851 20.1904 74.3499 19.6409 74.603 19.1985C74.6098 19.1826 74.6189 19.1666 74.6235 19.1529C74.6235 19.1507 74.7078 18.3139 73.9258 19.1689Z" fill="#272727"/>
<path d="M73.9258 19.1689C73.3671 19.78 71.3036 23.5399 71.3036 23.5399L73.3375 21.1366C73.3375 21.1366 73.4401 20.9953 73.586 20.7878C73.9851 20.1904 74.3499 19.6409 74.603 19.1985C74.6098 19.1826 74.6189 19.1666 74.6235 19.1529C74.6235 19.1507 74.7078 18.3139 73.9258 19.1689Z" fill="url(#paint53_linear)"/>
<path d="M75.8936 26.3969C75.9186 26.3763 75.9437 26.3558 75.9665 26.3353C75.9437 26.3558 75.9186 26.3763 75.8936 26.3969Z" fill="url(#paint54_linear)"/>
<path d="M75.0658 28.6314C75.0658 28.6314 75.1411 28.5721 75.2688 28.4649C75.2004 28.5219 75.132 28.5766 75.0613 28.6314C75.0636 28.6314 75.0636 28.6314 75.0658 28.6314Z" fill="url(#paint55_linear)"/>
<path d="M75.8434 27.9633C76.0668 27.7604 76.329 27.5141 76.6118 27.2314L76.6186 27.2086C76.6186 27.2063 76.6209 27.2017 76.6209 27.1995C76.3678 27.4617 76.1079 27.7193 75.8434 27.9633Z" fill="url(#paint56_linear)"/>
<path d="M77.2023 25.1588C77.0039 25.3731 76.5958 25.7972 76.0782 26.2418C76.4954 25.8884 76.8762 25.519 77.2023 25.1588Z" fill="url(#paint57_linear)"/>
<path d="M77.3345 25.0128C77.3345 25.0128 77.33 25.0197 77.3208 25.0288C77.3003 25.0516 77.2593 25.0972 77.2023 25.1587C76.8762 25.519 76.4955 25.8884 76.0782 26.2418C76.0417 26.2737 76.0052 26.3034 75.9687 26.3353C75.9437 26.3558 75.9209 26.3763 75.8958 26.3969C75.588 26.6522 75.2505 26.9053 74.8994 27.1265C74.8994 27.1265 73.3877 28.4672 75.0635 28.6314C75.1319 28.5766 75.2026 28.5219 75.271 28.4649C75.4078 28.3509 75.6039 28.1822 75.8456 27.9633C76.1101 27.7193 76.37 27.4617 76.6254 27.1995C76.6254 27.2017 76.6231 27.2063 76.6231 27.2086L77.3345 25.0128Z" fill="#272727"/>
<path d="M77.3346 25.0128C77.3346 25.0128 77.33 25.0197 77.3209 25.0288C77.3004 25.0516 77.2593 25.0972 77.2023 25.1587C76.8763 25.519 76.4955 25.8884 76.0782 26.2418C76.0417 26.2737 76.0053 26.3034 75.9688 26.3353C75.9437 26.3558 75.9209 26.3763 75.8958 26.3968C75.588 26.6522 73.9372 27.5985 73.5861 27.8174C73.5861 27.8174 72.4186 29.133 74.0945 29.2972C74.1629 29.2424 75.2004 28.5196 75.2688 28.4649C75.4056 28.3509 75.6017 28.1822 75.8434 27.9633C76.1079 27.7193 76.3678 27.4617 76.6232 27.1994C76.6232 27.2017 76.6209 27.2063 76.6209 27.2086L77.3346 25.0128Z" fill="url(#paint58_linear)"/>
<path d="M83.8192 19.5451C83.4293 19.8848 83.028 20.2155 82.6176 20.5415C82.8136 20.4207 83.3061 19.9988 83.8192 19.5451Z" fill="url(#paint59_linear)"/>
<path d="M84.6104 18.836C85.0299 18.4552 85.3445 18.1634 85.3445 18.1634C86.4937 17.0803 87.5449 15.824 88.3087 14.8412C87.2279 16.2139 85.9898 17.5614 84.6104 18.836Z" fill="url(#paint60_linear)"/>
<path d="M84.8726 15.3816C85.771 14.4171 86.6488 13.3227 87.4469 12.1781C87.4263 12.1895 87.4172 12.1963 87.4172 12.1963C86.6055 13.4344 85.3355 14.8686 84.8726 15.3816Z" fill="url(#paint61_linear)"/>
<path d="M87.4468 12.1781C86.6488 13.3227 85.7687 14.4172 84.8726 15.3816C84.7609 15.5048 84.6947 15.5777 84.6947 15.5777L82.6176 20.5438C83.028 20.22 83.4293 19.8871 83.8192 19.5474C84.0905 19.3057 84.3687 19.0572 84.6104 18.836C85.9898 17.5637 87.2257 16.2139 88.3087 14.8413C89.0703 13.8585 89.5445 13.1471 89.5445 13.1471C90.2035 10.5775 87.7478 11.9957 87.4468 12.1781Z" fill="#272727"/>
<path d="M87.4468 12.1781C86.6488 13.3227 85.7687 14.4172 84.8726 15.3816C84.7609 15.5048 84.6947 15.5777 84.6947 15.5777L82.6176 20.5438C83.028 20.22 83.4293 19.8871 83.8192 19.5474C84.0905 19.3057 84.3687 19.0572 84.6104 18.836C85.9898 17.5637 87.2257 16.2139 88.3087 14.8413C89.0703 13.8585 89.5445 13.1471 89.5445 13.1471C90.2035 10.5775 87.7478 11.9957 87.4468 12.1781Z" fill="url(#paint62_linear)"/>
<path d="M89.1729 9.36441C89.1729 9.37125 89.1752 9.37581 89.1752 9.38265C89.2299 9.28004 89.2915 9.17744 89.3439 9.07483C89.8113 8.18559 90.1921 7.26442 90.4543 6.47778C90.3426 6.79928 90.2491 7.02729 90.2491 7.02729C89.7156 8.482 89.1729 9.36441 89.1729 9.36441Z" fill="url(#paint63_linear)"/>
<path d="M92.1804 8.425C92.2647 8.27451 92.397 7.91197 92.5292 7.52435C92.4198 7.82533 92.3012 8.12858 92.1735 8.4364C92.1781 8.42956 92.1804 8.425 92.1804 8.425Z" fill="url(#paint64_linear)"/>
<path d="M93.3318 4.18173C93.3295 4.17717 93.3273 4.17261 93.325 4.16577C93.2976 4.48043 93.2543 4.8042 93.1927 5.1371C93.3569 4.33678 93.3318 4.18173 93.3318 4.18173Z" fill="url(#paint65_linear)"/>
<path d="M90.6048 4.49636C90.6116 4.49408 90.6162 4.48952 90.623 4.48724C90.6162 4.48952 90.6116 4.49408 90.6048 4.49636Z" fill="url(#paint66_linear)"/>
<path d="M90.7917 4.53513C90.794 4.54197 90.7986 4.54653 90.8009 4.55337C90.7986 4.54653 90.7963 4.53969 90.7917 4.53513Z" fill="url(#paint67_linear)"/>
<path d="M90.7644 4.49639C90.7598 4.49183 90.753 4.48727 90.7462 4.48499C90.753 4.48727 90.7576 4.49183 90.7644 4.49639Z" fill="url(#paint68_linear)"/>
<path d="M92.9351 6.2589V6.25662C92.9351 6.26118 92.9328 6.26574 92.9305 6.2703C92.9351 6.26574 92.9351 6.2589 92.9351 6.2589Z" fill="url(#paint69_linear)"/>
<path d="M90.5797 4.50779C90.5888 4.50323 90.5957 4.50095 90.6048 4.49639C90.6116 4.49411 90.6162 4.48955 90.623 4.48727C90.6367 4.48043 90.6504 4.47815 90.6618 4.47587H90.6641C90.6755 4.47359 90.6869 4.47131 90.6983 4.47131C90.6983 4.47131 90.6983 4.47131 90.7006 4.47131H90.7028C90.7211 4.47131 90.7348 4.47815 90.7484 4.48499C90.7553 4.48727 90.7598 4.49183 90.7667 4.49639C90.7781 4.50551 90.7872 4.51919 90.7963 4.53515C90.7986 4.54199 90.8032 4.54655 90.8054 4.55339C90.867 4.69248 90.8305 4.95697 90.8305 4.95697C90.7986 5.42211 90.6093 6.04002 90.4566 6.4778C90.1966 7.26216 89.8136 8.18561 89.3462 9.07485C89.2937 9.17746 89.2322 9.28006 89.1774 9.38267C89.353 12.5771 92.0093 8.68267 92.1758 8.43642C92.3058 8.12861 92.4243 7.82535 92.5315 7.52438C92.7276 6.94979 92.9168 6.3296 92.9351 6.26803C92.9373 6.26347 92.9373 6.25891 92.9396 6.25435C93.0559 5.78465 93.138 5.41983 93.195 5.1371C93.2566 4.8042 93.2999 4.47815 93.3272 4.16577C92.4973 1.93126 90.5797 4.50779 90.5797 4.50779Z" fill="#272727"/>
<path d="M90.5797 4.50779C90.5888 4.50323 90.5957 4.50095 90.6048 4.49639C90.6116 4.49411 90.6162 4.48955 90.623 4.48727C90.6367 4.48043 90.6504 4.47815 90.6618 4.47587H90.6641C90.6755 4.47359 90.6869 4.47131 90.6983 4.47131C90.6983 4.47131 90.6983 4.47131 90.7006 4.47131H90.7028C90.7211 4.47131 90.7348 4.47815 90.7484 4.48499C90.7553 4.48727 90.7598 4.49183 90.7667 4.49639C90.7781 4.50551 90.7872 4.51919 90.7963 4.53515C90.7986 4.54199 90.8032 4.54655 90.8054 4.55339C90.867 4.69248 90.8305 4.95697 90.8305 4.95697C90.7986 5.42211 90.6093 6.04002 90.4566 6.4778C90.1966 7.26216 89.8136 8.18561 89.3462 9.07485C89.2937 9.17746 89.2322 9.28006 89.1774 9.38267C89.353 12.5771 92.0093 8.68267 92.1758 8.43642C92.3058 8.12861 92.4243 7.82535 92.5315 7.52438C92.7276 6.94979 92.9168 6.3296 92.9351 6.26803C92.9373 6.26347 92.9373 6.25891 92.9396 6.25435C93.0559 5.78465 93.138 5.41983 93.195 5.1371C93.2566 4.8042 93.2999 4.47815 93.3272 4.16577C92.4973 1.93126 90.5797 4.50779 90.5797 4.50779Z" fill="url(#paint70_linear)"/>
<path d="M81.8309 34.2268C81.8309 34.2268 81.8287 34.2177 81.8264 34.2017C81.7124 34.758 81.5801 35.2961 81.4228 35.8069C81.5892 35.2916 81.7831 34.6303 81.8309 34.2268Z" fill="url(#paint71_linear)"/>
<path d="M81.1697 36.5548C81.1697 36.5548 81.1834 36.5183 81.2039 36.459C81.1902 36.4955 81.1766 36.5297 81.1652 36.5639C81.1674 36.5616 81.1674 36.5593 81.1697 36.5548Z" fill="url(#paint72_linear)"/>
<path d="M79.7309 33.1802C79.715 33.285 79.699 33.3945 79.6808 33.4994C79.3342 35.531 78.7642 37.0039 78.4769 37.0632C78.4746 37.0655 78.4701 37.0678 78.4678 37.0678C78.4678 37.0678 79.1769 40.2736 81.1629 36.5661C81.1765 36.5319 81.1902 36.4954 81.2016 36.4612C81.2449 36.3358 81.327 36.0964 81.4205 35.8091C81.5756 35.3007 81.7101 34.7626 81.8241 34.2039C81.7716 33.9098 81.1697 30.8476 79.7309 33.1802Z" fill="#272727"/>
<path d="M79.7309 33.1802C79.715 33.285 79.699 33.3945 79.6808 33.4994C79.3342 35.531 78.7642 37.0039 78.4769 37.0632C78.4746 37.0655 78.4701 37.0678 78.4678 37.0678C78.4678 37.0678 79.1769 40.2736 81.1629 36.5661C81.1765 36.5319 81.1902 36.4954 81.2016 36.4612C81.2449 36.3358 81.327 36.0964 81.4205 35.8091C81.5756 35.3007 81.7101 34.7626 81.8241 34.2039C81.7716 33.9098 81.1697 30.8476 79.7309 33.1802Z" fill="url(#paint73_linear)"/>
<path d="M84.9843 22.2288C84.9843 22.2288 84.9798 22.2311 84.9752 22.2356C84.9821 22.2334 84.9912 22.2334 84.998 22.2311C84.9935 22.2288 84.9889 22.2288 84.9843 22.2288Z" fill="url(#paint74_linear)"/>
<path d="M90.7165 19.3536C89.4191 20.4777 86.7833 22.5594 84.998 22.2288C84.9912 22.2311 84.982 22.2311 84.9752 22.2334C84.8384 22.3405 83.0941 23.7177 84.6446 24.1441C86.097 23.8545 87.6817 23.1135 88.9357 22.165C88.938 22.1672 91.5715 18.6125 90.7165 19.3536Z" fill="#272727"/>
<path d="M90.7165 19.3536C89.4191 20.4777 86.7833 22.5594 84.998 22.2288C84.9912 22.2311 84.982 22.2311 84.9752 22.2334C84.8384 22.3405 83.0941 23.7177 84.6446 24.1441C86.097 23.8545 87.6817 23.1135 88.9357 22.165C88.938 22.1672 91.5715 18.6125 90.7165 19.3536Z" fill="url(#paint75_linear)"/>
<path d="M77.1043 21.3829L76.5479 21.7112C76.5479 21.7112 77.656 21.3213 78.3515 21.7112L78.771 20.5963C78.771 20.594 78.4541 21.0591 77.1043 21.3829Z" fill="#272727"/>
<path d="M77.1043 21.3829L76.5479 21.7112C76.5479 21.7112 77.656 21.3213 78.3515 21.7112L78.771 20.5963C78.771 20.594 78.4541 21.0591 77.1043 21.3829Z" fill="url(#paint76_linear)"/>
<path d="M97.1031 25.5487C97.2742 25.3776 97.4315 25.2089 97.5797 25.0402C97.5158 25.1109 97.3334 25.3115 97.1031 25.5487Z" fill="url(#paint77_linear)"/>
<path d="M97.6914 26.3444C97.5819 26.4653 97.4725 26.5838 97.363 26.7024C97.5135 26.5451 97.6412 26.406 97.6914 26.3444Z" fill="url(#paint78_linear)"/>
<path d="M95.6347 26.805C95.7168 26.7457 95.7966 26.6864 95.8764 26.6271C95.8103 26.6613 95.7259 26.7229 95.6347 26.805Z" fill="url(#paint79_linear)"/>
<path d="M95.6279 28.392C95.9334 28.1411 96.4191 27.7239 96.6106 27.4868C96.2914 27.8037 95.9653 28.1092 95.6279 28.392Z" fill="url(#paint80_linear)"/>
<path d="M97.794 24.9057C97.7986 24.876 97.8031 24.8441 97.81 24.8145L97.8077 24.8167L97.6048 25.0128C97.6048 25.0128 97.5934 25.0242 97.5774 25.0425C97.4292 25.2089 97.2719 25.3799 97.1009 25.5509C96.7041 25.9613 96.1706 26.4812 95.8901 26.6203C95.8856 26.6226 95.881 26.6249 95.8764 26.6294C95.7966 26.691 95.7168 26.748 95.6347 26.8073C95.0237 27.3454 94.0364 28.7203 95.368 28.6063C95.368 28.6063 95.4751 28.5196 95.6279 28.3942C95.9654 28.1115 96.2914 27.806 96.6106 27.489C96.6152 27.4845 96.6198 27.4799 96.622 27.4753C96.622 27.4753 97.0439 27.0421 97.3631 26.7047C97.4725 26.5861 97.582 26.4653 97.6914 26.3467C97.6914 26.3444 97.6937 26.3444 97.696 26.3421C97.696 26.3398 97.6618 25.7151 97.794 24.9057Z" fill="#272727"/>
<path d="M97.794 24.9057C97.7986 24.876 97.8031 24.8441 97.81 24.8145L97.8077 24.8167L97.6048 25.0128C97.6048 25.0128 97.5934 25.0242 97.5774 25.0425C97.4292 25.2089 97.2719 25.3799 97.1009 25.5509C96.7041 25.9613 96.1706 26.4812 95.8901 26.6203C95.8856 26.6226 95.881 26.6249 95.8764 26.6294C95.7966 26.691 95.7168 26.748 95.6347 26.8073C95.0237 27.3454 94.0364 28.7203 95.368 28.6063C95.368 28.6063 95.4751 28.5196 95.6279 28.3942C95.9654 28.1115 96.2914 27.806 96.6106 27.489C96.6152 27.4845 96.6198 27.4799 96.622 27.4753C96.622 27.4753 97.0439 27.0421 97.3631 26.7047C97.4725 26.5861 97.582 26.4653 97.6914 26.3467C97.6914 26.3444 97.6937 26.3444 97.696 26.3421C97.696 26.3398 97.6618 25.7151 97.794 24.9057Z" fill="url(#paint81_linear)"/>
<path d="M105.984 18.9249C106.11 18.9386 106.219 18.9819 106.29 19.0731C106.233 18.9888 106.135 18.9363 105.984 18.9249Z" fill="url(#paint82_linear)"/>
<path d="M105.879 18.9181C105.9 18.9181 105.918 18.9181 105.939 18.9181C105.929 18.9181 105.923 18.9158 105.913 18.9158C105.902 18.9181 105.891 18.9181 105.879 18.9181Z" fill="url(#paint83_linear)"/>
<path d="M105.745 18.9272C105.72 18.9295 105.692 18.9341 105.667 18.9386C105.692 18.9341 105.717 18.9318 105.745 18.9272Z" fill="url(#paint84_linear)"/>
<path d="M105.651 18.9409C105.524 18.9614 105.396 18.9956 105.266 19.0435C105.346 19.0161 105.489 18.9705 105.651 18.9409Z" fill="url(#paint85_linear)"/>
<path d="M105.175 19.08C105.052 19.1324 104.926 19.194 104.801 19.267C104.913 19.2054 105.038 19.1415 105.175 19.08Z" fill="url(#paint86_linear)"/>
<path d="M104.776 19.2829C104.739 19.3057 104.7 19.3262 104.664 19.3513C104.7 19.3285 104.737 19.3057 104.776 19.2829Z" fill="url(#paint87_linear)"/>
<path d="M101.882 22.8125C101.672 23.2412 101.492 23.6813 101.349 24.1168C101.401 23.964 101.584 23.4464 101.882 22.8125Z" fill="url(#paint88_linear)"/>
<path d="M104.498 18.8656C104.498 18.8656 102.464 20.1015 101.533 21.563C101.533 21.563 100.858 22.5891 100.649 23.1591L101.33 24.1646C101.33 24.1646 101.337 24.1441 101.346 24.1145C101.49 23.679 101.67 23.2412 101.88 22.8102C102.185 22.1604 102.612 21.3966 103.148 20.7809C103.148 20.7809 103.715 20.0627 104.222 19.6705C104.222 19.6705 104.386 19.5223 104.664 19.3467C104.7 19.3217 104.739 19.3011 104.776 19.2783C104.785 19.2738 104.792 19.2692 104.801 19.2647C104.926 19.1917 105.052 19.1278 105.175 19.0777C105.184 19.0731 105.191 19.0708 105.2 19.0663C105.2 19.0663 105.225 19.0572 105.266 19.0412C105.396 18.9933 105.526 18.9591 105.651 18.9386C105.656 18.9386 105.66 18.9363 105.667 18.9363C105.692 18.9318 105.72 18.9272 105.745 18.9249C105.79 18.9204 105.836 18.9158 105.879 18.9158C105.891 18.9158 105.902 18.9135 105.911 18.9135C105.92 18.9135 105.927 18.9158 105.936 18.9158C105.952 18.9158 105.966 18.9181 105.982 18.9204C106.132 18.934 106.23 18.9865 106.287 19.0686C106.292 19.0754 106.301 19.0822 106.306 19.0891C106.306 19.0936 106.018 18.0858 104.498 18.8656Z" fill="#272727"/>
<path d="M104.497 18.8656C104.497 18.8656 102.464 20.1015 101.533 21.563C101.533 21.563 100.858 22.5891 100.649 23.1591L101.33 24.1646C101.33 24.1646 101.337 24.1441 101.346 24.1145C101.49 23.679 101.67 23.2412 101.88 22.8102C102.185 22.1604 102.612 21.3966 103.148 20.7809C103.148 20.7809 103.711 20.0809 104.222 19.6705C104.222 19.6705 104.402 19.5337 104.664 19.3467C104.7 19.3217 104.739 19.3011 104.776 19.2783C104.785 19.2738 104.792 19.2692 104.801 19.2647C104.926 19.1917 105.052 19.1278 105.175 19.0777C105.184 19.0731 105.191 19.0708 105.2 19.0663C105.2 19.0663 105.225 19.0572 105.266 19.0412C105.396 18.9933 105.526 18.9591 105.651 18.9386C105.656 18.9386 105.66 18.9363 105.667 18.9363C105.692 18.9318 105.72 18.9272 105.745 18.9249C105.79 18.9204 105.836 18.9158 105.879 18.9158C105.891 18.9158 105.902 18.9135 105.911 18.9135C105.92 18.9135 105.927 18.9158 105.936 18.9158C105.952 18.9158 105.966 18.9181 105.982 18.9204C106.132 18.934 106.23 18.9865 106.287 19.0686C106.292 19.0754 106.306 19.1005 106.31 19.1096C106.312 19.1119 106.018 18.0858 104.497 18.8656Z" fill="url(#paint89_linear)"/>
</g>
<defs>
<linearGradient id="paint0_linear" x1="13.2498" y1="1.21894" x2="21.4332" y2="5.94363" gradientUnits="userSpaceOnUse">
<stop stop-color="#272727" stop-opacity="0"/>
<stop offset="0.5711" stop-color="#4F4F4F" stop-opacity="0.4569"/>
<stop offset="1" stop-color="#686868" stop-opacity="0.8"/>
</linearGradient>
<linearGradient id="paint1_linear" x1="13.5582" y1="0.675336" x2="21.7444" y2="5.40481" gradientUnits="userSpaceOnUse">
<stop stop-color="#272727" stop-opacity="0"/>
<stop offset="0.5711" stop-color="#4F4F4F" stop-opacity="0.4569"/>
<stop offset="1" stop-color="#686868" stop-opacity="0.8"/>
</linearGradient>
<linearGradient id="paint2_linear" x1="13.4544" y1="0.863693" x2="21.6381" y2="5.58874" gradientUnits="userSpaceOnUse">
<stop stop-color="#272727" stop-opacity="0"/>
<stop offset="0.5711" stop-color="#4F4F4F" stop-opacity="0.4569"/>
<stop offset="1" stop-color="#686868" stop-opacity="0.8"/>
</linearGradient>
<linearGradient id="paint3_linear" x1="8.73832" y1="9.8476" x2="21.0092" y2="1.25542" gradientUnits="userSpaceOnUse">
<stop stop-color="#272727" stop-opacity="0"/>
<stop offset="0.2221" stop-color="#2D2D2D" stop-opacity="0.1555"/>
<stop offset="0.5125" stop-color="#3D3D3D" stop-opacity="0.3588"/>
<stop offset="0.8394" stop-color="#585858" stop-opacity="0.5876"/>
<stop offset="1" stop-color="#686868" stop-opacity="0.7"/>
</linearGradient>
<linearGradient id="paint4_linear" x1="19.1087" y1="26.5545" x2="26.5796" y2="26.5545" gradientUnits="userSpaceOnUse">
<stop stop-color="#272727" stop-opacity="0"/>
<stop offset="0.2873" stop-color="#2A2A2A" stop-opacity="0.2011"/>
<stop offset="0.5168" stop-color="#343434" stop-opacity="0.3617"/>
<stop offset="0.7263" stop-color="#454545" stop-opacity="0.5084"/>
<stop offset="0.9229" stop-color="#5D5D5D" stop-opacity="0.646"/>
<stop offset="1" stop-color="#686868" stop-opacity="0.7"/>
</linearGradient>
<linearGradient id="paint5_linear" x1="19.1085" y1="26.4381" x2="26.5796" y2="26.4381" gradientUnits="userSpaceOnUse">
<stop stop-color="#272727" stop-opacity="0"/>
<stop offset="0.2873" stop-color="#2A2A2A" stop-opacity="0.2011"/>
<stop offset="0.5168" stop-color="#343434" stop-opacity="0.3617"/>
<stop offset="0.7263" stop-color="#454545" stop-opacity="0.5084"/>
<stop offset="0.9229" stop-color="#5D5D5D" stop-opacity="0.646"/>
<stop offset="1" stop-color="#686868" stop-opacity="0.7"/>
</linearGradient>
<linearGradient id="paint6_linear" x1="19.1085" y1="26.4978" x2="26.5796" y2="26.4978" gradientUnits="userSpaceOnUse">
<stop stop-color="#272727" stop-opacity="0"/>
<stop offset="0.2873" stop-color="#2A2A2A" stop-opacity="0.2011"/>
<stop offset="0.5168" stop-color="#343434" stop-opacity="0.3617"/>
<stop offset="0.7263" stop-color="#454545" stop-opacity="0.5084"/>
<stop offset="0.9229" stop-color="#5D5D5D" stop-opacity="0.646"/>
<stop offset="1" stop-color="#686868" stop-opacity="0.7"/>
</linearGradient>
<linearGradient id="paint7_linear" x1="34.6671" y1="17.43" x2="31.202" y2="17.43" gradientUnits="userSpaceOnUse">
<stop stop-color="#272727" stop-opacity="0"/>
<stop offset="0.3256" stop-color="#393939" stop-opacity="0.2279"/>
<stop offset="0.9725" stop-color="#666666" stop-opacity="0.6808"/>
<stop offset="1" stop-color="#686868" stop-opacity="0.7"/>
</linearGradient>
<linearGradient id="paint8_linear" x1="34.6671" y1="18.287" x2="31.202" y2="18.287" gradientUnits="userSpaceOnUse">
<stop stop-color="#272727" stop-opacity="0"/>
<stop offset="0.3256" stop-color="#393939" stop-opacity="0.2279"/>
<stop offset="0.9725" stop-color="#666666" stop-opacity="0.6808"/>
<stop offset="1" stop-color="#686868" stop-opacity="0.7"/>
</linearGradient>
<linearGradient id="paint9_linear" x1="34.6671" y1="20.376" x2="31.202" y2="20.376" gradientUnits="userSpaceOnUse">
<stop stop-color="#272727" stop-opacity="0"/>
<stop offset="0.3256" stop-color="#393939" stop-opacity="0.2279"/>
<stop offset="0.9725" stop-color="#666666" stop-opacity="0.6808"/>
<stop offset="1" stop-color="#686868" stop-opacity="0.7"/>
</linearGradient>
<linearGradient id="paint10_linear" x1="34.6671" y1="15.8639" x2="31.2019" y2="15.8639" gradientUnits="userSpaceOnUse">
<stop stop-color="#272727" stop-opacity="0"/>
<stop offset="0.3256" stop-color="#393939" stop-opacity="0.2279"/>
<stop offset="0.9725" stop-color="#666666" stop-opacity="0.6808"/>
<stop offset="1" stop-color="#686868" stop-opacity="0.7"/>
</linearGradient>
<linearGradient id="paint11_linear" x1="34.6671" y1="18.3603" x2="31.202" y2="18.3603" gradientUnits="userSpaceOnUse">
<stop stop-color="#272727" stop-opacity="0"/>
<stop offset="0.3256" stop-color="#393939" stop-opacity="0.2279"/>
<stop offset="0.9725" stop-color="#666666" stop-opacity="0.6808"/>
<stop offset="1" stop-color="#686868" stop-opacity="0.7"/>
</linearGradient>
<linearGradient id="paint12_linear" x1="41.1119" y1="6.71591" x2="41.1119" y2="2.55919" gradientUnits="userSpaceOnUse">
<stop stop-color="#272727" stop-opacity="0"/>
<stop offset="0.3269" stop-color="#393939" stop-opacity="0.2291"/>
<stop offset="0.9773" stop-color="#666666" stop-opacity="0.6851"/>
<stop offset="0.9985" stop-color="#686868" stop-opacity="0.7"/>
</linearGradient>
<linearGradient id="paint13_linear" x1="41.1742" y1="6.71641" x2="41.1742" y2="2.55908" gradientUnits="userSpaceOnUse">
<stop stop-color="#272727" stop-opacity="0"/>
<stop offset="0.3269" stop-color="#393939" stop-opacity="0.2291"/>
<stop offset="0.9773" stop-color="#666666" stop-opacity="0.6851"/>
<stop offset="0.9985" stop-color="#686868" stop-opacity="0.7"/>
</linearGradient>
<linearGradient id="paint14_linear" x1="41.172" y1="6.71588" x2="41.172" y2="2.55921" gradientUnits="userSpaceOnUse">
<stop stop-color="#272727" stop-opacity="0"/>
<stop offset="0.3269" stop-color="#393939" stop-opacity="0.2291"/>
<stop offset="0.9773" stop-color="#666666" stop-opacity="0.6851"/>
<stop offset="0.9985" stop-color="#686868" stop-opacity="0.7"/>
</linearGradient>
<linearGradient id="paint15_linear" x1="41.2303" y1="6.71594" x2="41.2303" y2="2.55919" gradientUnits="userSpaceOnUse">
<stop stop-color="#272727" stop-opacity="0"/>
<stop offset="0.3269" stop-color="#393939" stop-opacity="0.2291"/>
<stop offset="0.9773" stop-color="#666666" stop-opacity="0.6851"/>
<stop offset="0.9985" stop-color="#686868" stop-opacity="0.7"/>
</linearGradient>
<linearGradient id="paint16_linear" x1="42.5576" y1="6.71583" x2="42.5576" y2="2.55941" gradientUnits="userSpaceOnUse">
<stop stop-color="#272727" stop-opacity="0"/>
<stop offset="0.3269" stop-color="#393939" stop-opacity="0.2291"/>
<stop offset="0.9773" stop-color="#666666" stop-opacity="0.6851"/>
<stop offset="0.9985" stop-color="#686868" stop-opacity="0.7"/>
</linearGradient>
<linearGradient id="paint17_linear" x1="40.5511" y1="6.71587" x2="40.5511" y2="2.55921" gradientUnits="userSpaceOnUse">
<stop stop-color="#272727" stop-opacity="0"/>
<stop offset="0.3269" stop-color="#393939" stop-opacity="0.2291"/>
<stop offset="0.9773" stop-color="#666666" stop-opacity="0.6851"/>
<stop offset="0.9985" stop-color="#686868" stop-opacity="0.7"/>
</linearGradient>
<linearGradient id="paint18_linear" x1="43.2101" y1="6.7159" x2="43.2101" y2="2.55922" gradientUnits="userSpaceOnUse">
<stop stop-color="#272727" stop-opacity="0"/>
<stop offset="0.3269" stop-color="#393939" stop-opacity="0.2291"/>
<stop offset="0.9773" stop-color="#666666" stop-opacity="0.6851"/>
<stop offset="0.9985" stop-color="#686868" stop-opacity="0.7"/>
</linearGradient>
<linearGradient id="paint19_linear" x1="41.7406" y1="6.71548" x2="41.7406" y2="2.56036" gradientUnits="userSpaceOnUse">
<stop stop-color="#272727" stop-opacity="0"/>
<stop offset="0.3269" stop-color="#393939" stop-opacity="0.2291"/>
<stop offset="0.9773" stop-color="#666666" stop-opacity="0.6851"/>
<stop offset="0.9985" stop-color="#686868" stop-opacity="0.7"/>
</linearGradient>
<linearGradient id="paint20_linear" x1="34.9741" y1="26.5035" x2="36.6173" y2="26.7933" gradientUnits="userSpaceOnUse">
<stop stop-color="#272727" stop-opacity="0"/>
<stop offset="0.292" stop-color="#2A2A2A" stop-opacity="0.1462"/>
<stop offset="0.5195" stop-color="#343434" stop-opacity="0.2601"/>
<stop offset="0.7251" stop-color="#444444" stop-opacity="0.3631"/>
<stop offset="0.9168" stop-color="#5C5C5C" stop-opacity="0.4591"/>
<stop offset="0.9985" stop-color="#686868" stop-opacity="0.5"/>
</linearGradient>
<linearGradient id="paint21_linear" x1="34.8943" y1="26.9569" x2="36.5374" y2="27.2466" gradientUnits="userSpaceOnUse">
<stop stop-color="#272727" stop-opacity="0"/>
<stop offset="0.292" stop-color="#2A2A2A" stop-opacity="0.1462"/>
<stop offset="0.5195" stop-color="#343434" stop-opacity="0.2601"/>
<stop offset="0.7251" stop-color="#444444" stop-opacity="0.3631"/>
<stop offset="0.9168" stop-color="#5C5C5C" stop-opacity="0.4591"/>
<stop offset="0.9985" stop-color="#686868" stop-opacity="0.5"/>
</linearGradient>
<linearGradient id="paint22_linear" x1="34.9799" y1="26.4704" x2="36.6231" y2="26.7602" gradientUnits="userSpaceOnUse">
<stop stop-color="#272727" stop-opacity="0"/>
<stop offset="0.292" stop-color="#2A2A2A" stop-opacity="0.1462"/>
<stop offset="0.5195" stop-color="#343434" stop-opacity="0.2601"/>
<stop offset="0.7251" stop-color="#444444" stop-opacity="0.3631"/>
<stop offset="0.9168" stop-color="#5C5C5C" stop-opacity="0.4591"/>
<stop offset="0.9985" stop-color="#686868" stop-opacity="0.5"/>
</linearGradient>
<linearGradient id="paint23_linear" x1="42.7816" y1="19.4574" x2="49.9697" y2="17.9296" gradientUnits="userSpaceOnUse">
<stop stop-color="#272727" stop-opacity="0"/>
<stop offset="0.314" stop-color="#383838" stop-opacity="0.2201"/>
<stop offset="0.9307" stop-color="#636363" stop-opacity="0.6525"/>
<stop offset="0.9985" stop-color="#686868" stop-opacity="0.7"/>
</linearGradient>
<linearGradient id="paint24_linear" x1="43.1812" y1="21.3375" x2="50.3693" y2="19.8096" gradientUnits="userSpaceOnUse">
<stop stop-color="#272727" stop-opacity="0"/>
<stop offset="0.314" stop-color="#383838" stop-opacity="0.2201"/>
<stop offset="0.9307" stop-color="#636363" stop-opacity="0.6525"/>
<stop offset="0.9985" stop-color="#686868" stop-opacity="0.7"/>
</linearGradient>
<linearGradient id="paint25_linear" x1="42.8014" y1="19.5502" x2="49.9894" y2="18.0223" gradientUnits="userSpaceOnUse">
<stop stop-color="#272727" stop-opacity="0"/>
<stop offset="0.314" stop-color="#383838" stop-opacity="0.2201"/>
<stop offset="0.9307" stop-color="#636363" stop-opacity="0.6525"/>
<stop offset="0.9985" stop-color="#686868" stop-opacity="0.7"/>
</linearGradient>
<linearGradient id="paint26_linear" x1="42.7668" y1="19.3875" x2="49.9548" y2="17.8597" gradientUnits="userSpaceOnUse">
<stop stop-color="#272727" stop-opacity="0"/>
<stop offset="0.314" stop-color="#383838" stop-opacity="0.2201"/>
<stop offset="0.9307" stop-color="#636363" stop-opacity="0.6525"/>
<stop offset="0.9985" stop-color="#686868" stop-opacity="0.7"/>
</linearGradient>
<linearGradient id="paint27_linear" x1="42.8601" y1="19.8201" x2="50.0461" y2="18.294" gradientUnits="userSpaceOnUse">
<stop stop-color="#272727" stop-opacity="0"/>
<stop offset="0.314" stop-color="#383838" stop-opacity="0.2201"/>
<stop offset="0.9307" stop-color="#636363" stop-opacity="0.6525"/>
<stop offset="0.9985" stop-color="#686868" stop-opacity="0.7"/>
</linearGradient>
<linearGradient id="paint28_linear" x1="42.8275" y1="19.6732" x2="50.0155" y2="18.1454" gradientUnits="userSpaceOnUse">
<stop stop-color="#272727" stop-opacity="0"/>
<stop offset="0.314" stop-color="#383838" stop-opacity="0.2201"/>
<stop offset="0.9307" stop-color="#636363" stop-opacity="0.6525"/>
<stop offset="0.9985" stop-color="#686868" stop-opacity="0.7"/>
</linearGradient>
<linearGradient id="paint29_linear" x1="42.9473" y1="20.2371" x2="50.1354" y2="18.7092" gradientUnits="userSpaceOnUse">
<stop stop-color="#272727" stop-opacity="0"/>
<stop offset="0.314" stop-color="#383838" stop-opacity="0.2201"/>
<stop offset="0.9307" stop-color="#636363" stop-opacity="0.6525"/>
<stop offset="0.9985" stop-color="#686868" stop-opacity="0.7"/>
</linearGradient>
<linearGradient id="paint30_linear" x1="45.3551" y1="22.758" x2="48.2491" y2="22.758" gradientUnits="userSpaceOnUse">
<stop stop-color="#272727" stop-opacity="0"/>
<stop offset="0.2232" stop-color="#2D2D2D" stop-opacity="0.1562"/>
<stop offset="0.5082" stop-color="#3C3C3C" stop-opacity="0.3557"/>
<stop offset="0.8255" stop-color="#565656" stop-opacity="0.5778"/>
<stop offset="1" stop-color="#686868" stop-opacity="0.7"/>
</linearGradient>
<linearGradient id="paint31_linear" x1="56.6911" y1="18.5553" x2="59.7364" y2="16.7972" gradientUnits="userSpaceOnUse">
<stop stop-color="#272727" stop-opacity="0"/>
<stop offset="0.2244" stop-color="#2C2C2C" stop-opacity="0.1573"/>
<stop offset="0.5035" stop-color="#3C3C3C" stop-opacity="0.3529"/>
<stop offset="0.8101" stop-color="#555555" stop-opacity="0.5679"/>
<stop offset="0.9985" stop-color="#686868" stop-opacity="0.7"/>
</linearGradient>
<linearGradient id="paint32_linear" x1="56.5747" y1="18.3523" x2="59.6194" y2="16.5945" gradientUnits="userSpaceOnUse">
<stop stop-color="#272727" stop-opacity="0"/>
<stop offset="0.2244" stop-color="#2C2C2C" stop-opacity="0.1573"/>
<stop offset="0.5035" stop-color="#3C3C3C" stop-opacity="0.3529"/>
<stop offset="0.8101" stop-color="#555555" stop-opacity="0.5679"/>
<stop offset="0.9985" stop-color="#686868" stop-opacity="0.7"/>
</linearGradient>
<linearGradient id="paint33_linear" x1="61.7541" y1="13.1148" x2="60.414" y2="13.3511" gradientUnits="userSpaceOnUse">
<stop stop-color="#272727" stop-opacity="0"/>
<stop offset="0.2802" stop-color="#353535" stop-opacity="0.1964"/>
<stop offset="0.8061" stop-color="#595959" stop-opacity="0.5651"/>
<stop offset="0.9985" stop-color="#686868" stop-opacity="0.7"/>
</linearGradient>
<linearGradient id="paint34_linear" x1="61.8812" y1="13.8349" x2="60.5407" y2="14.0712" gradientUnits="userSpaceOnUse">
<stop stop-color="#272727" stop-opacity="0"/>
<stop offset="0.2802" stop-color="#353535" stop-opacity="0.1964"/>
<stop offset="0.8061" stop-color="#595959" stop-opacity="0.5651"/>
<stop offset="0.9985" stop-color="#686868" stop-opacity="0.7"/>
</linearGradient>
<linearGradient id="paint35_linear" x1="61.8067" y1="13.4116" x2="60.4661" y2="13.648" gradientUnits="userSpaceOnUse">
<stop stop-color="#272727" stop-opacity="0"/>
<stop offset="0.2802" stop-color="#353535" stop-opacity="0.1964"/>
<stop offset="0.8061" stop-color="#595959" stop-opacity="0.5651"/>
<stop offset="0.9985" stop-color="#686868" stop-opacity="0.7"/>
</linearGradient>
<linearGradient id="paint36_linear" x1="61.7504" y1="13.0925" x2="60.4098" y2="13.3289" gradientUnits="userSpaceOnUse">
<stop stop-color="#272727" stop-opacity="0"/>
<stop offset="0.2802" stop-color="#353535" stop-opacity="0.1964"/>
<stop offset="0.8061" stop-color="#595959" stop-opacity="0.5651"/>
<stop offset="0.9985" stop-color="#686868" stop-opacity="0.7"/>
</linearGradient>
<linearGradient id="paint37_linear" x1="61.6671" y1="12.6204" x2="60.3265" y2="12.8568" gradientUnits="userSpaceOnUse">
<stop stop-color="#272727" stop-opacity="0"/>
<stop offset="0.2802" stop-color="#353535" stop-opacity="0.1964"/>
<stop offset="0.8061" stop-color="#595959" stop-opacity="0.5651"/>
<stop offset="0.9985" stop-color="#686868" stop-opacity="0.7"/>
</linearGradient>
<linearGradient id="paint38_linear" x1="61.5608" y1="12.0175" x2="60.2204" y2="12.2539" gradientUnits="userSpaceOnUse">
<stop stop-color="#272727" stop-opacity="0"/>
<stop offset="0.2802" stop-color="#353535" stop-opacity="0.1964"/>
<stop offset="0.8061" stop-color="#595959" stop-opacity="0.5651"/>
<stop offset="0.9985" stop-color="#686868" stop-opacity="0.7"/>
</linearGradient>
<linearGradient id="paint39_linear" x1="62.5614" y1="12.5286" x2="62.2894" y2="10.9858" gradientUnits="userSpaceOnUse">
<stop stop-color="#272727" stop-opacity="0"/>
<stop offset="0.3207" stop-color="#383838" stop-opacity="0.2245"/>
<stop offset="0.9548" stop-color="#656565" stop-opacity="0.6684"/>
<stop offset="1" stop-color="#686868" stop-opacity="0.7"/>
</linearGradient>
<linearGradient id="paint40_linear" x1="62.8048" y1="12.4857" x2="62.5328" y2="10.9428" gradientUnits="userSpaceOnUse">
<stop stop-color="#272727" stop-opacity="0"/>
<stop offset="0.3207" stop-color="#383838" stop-opacity="0.2245"/>
<stop offset="0.9548" stop-color="#656565" stop-opacity="0.6684"/>
<stop offset="1" stop-color="#686868" stop-opacity="0.7"/>
</linearGradient>
<linearGradient id="paint41_linear" x1="62.0608" y1="12.6169" x2="61.7888" y2="11.074" gradientUnits="userSpaceOnUse">
<stop stop-color="#272727" stop-opacity="0"/>
<stop offset="0.3207" stop-color="#383838" stop-opacity="0.2245"/>
<stop offset="0.9548" stop-color="#656565" stop-opacity="0.6684"/>
<stop offset="1" stop-color="#686868" stop-opacity="0.7"/>
</linearGradient>
<linearGradient id="paint42_linear" x1="61.1326" y1="12.7805" x2="60.8605" y2="11.2377" gradientUnits="userSpaceOnUse">
<stop stop-color="#272727" stop-opacity="0"/>
<stop offset="0.3207" stop-color="#383838" stop-opacity="0.2245"/>
<stop offset="0.9548" stop-color="#656565" stop-opacity="0.6684"/>
<stop offset="1" stop-color="#686868" stop-opacity="0.7"/>
</linearGradient>
<linearGradient id="paint43_linear" x1="61.5948" y1="12.699" x2="61.3227" y2="11.1563" gradientUnits="userSpaceOnUse">
<stop stop-color="#272727" stop-opacity="0"/>
<stop offset="0.3207" stop-color="#383838" stop-opacity="0.2245"/>
<stop offset="0.9548" stop-color="#656565" stop-opacity="0.6684"/>
<stop offset="1" stop-color="#686868" stop-opacity="0.7"/>
</linearGradient>
<linearGradient id="paint44_linear" x1="61.6191" y1="12.3491" x2="60.2786" y2="12.5855" gradientUnits="userSpaceOnUse">
<stop stop-color="#272727" stop-opacity="0"/>
<stop offset="0.2802" stop-color="#353535" stop-opacity="0.1964"/>
<stop offset="0.8061" stop-color="#595959" stop-opacity="0.5651"/>
<stop offset="0.9985" stop-color="#686868" stop-opacity="0.7"/>
</linearGradient>
<linearGradient id="paint45_linear" x1="61.3446" y1="12.7431" x2="61.0726" y2="11.2003" gradientUnits="userSpaceOnUse">
<stop stop-color="#272727" stop-opacity="0"/>
<stop offset="0.3207" stop-color="#383838" stop-opacity="0.2245"/>
<stop offset="0.9548" stop-color="#656565" stop-opacity="0.6684"/>
<stop offset="1" stop-color="#686868" stop-opacity="0.7"/>
</linearGradient>
<linearGradient id="paint46_linear" x1="66.4729" y1="25.1545" x2="67.719" y2="25.1545" gradientUnits="userSpaceOnUse">
<stop stop-color="#272727" stop-opacity="0"/>
<stop offset="0.3265" stop-color="#393939" stop-opacity="0.2289"/>
<stop offset="0.9761" stop-color="#666666" stop-opacity="0.6843"/>
<stop offset="0.9985" stop-color="#686868" stop-opacity="0.7"/>
</linearGradient>
<linearGradient id="paint47_linear" x1="66.4727" y1="26.9968" x2="67.7194" y2="26.9968" gradientUnits="userSpaceOnUse">
<stop stop-color="#272727" stop-opacity="0"/>
<stop offset="0.3265" stop-color="#393939" stop-opacity="0.2289"/>
<stop offset="0.9761" stop-color="#666666" stop-opacity="0.6843"/>
<stop offset="0.9985" stop-color="#686868" stop-opacity="0.7"/>
</linearGradient>
<linearGradient id="paint48_linear" x1="66.4725" y1="26.532" x2="67.7191" y2="26.532" gradientUnits="userSpaceOnUse">
<stop stop-color="#272727" stop-opacity="0"/>
<stop offset="0.3265" stop-color="#393939" stop-opacity="0.2289"/>
<stop offset="0.9761" stop-color="#666666" stop-opacity="0.6843"/>
<stop offset="0.9985" stop-color="#686868" stop-opacity="0.7"/>
</linearGradient>
<linearGradient id="paint49_linear" x1="66.4729" y1="26.706" x2="67.7189" y2="26.706" gradientUnits="userSpaceOnUse">
<stop stop-color="#272727" stop-opacity="0"/>
<stop offset="0.3265" stop-color="#393939" stop-opacity="0.2289"/>
<stop offset="0.9761" stop-color="#666666" stop-opacity="0.6843"/>
<stop offset="0.9985" stop-color="#686868" stop-opacity="0.7"/>
</linearGradient>
<linearGradient id="paint50_linear" x1="66.4729" y1="27.1737" x2="67.7189" y2="27.1737" gradientUnits="userSpaceOnUse">
<stop stop-color="#272727" stop-opacity="0"/>
<stop offset="0.3265" stop-color="#393939" stop-opacity="0.2289"/>
<stop offset="0.9761" stop-color="#666666" stop-opacity="0.6843"/>
<stop offset="0.9985" stop-color="#686868" stop-opacity="0.7"/>
</linearGradient>
<linearGradient id="paint51_linear" x1="66.4729" y1="25.9857" x2="67.7189" y2="25.9857" gradientUnits="userSpaceOnUse">
<stop stop-color="#272727" stop-opacity="0"/>
<stop offset="0.3265" stop-color="#393939" stop-opacity="0.2289"/>
<stop offset="0.9761" stop-color="#666666" stop-opacity="0.6843"/>
<stop offset="0.9985" stop-color="#686868" stop-opacity="0.7"/>
</linearGradient>
<linearGradient id="paint52_linear" x1="71.8642" y1="23.8634" x2="74.7216" y2="18.9142" gradientUnits="userSpaceOnUse">
<stop stop-color="#272727" stop-opacity="0"/>
<stop offset="0.3098" stop-color="#373737" stop-opacity="0.2169"/>
<stop offset="0.9153" stop-color="#626262" stop-opacity="0.6407"/>
<stop offset="1" stop-color="#686868" stop-opacity="0.7"/>
</linearGradient>
<linearGradient id="paint53_linear" x1="71.5901" y1="23.7051" x2="74.4475" y2="18.756" gradientUnits="userSpaceOnUse">
<stop stop-color="#272727" stop-opacity="0"/>
<stop offset="0.3098" stop-color="#373737" stop-opacity="0.2169"/>
<stop offset="0.9153" stop-color="#626262" stop-opacity="0.6407"/>
<stop offset="1" stop-color="#686868" stop-opacity="0.7"/>
</linearGradient>
<linearGradient id="paint54_linear" x1="74.8041" y1="26.0647" x2="77.0312" y2="26.6615" gradientUnits="userSpaceOnUse">
<stop stop-color="#272727" stop-opacity="0"/>
<stop offset="0.3058" stop-color="#373737" stop-opacity="0.2141"/>
<stop offset="0.9005" stop-color="#606060" stop-opacity="0.6303"/>
<stop offset="1" stop-color="#686868" stop-opacity="0.7"/>
</linearGradient>
<linearGradient id="paint55_linear" x1="74.2073" y1="28.2915" x2="76.4346" y2="28.8883" gradientUnits="userSpaceOnUse">
<stop stop-color="#272727" stop-opacity="0"/>
<stop offset="0.3058" stop-color="#373737" stop-opacity="0.2141"/>
<stop offset="0.9005" stop-color="#606060" stop-opacity="0.6303"/>
<stop offset="1" stop-color="#686868" stop-opacity="0.7"/>
</linearGradient>
<linearGradient id="paint56_linear" x1="74.5206" y1="27.1224" x2="76.7479" y2="27.7192" gradientUnits="userSpaceOnUse">
<stop stop-color="#272727" stop-opacity="0"/>
<stop offset="0.3058" stop-color="#373737" stop-opacity="0.2141"/>
<stop offset="0.9005" stop-color="#606060" stop-opacity="0.6303"/>
<stop offset="1" stop-color="#686868" stop-opacity="0.7"/>
</linearGradient>
<linearGradient id="paint57_linear" x1="75.018" y1="25.2661" x2="77.2452" y2="25.8629" gradientUnits="userSpaceOnUse">
<stop stop-color="#272727" stop-opacity="0"/>
<stop offset="0.3058" stop-color="#373737" stop-opacity="0.2141"/>
<stop offset="0.9005" stop-color="#606060" stop-opacity="0.6303"/>
<stop offset="1" stop-color="#686868" stop-opacity="0.7"/>
</linearGradient>
<linearGradient id="paint58_linear" x1="73.7095" y1="26.6344" x2="76.8697" y2="27.4812" gradientUnits="userSpaceOnUse">
<stop stop-color="#272727" stop-opacity="0"/>
<stop offset="0.3058" stop-color="#373737" stop-opacity="0.2141"/>
<stop offset="0.9005" stop-color="#606060" stop-opacity="0.6303"/>
<stop offset="1" stop-color="#686868" stop-opacity="0.7"/>
</linearGradient>
<linearGradient id="paint59_linear" x1="88.1872" y1="20.9204" x2="82.7202" y2="19.9565" gradientUnits="userSpaceOnUse">
<stop stop-color="#272727" stop-opacity="0"/>
<stop offset="0.2227" stop-color="#2D2D2D" stop-opacity="0.1559"/>
<stop offset="0.5101" stop-color="#3D3D3D" stop-opacity="0.3571"/>
<stop offset="0.8317" stop-color="#575757" stop-opacity="0.5822"/>
<stop offset="1" stop-color="#686868" stop-opacity="0.7"/>
</linearGradient>
<linearGradient id="paint60_linear" x1="88.8333" y1="17.2562" x2="83.3663" y2="16.2922" gradientUnits="userSpaceOnUse">
<stop stop-color="#272727" stop-opacity="0"/>
<stop offset="0.2227" stop-color="#2D2D2D" stop-opacity="0.1559"/>
<stop offset="0.5101" stop-color="#3D3D3D" stop-opacity="0.3571"/>
<stop offset="0.8317" stop-color="#575757" stop-opacity="0.5822"/>
<stop offset="1" stop-color="#686868" stop-opacity="0.7"/>
</linearGradient>
<linearGradient id="paint61_linear" x1="89.3474" y1="14.3413" x2="83.8804" y2="13.3773" gradientUnits="userSpaceOnUse">
<stop stop-color="#272727" stop-opacity="0"/>
<stop offset="0.2227" stop-color="#2D2D2D" stop-opacity="0.1559"/>
<stop offset="0.5101" stop-color="#3D3D3D" stop-opacity="0.3571"/>
<stop offset="0.8317" stop-color="#575757" stop-opacity="0.5822"/>
<stop offset="1" stop-color="#686868" stop-opacity="0.7"/>
</linearGradient>
<linearGradient id="paint62_linear" x1="88.9439" y1="16.6293" x2="83.4769" y2="15.6654" gradientUnits="userSpaceOnUse">
<stop stop-color="#272727" stop-opacity="0"/>
<stop offset="0.2227" stop-color="#2D2D2D" stop-opacity="0.1559"/>
<stop offset="0.5101" stop-color="#3D3D3D" stop-opacity="0.3571"/>
<stop offset="0.8317" stop-color="#575757" stop-opacity="0.5822"/>
<stop offset="1" stop-color="#686868" stop-opacity="0.7"/>
</linearGradient>
<linearGradient id="paint63_linear" x1="88.3717" y1="9.37387" x2="93.5897" y2="4.15588" gradientUnits="userSpaceOnUse">
<stop stop-color="#272727" stop-opacity="0"/>
<stop offset="0.3269" stop-color="#393939" stop-opacity="0.2291"/>
<stop offset="0.9773" stop-color="#666666" stop-opacity="0.6851"/>
<stop offset="0.9985" stop-color="#686868" stop-opacity="0.7"/>
</linearGradient>
<linearGradient id="paint64_linear" x1="89.6645" y1="10.6668" x2="94.8825" y2="5.44874" gradientUnits="userSpaceOnUse">
<stop stop-color="#272727" stop-opacity="0"/>
<stop offset="0.3269" stop-color="#393939" stop-opacity="0.2291"/>
<stop offset="0.9773" stop-color="#666666" stop-opacity="0.6851"/>
<stop offset="0.9985" stop-color="#686868" stop-opacity="0.7"/>
</linearGradient>
<linearGradient id="paint65_linear" x1="88.4551" y1="9.4567" x2="93.6731" y2="4.23939" gradientUnits="userSpaceOnUse">
<stop stop-color="#272727" stop-opacity="0"/>
<stop offset="0.3269" stop-color="#393939" stop-opacity="0.2291"/>
<stop offset="0.9773" stop-color="#666666" stop-opacity="0.6851"/>
<stop offset="0.9985" stop-color="#686868" stop-opacity="0.7"/>
</linearGradient>
<linearGradient id="paint66_linear" x1="87.0515" y1="8.05389" x2="92.2695" y2="2.8356" gradientUnits="userSpaceOnUse">
<stop stop-color="#272727" stop-opacity="0"/>
<stop offset="0.3269" stop-color="#393939" stop-opacity="0.2291"/>
<stop offset="0.9773" stop-color="#666666" stop-opacity="0.6851"/>
<stop offset="0.9985" stop-color="#686868" stop-opacity="0.7"/>
</linearGradient>
<linearGradient id="paint67_linear" x1="87.1708" y1="8.17182" x2="92.3889" y2="2.95569" gradientUnits="userSpaceOnUse">
<stop stop-color="#272727" stop-opacity="0"/>
<stop offset="0.3269" stop-color="#393939" stop-opacity="0.2291"/>
<stop offset="0.9773" stop-color="#666666" stop-opacity="0.6851"/>
<stop offset="0.9985" stop-color="#686868" stop-opacity="0.7"/>
</linearGradient>
<linearGradient id="paint68_linear" x1="87.1213" y1="8.12369" x2="92.3392" y2="2.90539" gradientUnits="userSpaceOnUse">
<stop stop-color="#272727" stop-opacity="0"/>
<stop offset="0.3269" stop-color="#393939" stop-opacity="0.2291"/>
<stop offset="0.9773" stop-color="#666666" stop-opacity="0.6851"/>
<stop offset="0.9985" stop-color="#686868" stop-opacity="0.7"/>
</linearGradient>
<linearGradient id="paint69_linear" x1="89.0955" y1="10.0986" x2="94.3123" y2="4.87814" gradientUnits="userSpaceOnUse">
<stop stop-color="#272727" stop-opacity="0"/>
<stop offset="0.3269" stop-color="#393939" stop-opacity="0.2291"/>
<stop offset="0.9773" stop-color="#666666" stop-opacity="0.6851"/>
<stop offset="0.9985" stop-color="#686868" stop-opacity="0.7"/>
</linearGradient>
<linearGradient id="paint70_linear" x1="88.4812" y1="9.48181" x2="93.6978" y2="4.26518" gradientUnits="userSpaceOnUse">
<stop stop-color="#272727" stop-opacity="0"/>
<stop offset="0.3269" stop-color="#393939" stop-opacity="0.2291"/>
<stop offset="0.9773" stop-color="#666666" stop-opacity="0.6851"/>
<stop offset="0.9985" stop-color="#686868" stop-opacity="0.7"/>
</linearGradient>
<linearGradient id="paint71_linear" x1="81.6265" y1="32.3109" x2="81.6265" y2="38.3545" gradientUnits="userSpaceOnUse">
<stop stop-color="#272727" stop-opacity="0"/>
<stop offset="0.2225" stop-color="#2D2D2D" stop-opacity="0.156"/>
<stop offset="0.5088" stop-color="#3D3D3D" stop-opacity="0.3567"/>
<stop offset="0.8285" stop-color="#575757" stop-opacity="0.5808"/>
<stop offset="0.9985" stop-color="#686868" stop-opacity="0.7"/>
</linearGradient>
<linearGradient id="paint72_linear" x1="81.1844" y1="32.3103" x2="81.1844" y2="38.3548" gradientUnits="userSpaceOnUse">
<stop stop-color="#272727" stop-opacity="0"/>
<stop offset="0.2225" stop-color="#2D2D2D" stop-opacity="0.156"/>
<stop offset="0.5088" stop-color="#3D3D3D" stop-opacity="0.3567"/>
<stop offset="0.8285" stop-color="#575757" stop-opacity="0.5808"/>
<stop offset="0.9985" stop-color="#686868" stop-opacity="0.7"/>
</linearGradient>
<linearGradient id="paint73_linear" x1="80.1478" y1="32.3106" x2="80.1478" y2="38.354" gradientUnits="userSpaceOnUse">
<stop stop-color="#272727" stop-opacity="0"/>
<stop offset="0.2225" stop-color="#2D2D2D" stop-opacity="0.156"/>
<stop offset="0.5088" stop-color="#3D3D3D" stop-opacity="0.3567"/>
<stop offset="0.8285" stop-color="#575757" stop-opacity="0.5808"/>
<stop offset="0.9985" stop-color="#686868" stop-opacity="0.7"/>
</linearGradient>
<linearGradient id="paint74_linear" x1="84.7403" y1="22.0909" x2="88.1579" y2="24.06" gradientUnits="userSpaceOnUse">
<stop stop-color="#272727" stop-opacity="0"/>
<stop offset="0.2234" stop-color="#2D2D2D" stop-opacity="0.1564"/>
<stop offset="0.5078" stop-color="#3C3C3C" stop-opacity="0.3554"/>
<stop offset="0.8239" stop-color="#565656" stop-opacity="0.5767"/>
<stop offset="1" stop-color="#686868" stop-opacity="0.7"/>
</linearGradient>
<linearGradient id="paint75_linear" x1="85.6524" y1="20.5131" x2="89.0663" y2="22.4841" gradientUnits="userSpaceOnUse">
<stop stop-color="#272727" stop-opacity="0"/>
<stop offset="0.2234" stop-color="#2D2D2D" stop-opacity="0.1564"/>
<stop offset="0.5078" stop-color="#3C3C3C" stop-opacity="0.3554"/>
<stop offset="0.8239" stop-color="#565656" stop-opacity="0.5767"/>
<stop offset="1" stop-color="#686868" stop-opacity="0.7"/>
</linearGradient>
<linearGradient id="paint76_linear" x1="76.857" y1="20.8602" x2="78.4616" y2="21.4442" gradientUnits="userSpaceOnUse">
<stop stop-color="#272727" stop-opacity="0"/>
<stop offset="0.3227" stop-color="#383838" stop-opacity="0.1936"/>
<stop offset="0.9622" stop-color="#656565" stop-opacity="0.5773"/>
<stop offset="1" stop-color="#686868" stop-opacity="0.6"/>
</linearGradient>
<linearGradient id="paint77_linear" x1="94.7056" y1="25.2949" x2="97.8098" y2="25.2949" gradientUnits="userSpaceOnUse">
<stop stop-color="#272727" stop-opacity="0"/>
<stop offset="0.3227" stop-color="#383838" stop-opacity="0.2259"/>
<stop offset="0.9622" stop-color="#656565" stop-opacity="0.6735"/>
<stop offset="1" stop-color="#686868" stop-opacity="0.7"/>
</linearGradient>
<linearGradient id="paint78_linear" x1="94.7055" y1="26.5235" x2="97.8098" y2="26.5235" gradientUnits="userSpaceOnUse">
<stop stop-color="#272727" stop-opacity="0"/>
<stop offset="0.3227" stop-color="#383838" stop-opacity="0.2259"/>
<stop offset="0.9622" stop-color="#656565" stop-opacity="0.6735"/>
<stop offset="1" stop-color="#686868" stop-opacity="0.7"/>
</linearGradient>
<linearGradient id="paint79_linear" x1="94.7056" y1="26.7151" x2="97.8097" y2="26.7151" gradientUnits="userSpaceOnUse">
<stop stop-color="#272727" stop-opacity="0"/>
<stop offset="0.3227" stop-color="#383838" stop-opacity="0.2259"/>
<stop offset="0.9622" stop-color="#656565" stop-opacity="0.6735"/>
<stop offset="1" stop-color="#686868" stop-opacity="0.7"/>
</linearGradient>
<linearGradient id="paint80_linear" x1="94.7055" y1="27.9391" x2="97.8098" y2="27.9391" gradientUnits="userSpaceOnUse">
<stop stop-color="#272727" stop-opacity="0"/>
<stop offset="0.3227" stop-color="#383838" stop-opacity="0.2259"/>
<stop offset="0.9622" stop-color="#656565" stop-opacity="0.6735"/>
<stop offset="1" stop-color="#686868" stop-opacity="0.7"/>
</linearGradient>
<linearGradient id="paint81_linear" x1="94.7055" y1="26.7114" x2="97.8098" y2="26.7114" gradientUnits="userSpaceOnUse">
<stop stop-color="#272727" stop-opacity="0"/>
<stop offset="0.3227" stop-color="#383838" stop-opacity="0.2259"/>
<stop offset="0.9622" stop-color="#656565" stop-opacity="0.6735"/>
<stop offset="1" stop-color="#686868" stop-opacity="0.7"/>
</linearGradient>
<linearGradient id="paint82_linear" x1="106.136" y1="24.1667" x2="106.136" y2="18.5698" gradientUnits="userSpaceOnUse">
<stop stop-color="#272727" stop-opacity="0"/>
<stop offset="0.2241" stop-color="#2C2C2C" stop-opacity="0.1569"/>
<stop offset="0.5057" stop-color="#3C3C3C" stop-opacity="0.354"/>
<stop offset="0.8168" stop-color="#555555" stop-opacity="0.5717"/>
<stop offset="1" stop-color="#686868" stop-opacity="0.7"/>
</linearGradient>
<linearGradient id="paint83_linear" x1="105.909" y1="24.1648" x2="105.909" y2="18.5699" gradientUnits="userSpaceOnUse">
<stop stop-color="#272727" stop-opacity="0"/>
<stop offset="0.2241" stop-color="#2C2C2C" stop-opacity="0.1569"/>
<stop offset="0.5057" stop-color="#3C3C3C" stop-opacity="0.354"/>
<stop offset="0.8168" stop-color="#555555" stop-opacity="0.5717"/>
<stop offset="1" stop-color="#686868" stop-opacity="0.7"/>
</linearGradient>
<linearGradient id="paint84_linear" x1="105.705" y1="24.1665" x2="105.705" y2="18.5698" gradientUnits="userSpaceOnUse">
<stop stop-color="#272727" stop-opacity="0"/>
<stop offset="0.2241" stop-color="#2C2C2C" stop-opacity="0.1569"/>
<stop offset="0.5057" stop-color="#3C3C3C" stop-opacity="0.354"/>
<stop offset="0.8168" stop-color="#555555" stop-opacity="0.5717"/>
<stop offset="1" stop-color="#686868" stop-opacity="0.7"/>
</linearGradient>
<linearGradient id="paint85_linear" x1="105.458" y1="24.1666" x2="105.458" y2="18.5698" gradientUnits="userSpaceOnUse">
<stop stop-color="#272727" stop-opacity="0"/>
<stop offset="0.2241" stop-color="#2C2C2C" stop-opacity="0.1569"/>
<stop offset="0.5057" stop-color="#3C3C3C" stop-opacity="0.354"/>
<stop offset="0.8168" stop-color="#555555" stop-opacity="0.5717"/>
<stop offset="1" stop-color="#686868" stop-opacity="0.7"/>
</linearGradient>
<linearGradient id="paint86_linear" x1="104.988" y1="24.1667" x2="104.988" y2="18.5698" gradientUnits="userSpaceOnUse">
<stop stop-color="#272727" stop-opacity="0"/>
<stop offset="0.2241" stop-color="#2C2C2C" stop-opacity="0.1569"/>
<stop offset="0.5057" stop-color="#3C3C3C" stop-opacity="0.354"/>
<stop offset="0.8168" stop-color="#555555" stop-opacity="0.5717"/>
<stop offset="1" stop-color="#686868" stop-opacity="0.7"/>
</linearGradient>
<linearGradient id="paint87_linear" x1="104.72" y1="24.1667" x2="104.72" y2="18.5698" gradientUnits="userSpaceOnUse">
<stop stop-color="#272727" stop-opacity="0"/>
<stop offset="0.2241" stop-color="#2C2C2C" stop-opacity="0.1569"/>
<stop offset="0.5057" stop-color="#3C3C3C" stop-opacity="0.354"/>
<stop offset="0.8168" stop-color="#555555" stop-opacity="0.5717"/>
<stop offset="1" stop-color="#686868" stop-opacity="0.7"/>
</linearGradient>
<linearGradient id="paint88_linear" x1="101.615" y1="24.1667" x2="101.615" y2="18.5698" gradientUnits="userSpaceOnUse">
<stop stop-color="#272727" stop-opacity="0"/>
<stop offset="0.2241" stop-color="#2C2C2C" stop-opacity="0.1569"/>
<stop offset="0.5057" stop-color="#3C3C3C" stop-opacity="0.354"/>
<stop offset="0.8168" stop-color="#555555" stop-opacity="0.5717"/>
<stop offset="1" stop-color="#686868" stop-opacity="0.7"/>
</linearGradient>
<linearGradient id="paint89_linear" x1="103.481" y1="24.1667" x2="103.481" y2="18.5734" gradientUnits="userSpaceOnUse">
<stop stop-color="#272727" stop-opacity="0"/>
<stop offset="0.2241" stop-color="#2C2C2C" stop-opacity="0.1569"/>
<stop offset="0.5057" stop-color="#3C3C3C" stop-opacity="0.354"/>
<stop offset="0.8168" stop-color="#555555" stop-opacity="0.5717"/>
<stop offset="1" stop-color="#686868" stop-opacity="0.7"/>
</linearGradient>
<clipPath id="clip0">
<rect width="110.75" height="40" fill="white"/>
</clipPath>
</defs>
</svg>
