<svg width="153" height="300" viewBox="0 0 153 300" fill="none" xmlns="http://www.w3.org/2000/svg">
<g clip-path="url(#clip0)">
<path d="M95.1277 68.9144C97.2359 73.4725 104.732 69.6131 98.1847 63.7462C98.203 63.7706 98.2244 63.7919 98.2427 63.8133C98.2 63.7614 98.1603 63.7126 98.1176 63.6607C98.142 63.6882 98.1634 63.7187 98.1847 63.7462C97.0284 62.0987 94.0141 60.6922 93.05 63.2489C92.4765 65.2808 94.7433 66.614 95.0057 68.4873C94.9813 68.4049 94.9569 68.3225 94.9325 68.2402C94.9965 68.4629 95.0362 68.71 95.1277 68.9144ZM19.5168 74.4183C19.532 74.4335 19.5656 74.4793 19.5778 74.4976C19.3764 74.2139 19.169 73.9332 18.9615 73.6525C19.1476 73.9057 19.3337 74.1589 19.5137 74.4122L19.5107 74.4091C19.5107 74.4091 19.5107 74.4122 19.5168 74.4183C19.5137 74.4152 19.5137 74.4122 19.5137 74.4122C19.5137 74.4122 19.5137 74.4122 19.5168 74.4183C19.5137 74.4152 19.5137 74.4152 19.5168 74.4183ZM96.6959 136.91L96.6806 136.987C96.7722 136.605 96.8698 136.224 96.9705 135.849C96.8789 136.199 96.7844 136.55 96.6989 136.904C96.702 136.892 96.705 136.883 96.7081 136.871C96.702 136.883 96.6989 136.898 96.6959 136.91ZM60.5638 105.709C54.4406 125.604 47.9544 145.425 43.0302 165.662C40.0983 174.318 43.018 183.278 43.0699 192.379C45.7547 184.376 49.2266 176.664 53.1409 169.22C58.8309 149.623 67.4223 130.619 78.9487 113.754C76.093 106.288 79.1653 98.1392 82.5579 91.3783C83.9003 92.6628 85.3648 93.8252 86.9238 94.832C86.9238 94.832 86.9207 94.832 86.9177 94.8289C86.9421 94.8442 86.9665 94.8564 86.9879 94.8686C86.9848 94.8686 86.9818 94.8655 86.9787 94.8625C90.112 96.6076 93.1355 94.7893 91.6161 91.1526C90.5422 88.6325 88.3364 86.7714 86.4906 84.8128C88.4737 81.6245 90.7618 78.6469 93.3429 75.9224C86.6156 79.1289 78.247 83.6443 70.9553 79.7055C70.7692 80.4103 70.1529 80.4805 69.5335 80.3584C68.124 84.0653 66.7023 87.7661 65.4392 91.5278C65.4667 91.4516 65.4911 91.3783 65.5185 91.299C63.9076 96.1195 62.2052 100.903 60.5638 105.709ZM38.3226 185.856C36.3365 197.706 33.9293 209.946 35.7049 221.955C36.9619 214.724 38.9115 207.652 40.739 200.552C41.3735 196.797 40.4644 192.858 40.4339 189.041C40.4339 189.044 40.4339 189.044 40.4339 189.047C40.4034 188.639 40.3698 188.23 40.3393 187.824C40.3393 187.824 40.3393 187.827 40.3393 187.83C40.1288 185.109 39.9061 182.387 39.6772 179.663C39.2013 181.722 38.7528 183.788 38.3226 185.856ZM35.6866 228.188C35.1009 227.684 35.0429 226.806 35.0368 226.08C30.7624 212.469 36.0588 188.382 39.2043 174.269C37.3982 157.626 36.605 140.855 33.6547 124.359C33.4961 124.322 33.3496 124.234 33.2276 124.13C30.4269 130.43 22.2748 136.001 17.1706 128.716C19.8676 126.296 23.7667 124.829 25.0389 121.137C25.7498 119.288 24.3281 116.966 22.2931 116.96C19.1171 117.159 17.0699 120.203 15.1539 122.409C15.1753 122.382 15.1936 122.354 15.215 122.327C14.6719 122.943 14.2478 123.718 13.5705 124.185C11.7949 121.573 10.0711 118.913 8.67074 116.079C10.6264 114.053 13.36 112.817 14.9495 110.444C16.0235 108.796 14.6231 106.493 12.6552 106.749C10.1809 107.341 8.00869 109.11 6.35509 110.996C4.38115 106.154 2.93196 101.123 1.87329 96.0035C3.95402 96.3178 5.62897 94.6123 7.49309 93.9625C21.268 86.8721 6.58086 79.2113 0.835979 90.097C0.0946058 85.124 -0.103704 80.0808 0.048842 75.062C2.93806 73.4908 5.8761 71.224 6.73951 67.8985C7.27647 64.3167 2.97162 63.856 0.747503 65.6621C3.13027 44.8366 19.9805 31.022 34.3808 52.5432C31.5526 53.0161 25.6247 56.1311 28.221 59.5054C30.976 60.9607 34.5273 58.6633 37.566 58.8342C39.1555 62.2848 40.4888 65.8604 41.5352 69.5124C27.9892 71.6724 30.433 84.2453 43.3872 76.4715C44.7723 81.6001 45.4679 86.8752 45.9621 92.1563C36.9894 90.8078 36.3639 99.2406 46.2794 96.8822C46.316 99.4175 46.3008 101.962 46.0903 104.494C45.9713 104.482 45.8523 104.47 45.7333 104.458C45.8248 104.47 45.9194 104.479 46.0109 104.488C37.0321 103.155 32.5381 114.748 44.3055 113.351C42.6366 117.189 41.1264 124.319 35.9612 124.228C38.6765 138.323 39.3721 152.684 40.9922 166.919C46.2611 144.8 53.1501 123.093 60.036 101.434C60.0086 101.51 59.9842 101.584 59.9567 101.66C62.4737 94.4506 64.829 87.1833 67.584 80.0594C64.4751 79.315 63.3707 75.9834 62.0344 73.4511C58.9835 66.7849 59.6364 59.0081 61.5889 52.1191C68.542 59.5176 76.9625 52.3327 64.1822 44.6627C64.8168 43.0213 65.4545 41.3768 66.1836 39.772C66.1562 39.8361 66.1257 39.9002 66.0952 39.9642C66.2996 39.5127 66.507 39.0642 66.7145 38.6127C66.7053 38.631 66.6962 38.6523 66.687 38.6706C67.3735 37.1696 68.2216 35.7418 69.0698 34.3292C69.2071 34.3841 69.3474 34.4329 69.4847 34.4817C71.4709 37.0842 73.6523 39.8483 76.5018 41.5355C79.2507 43.2257 83.4244 41.447 82.8478 37.914C81.606 33.301 76.3157 31.2996 73.0238 28.264C76.2608 24.0537 79.9006 20.1394 83.7722 16.5057C84.2725 16.9267 84.8248 17.2928 85.3312 17.7078C86.0329 20.2126 87.5157 23.4618 90.5147 23.5137C92.4246 23.5503 93.6877 21.5458 93.2483 19.7824C92.6016 16.8383 90.1517 14.7819 88.4645 12.4205C96.7111 6.20275 106.218 -0.661817 117.042 0.0398944C132.346 0.479227 139.137 17.5552 134.421 30.6132C123.279 14.4158 120.295 33.6336 131.159 38.9971C128.904 43.2226 126.314 47.2864 123.126 50.8713C121.485 48.6319 117.695 42.9389 115.721 48.0949C115.511 50.9079 117.582 53.2327 118.961 55.5026C118.065 56.4331 117.128 57.3148 116.207 58.2209C117.268 57.7206 118.342 57.263 119.425 56.8114C119.45 58.3613 120.606 59.545 121.006 61.0034C121.826 62.9316 122.324 65.0916 123.806 66.6506C125.13 68.1547 128.233 69.5887 129.411 67.1998C130.305 65.0062 126.644 57.1653 125.451 54.7551C146.508 48.5678 157.229 66.2723 146.713 84.1446C137.993 78.9641 128.856 90.1519 138.076 96.2568C136.028 98.6883 133.627 100.769 131.238 102.856C131.19 102.807 131.138 102.755 131.089 102.706C130.735 99.3382 129.026 96.1927 126.738 93.7459C124.45 91.8909 121.921 94.8594 123.196 97.1812C124.502 100.205 126.116 103.103 126.927 106.31C125.28 107.502 123.608 108.668 121.869 109.724C120.078 105.889 114.812 97.3307 110.291 102.444C108.958 106.59 112.216 110.559 113.924 114.12C112.204 114.965 110.486 115.813 108.747 116.622C108.768 116.613 108.79 116.6 108.814 116.591C108.582 116.698 108.35 116.805 108.119 116.915C108.122 116.915 108.125 116.915 108.128 116.911C103.487 119.035 98.6668 121.277 93.4558 121.067C92.6565 121.25 91.6527 121.235 91.4666 120.246C87.6072 120.432 83.2688 119.459 80.6053 116.484C71.4465 129.588 65.1128 144.486 59.1299 159.243C65.2409 149.779 72.377 140.828 81.0264 133.56C80.9897 133.588 80.9562 133.618 80.9196 133.646C85.9414 129.609 91.8297 126.421 98.2702 125.488C105.699 116.982 118.068 117.336 128.172 119.843C124.685 123.99 127.449 130.159 132.926 130.055C135.851 129.954 138.515 128.569 141.16 127.443C144.961 131.773 147.875 136.834 149.318 142.432C146.484 142.924 143.616 143.561 141.197 145.2C137.133 147.332 134.64 153.535 140.095 155.634C143.988 157.351 147.994 154.804 151.93 155.5C152.326 160.106 151.951 164.771 151.121 169.311C148.894 169.656 146.67 168.612 144.464 169.4C136.236 171.346 139.766 183.232 147.829 180.615C143.717 191.192 131.739 198.63 120.423 196.119C121.5 189.74 113.735 182.534 108.677 188.718C106.471 186.231 104.531 183.498 102.795 180.667C105.867 179.144 109.58 177.982 111.542 174.986C113.485 172.066 110.123 169.04 107.164 169.369C104.061 169.497 101.391 171.239 98.8224 172.81C97.4586 169.644 96.403 166.355 95.6128 163.002C114.443 156.515 109.574 141.264 93.7365 149.965C93.6938 144.019 94.5785 138.027 96.7752 132.483C94.905 132.813 95.3016 129.188 96.0277 128.212C82.4603 132.041 73.3685 144.062 65.3599 154.926C61.6439 160.006 58.3702 165.415 55.4383 170.98C52.9548 178.986 50.6392 187.046 49.4768 195.366C49.4768 195.348 49.4798 195.329 49.4829 195.311C49.4768 195.357 49.4676 195.406 49.4615 195.451C49.4615 195.451 49.4615 195.448 49.4615 195.445C49.4371 195.589 49.4158 195.732 49.3944 195.878C49.3944 195.878 49.3944 195.875 49.3944 195.872C49.19 197.16 48.9917 198.444 48.7873 199.732C48.7873 199.732 48.7873 199.732 48.7873 199.729C48.7873 199.735 48.7842 199.744 48.7842 199.75C48.7842 199.747 48.7842 199.741 48.7873 199.738C48.7873 199.753 48.7842 199.768 48.7812 199.784C48.7812 199.781 48.7812 199.774 48.7812 199.771C48.7659 199.866 48.7507 199.958 48.7385 200.052C48.7385 200.052 48.7385 200.052 48.7385 200.049C47.692 206.429 47.1276 212.878 47.0483 219.346C47.0483 219.334 47.0483 219.319 47.0483 219.306C46.8194 221.674 47.5883 224.362 46.4442 226.531C43.7472 228.654 44.8272 221.915 44.7662 220.692C44.7662 220.82 44.7662 220.951 44.7662 221.082C44.7967 208.708 46.5754 196.409 48.9795 184.294C46.9476 189.432 44.8455 194.56 43.4207 199.909C43.6495 206.435 43.9272 212.958 43.9851 219.483C43.7533 221.448 44.6472 224.038 43.0821 225.564C40.7268 225.942 41.9258 221.412 41.7183 220.026C41.6969 215.932 41.4925 211.847 41.3522 207.756C40.8823 209.51 40.3698 211.255 39.9152 213.012C39.9427 212.906 39.9671 212.796 39.9945 212.689C39.0121 216.786 38.0358 220.89 37.3311 225.048C37.1297 225.991 37.2121 228.749 35.6866 228.188Z" fill="black"/>
<path d="M68.8959 78.3536C67.8738 75.9037 74.7842 65.1767 76.212 62.138C76.2028 62.1532 76.1967 62.1654 76.1906 62.1807C76.2028 62.1563 76.215 62.1349 76.2303 62.1105C76.2303 62.1105 76.2303 62.1136 76.2273 62.1136C88.7177 40.1592 104.885 20.1451 123.941 3.67322C124.783 3.49627 124.722 5.16817 124.304 5.58615C122.272 7.31907 120.203 9.03674 118.205 10.8276C118.226 10.8093 118.248 10.791 118.269 10.7727C101.931 25.6551 88.4096 43.384 77.1242 62.3332C77.1364 62.3088 77.1517 62.2875 77.1639 62.2631C76.4835 63.4865 75.7544 64.6825 75.0496 65.8906C75.0618 65.8693 75.074 65.8479 75.0862 65.8235C73.9513 67.9256 72.859 70.0551 71.6539 72.1206C71.66 72.1114 71.6631 72.1023 71.6692 72.0931C71.66 72.1114 71.6478 72.1328 71.6387 72.1511C71.6417 72.1481 71.6417 72.145 71.6448 72.142C70.7173 73.9603 69.6159 75.7542 69.0789 77.7343C69.14 77.9173 69.1613 78.3628 68.8959 78.3536Z" fill="white"/>
<path d="M93.8463 36.2416C93.709 36.1867 93.6358 36.0433 93.587 35.9091C93.2453 35.6131 92.9067 35.3111 92.5711 35.0121C92.5833 35.0243 92.5955 35.0335 92.6077 35.0457C92.5314 34.9785 92.4521 34.9084 92.3758 34.8413C92.388 34.8535 92.4002 34.8626 92.4124 34.8748C91.6863 34.2341 90.9907 33.5538 90.2737 32.9039C90.2859 32.9131 90.2951 32.9222 90.3073 32.9314C89.572 32.2846 88.8276 31.65 88.0953 30.9971L88.0984 31.0001C87.5584 30.5242 87.0519 30.0086 86.518 29.5296C86.5272 29.5357 86.5333 29.5418 86.5424 29.551C86.4143 29.435 86.28 29.3221 86.1519 29.2062C86.155 29.2093 86.1611 29.2123 86.1641 29.2184C86.155 29.2123 86.1489 29.2062 86.1397 29.1971C86.0055 29.0811 85.8743 28.9621 85.74 28.8431C85.7431 28.8431 85.7431 28.8462 85.7461 28.8462C85.7278 28.8309 85.7095 28.8157 85.6912 28.8004C85.6943 28.8035 85.6943 28.8035 85.6973 28.8065C85.6912 28.8004 85.6821 28.7943 85.676 28.7882C85.676 28.7882 85.679 28.7882 85.679 28.7913C85.6363 28.7516 85.5936 28.715 85.5478 28.6753C85.5509 28.6784 85.5509 28.6784 85.5539 28.6814C85.5478 28.6753 85.5387 28.6692 85.5326 28.6631C85.4746 28.6143 85.4197 28.5625 85.3617 28.5106C85.3678 28.5167 85.377 28.5228 85.3831 28.5289C85.3709 28.5167 85.3587 28.5075 85.3465 28.4953L85.3495 28.4984C84.7088 27.934 84.1078 27.3268 83.4701 26.7624C83.4762 26.7685 83.4824 26.7746 83.4885 26.7777C82.3138 25.5085 79.9738 24.6207 79.6534 22.8542C79.7694 22.6528 79.8701 22.9335 79.9311 23.0342C79.928 23.025 79.9219 23.0159 79.9189 23.0067C81.1087 24.5627 82.8996 25.539 84.2786 26.918C84.2725 26.9119 84.2664 26.9058 84.2603 26.9028C85.2946 27.8302 86.4143 28.657 87.4577 29.5754C87.4547 29.5723 87.4547 29.5723 87.4516 29.5693C89.5537 31.2869 91.5917 33.0961 93.7304 34.7619C94.423 34.3806 94.487 36.2965 93.8463 36.2416Z" fill="white"/>
<path d="M109.321 18.0425C106.523 14.6285 103.713 11.2481 100.61 8.09341L100.613 8.09647C100.595 8.07206 100.574 8.04765 100.555 8.02019C100.555 8.02019 100.555 8.02324 100.558 8.02324C100.552 8.01714 100.546 8.00799 100.54 7.99884C100.543 8.00189 100.546 8.00799 100.549 8.01104C100.345 7.8768 100.226 7.43747 100.488 7.31543C100.784 7.57476 100.995 7.97748 101.342 8.2124C101.339 8.2124 101.339 8.20935 101.336 8.20935C101.431 8.29478 101.529 8.37715 101.623 8.46258C101.62 8.46258 101.62 8.45952 101.62 8.45952C101.623 8.46258 101.626 8.46563 101.632 8.46868L101.629 8.46563C101.654 8.48698 101.681 8.51139 101.705 8.53275C101.702 8.5297 101.699 8.52665 101.696 8.52665C104.613 11.0986 107.023 14.1068 109.537 17.0387C109.531 17.0326 109.525 17.0265 109.519 17.0235C109.812 17.2096 109.793 18.2835 109.321 18.0425Z" fill="white"/>
<path d="M124.78 39.4883C121.82 36.5075 119.047 33.3498 115.956 30.5033C115.969 30.5155 115.984 30.5277 115.999 30.5399C112.881 27.8063 109.79 25.0117 107.151 21.8052C106.801 21.7747 106.752 20.9784 107.078 20.8594C108.512 22.0736 109.787 23.6449 111.23 24.911C111.221 24.9018 111.212 24.8957 111.203 24.8866C112.497 25.9697 113.723 27.129 114.956 28.2792C114.956 28.2792 114.956 28.2792 114.953 28.2762C115.691 28.9443 127.303 39.7903 124.78 39.4883Z" fill="white"/>
<path d="M102.383 34.3531C101.458 33.2884 100.522 32.2328 99.6186 31.1466C99.6278 31.1558 99.637 31.1619 99.6461 31.1741C99.6186 31.1375 99.579 31.1131 99.5332 31.107H99.5363C99.3105 30.9849 99.3075 30.4388 99.5454 30.332C99.5393 30.332 99.5363 30.332 99.5332 30.3351C100.625 30.8934 101.391 32.2511 102.456 32.9863C102.92 33.1938 103.03 34.585 102.383 34.3531Z" fill="white"/>
<path d="M104.521 57.7506C100.232 52.9912 94.7402 49.4918 89.9381 45.2937C89.9381 45.2937 89.9381 45.2937 89.9411 45.2937C89.7184 45.1015 89.4896 44.9124 89.2364 44.7598C89.2516 44.769 89.2638 44.7751 89.2791 44.7812C88.8031 44.6774 88.7635 43.753 89.1814 43.5791C90.7893 44.6652 92.2751 46.0168 93.8982 47.1273C95.1613 48.3019 107.38 56.7652 104.521 57.7506Z" fill="white"/>
<path d="M81.5358 54.733C79.9768 52.9299 77.9785 51.5784 76.2883 49.9034L76.2913 49.9065C75.5865 49.3115 74.8513 48.7532 74.1618 48.14L74.1648 48.143C73.756 47.78 73.3685 47.3955 72.9689 47.0264L72.9719 47.0294C72.5661 46.4345 70.7081 45.8243 71.2207 45.0372C71.2939 45.0341 71.3031 45.1257 71.3549 45.1623C71.3519 45.1592 71.3519 45.1592 71.3488 45.1562C72.1604 46.0836 84.5837 54.5927 81.5358 54.733Z" fill="white"/>
<path d="M81.0629 71.4214C78.5947 69.6946 76.0259 67.6169 74.1984 65.3287C74.1648 65.1487 74.3509 64.7673 74.5065 65.0602C75.0984 65.6918 75.8764 66.2287 76.4896 66.8786C76.4988 66.8877 76.5079 66.8938 76.5171 66.903C76.514 66.8999 76.514 66.8999 76.511 66.8969C76.5201 66.906 76.5293 66.9121 76.5384 66.9213C76.5354 66.9213 76.5354 66.9182 76.5323 66.9182C76.5415 66.9274 76.5506 66.9335 76.5598 66.9427C76.5598 66.9427 76.5598 66.9427 76.5567 66.9396C78.0059 68.2332 79.5588 69.4078 81.2216 70.4115C81.4839 70.6068 81.4931 71.5129 81.0629 71.4214Z" fill="white"/>
<path d="M66.626 68.8559C66.3179 68.0962 66.208 66.5921 67.1386 66.2656C68.4413 66.4304 67.8159 70.5888 66.626 68.8559Z" fill="white"/>
<path d="M66.565 64.7191C66.3362 64.4171 66.5619 63.2181 66.9891 63.8313C67.2179 64.1334 66.9921 65.3354 66.565 64.7191Z" fill="white"/>
<path d="M70.4091 62.6227C70.1773 62.3145 70.403 61.085 70.8454 61.7135C71.0773 62.0216 70.8485 63.2481 70.4091 62.6227Z" fill="white"/>
<path d="M98.8498 23.7419C98.5508 23.0096 98.4471 21.5574 99.344 21.2432C100.601 21.4018 100 25.4168 98.8498 23.7419Z" fill="white"/>
<path d="M107.432 29.3008C107.307 29.1361 107.429 28.4771 107.664 28.8127C107.789 28.9774 107.667 29.6364 107.432 29.3008Z" fill="white"/>
<path d="M82.5731 112.872C81.3924 111.596 84.724 109.58 85.4044 108.466C88.6262 104.997 91.909 101.577 95.4419 98.4226C95.4389 98.4256 95.4358 98.4287 95.4328 98.4317C95.448 98.4165 95.4633 98.4043 95.4785 98.3921L95.4755 98.3951C95.6555 98.2365 95.8325 98.0778 96.0125 97.9192C96.0064 97.9253 96.0003 97.9283 95.9942 97.9344C111.032 84.4555 127.898 73.0206 145.974 64.0174C145.959 64.0265 145.941 64.0326 145.925 64.0418C146.469 63.8191 146.957 63.3675 147.524 63.2607C148.333 64.1852 147.372 64.7923 146.52 65.1126C139.183 68.7005 132.111 72.8315 125.179 77.1485C109.525 87.1799 95.1185 99.0724 82.683 112.875C82.6464 112.884 82.6098 112.884 82.5731 112.872Z" fill="white"/>
<path d="M105.113 90.6673C104.241 89.7398 103.75 88.495 102.962 87.4912C102.966 87.4943 102.966 87.4973 102.969 87.5004C100.671 84.6813 98.2976 81.8989 95.7501 79.3056C95.3138 78.8388 94.5663 78.311 94.6731 77.6032C94.7372 77.3195 94.9629 77.3683 95.024 77.6306C98.5813 81.3772 102.441 84.962 105.168 89.4103C105.574 89.5323 105.647 90.7557 105.113 90.6673Z" fill="white"/>
<path d="M118.913 80.5348C117.088 77.2825 115.068 74.1706 112.753 71.2325C112.756 71.2356 112.756 71.2386 112.759 71.2417C112.664 71.1166 112.567 70.9915 112.472 70.8664L112.475 70.8695C111.352 69.1823 109.363 67.7667 108.82 65.8232C110.892 68.1175 113.394 71.4736 115.566 74.1614C115.566 74.1614 115.566 74.1614 115.566 74.1584C115.599 74.2041 115.636 74.2499 115.67 74.2926C115.666 74.2865 115.66 74.2835 115.657 74.2774C116.579 75.4489 117.457 76.651 118.113 77.9934C118.104 77.9781 118.095 77.9629 118.086 77.9476C118.4 78.4937 118.73 79.0368 119.108 79.5432C119.105 79.5402 119.105 79.5371 119.102 79.5371C119.373 79.7416 119.373 80.7636 118.913 80.5348Z" fill="white"/>
<path d="M112.31 84.0067C111.572 82.8076 110.803 81.6269 109.977 80.4828C109.977 80.4859 109.98 80.4859 109.98 80.4889C109.632 79.7506 104.518 74.8691 105.861 74.9119C105.858 74.9058 105.855 74.8997 105.852 74.8936C105.989 75.1102 106.148 75.3146 106.297 75.522C106.291 75.5129 106.285 75.5068 106.279 75.4976C108.405 78.0116 110.724 80.3455 112.545 83.1066C112.533 83.0914 112.524 83.0792 112.512 83.067C112.811 83.2561 112.762 84.3728 112.31 84.0067Z" fill="white"/>
<path d="M118.464 99.9091C117.708 98.7467 116.917 97.6056 116.081 96.4981C116.094 96.5134 116.106 96.5317 116.118 96.547C116.06 96.4737 116.005 96.3975 115.947 96.3242C115.959 96.3395 115.972 96.3547 115.984 96.37C115.462 95.6957 114.946 95.0123 114.431 94.3289C114.443 94.3442 114.452 94.3564 114.464 94.3717C114.449 94.3533 114.434 94.332 114.419 94.3137C114.431 94.3289 114.44 94.3411 114.452 94.3564C114.367 94.2435 114.278 94.1276 114.193 94.0147C114.205 94.0299 114.214 94.0422 114.226 94.0574C114.199 94.0208 114.172 93.9842 114.144 93.9476C114.153 93.9567 114.159 93.9689 114.168 93.9781C114.156 93.9628 114.147 93.9506 114.135 93.9354C114.135 93.9384 114.138 93.9384 114.138 93.9415C113.943 93.6913 113.754 93.435 113.561 93.1818C113.574 93.194 113.583 93.2092 113.592 93.2214C112.915 92.3672 112.271 91.4885 111.612 90.619C111.618 90.6251 111.621 90.6312 111.627 90.6373C111.618 90.6282 111.612 90.616 111.603 90.6068C111.606 90.6099 111.606 90.6099 111.606 90.6129C111.017 89.8685 110.419 89.1241 109.842 88.3674C109.848 88.3735 109.854 88.3796 109.858 88.3888C109.595 88.0684 109.293 87.7786 109.003 87.4827C109.006 87.4857 109.012 87.4918 109.015 87.4949C108.774 87.2416 108.234 87.1013 108.402 86.662C108.433 86.5735 108.509 86.5125 108.576 86.604C109.278 87.0769 109.812 87.7542 110.379 88.3766C111.182 89.4475 121.155 100.12 118.464 99.9091Z" fill="white"/>
<path d="M129.155 81.2156C128.651 80.697 124.224 75.602 126.037 75.7026C127.04 77.2434 128.096 78.7871 129.438 80.0777C129.716 80.3278 129.67 81.4841 129.155 81.2156Z" fill="white"/>
<path d="M97.6051 110.562C96.0003 108.207 94.3162 105.882 92.5771 103.612C92.5802 103.615 92.5802 103.618 92.5832 103.618C92.4124 103.313 92.0158 103.109 91.9791 102.752C91.9395 102.017 92.51 102.496 92.7327 102.834C93.3551 103.981 99.3014 109.983 97.6051 110.562Z" fill="white"/>
<path d="M101.19 97.7978C100.934 96.9741 99.3929 95.9276 99.8597 95.1191C100.226 95.9948 101.617 96.6599 101.474 97.7063C101.443 97.8436 101.278 97.9595 101.19 97.7978Z" fill="white"/>
<path d="M97.9925 91.3686C97.7576 91.0604 97.9864 89.84 98.4257 90.4624C98.6576 90.7675 98.4288 91.991 97.9925 91.3686Z" fill="white"/>
<path d="M131.995 189.404C131.473 184.87 129.92 180.529 129.158 176.028C129.164 176.062 129.173 176.096 129.179 176.126C128.224 171.519 127.248 166.903 126.027 162.36C126.03 162.373 126.037 162.388 126.04 162.4C125.93 162.034 125.823 161.668 125.716 161.302C125.719 161.308 125.719 161.314 125.722 161.32C125.713 161.289 125.704 161.259 125.695 161.228C125.698 161.241 125.701 161.256 125.707 161.268C125.71 161.28 125.713 161.289 125.716 161.302C124.996 159.084 124.185 156.899 123.309 154.739C123.321 154.767 123.33 154.794 123.343 154.822C123.312 154.742 123.279 154.663 123.245 154.584C123.251 154.599 123.257 154.614 123.263 154.629C123.242 154.577 123.221 154.526 123.199 154.474C123.202 154.483 123.208 154.495 123.211 154.504C123.175 154.416 123.138 154.327 123.102 154.236C123.114 154.263 123.123 154.291 123.135 154.318C123.083 154.187 123.028 154.056 122.976 153.928C122.989 153.955 122.998 153.983 123.01 154.01C122.876 153.68 122.742 153.357 122.607 153.028C122.62 153.055 122.629 153.083 122.641 153.107C122.613 153.04 122.586 152.976 122.558 152.909C122.562 152.915 122.562 152.918 122.565 152.924C122.531 152.838 122.497 152.756 122.461 152.671C122.461 152.674 122.464 152.677 122.464 152.68C121.341 149.952 119.953 147.347 118.479 144.796C118.492 144.821 118.507 144.842 118.519 144.866C118.171 144.244 117.827 143.625 117.482 143.002C117.485 143.008 117.488 143.011 117.491 143.018C115.355 139.302 112.588 135.888 109.4 133.023C109.403 133.026 109.409 133.032 109.412 133.035C108.997 132.672 108.588 132.309 108.18 131.946C108.189 131.955 108.201 131.964 108.21 131.973C106.593 130.469 104.68 129.371 102.718 128.379C102.737 128.388 102.758 128.398 102.776 128.407C101.693 127.87 100.583 127.385 99.4508 126.957C98.8681 127.241 98.6454 126.241 98.7949 125.819C99.1702 124.59 101.681 126.475 102.514 126.686C102.496 126.677 102.477 126.665 102.459 126.655C102.529 126.692 102.599 126.729 102.67 126.765C102.66 126.759 102.651 126.756 102.642 126.75C102.734 126.799 102.825 126.845 102.914 126.89C102.895 126.881 102.874 126.872 102.856 126.863C109.583 130.268 114.791 136.33 118.412 142.847C118.574 143.133 118.733 143.423 118.894 143.71C118.879 143.686 118.867 143.664 118.855 143.64C118.888 143.701 118.922 143.762 118.958 143.826C118.946 143.802 118.931 143.78 118.919 143.756C120.426 146.355 121.832 149.016 122.976 151.795C122.97 151.783 122.964 151.768 122.961 151.755C123.108 152.109 123.254 152.466 123.401 152.82C123.388 152.793 123.376 152.765 123.367 152.741C124.42 155.288 125.429 157.857 126.268 160.484C126.268 160.481 126.265 160.478 126.265 160.472C126.375 160.838 126.482 161.204 126.589 161.57C126.586 161.564 126.586 161.558 126.583 161.552C127.76 165.881 128.682 170.277 129.591 174.668C129.585 174.634 129.576 174.601 129.57 174.57C129.64 174.915 129.713 175.26 129.78 175.604C129.777 175.595 129.777 175.583 129.774 175.574C129.838 175.879 129.902 176.184 129.96 176.492C129.957 176.483 129.957 176.477 129.954 176.468C129.957 176.483 129.96 176.498 129.963 176.514C129.963 176.511 129.96 176.504 129.96 176.501C129.963 176.514 129.966 176.529 129.969 176.541C129.969 176.538 129.969 176.535 129.969 176.532C130.704 180.574 131.983 184.495 132.572 188.562C132.569 188.537 132.562 188.513 132.556 188.488C132.929 189.065 132.382 190.78 131.995 189.404Z" fill="white"/>
<path d="M101.123 165.567C100.882 165.286 100.836 164.368 101.321 164.362L101.318 164.359C101.345 164.371 101.373 164.377 101.403 164.38C101.394 164.377 101.385 164.377 101.376 164.374C105.9 162.977 109.845 159.737 113.979 157.406C116.585 155.649 119.743 154.413 122.052 152.399C122.681 152.613 122.537 154.16 121.857 154.175C121.228 154.529 120.548 154.776 119.91 155.121C119.913 155.121 119.913 155.118 119.916 155.118C119.901 155.124 119.889 155.133 119.874 155.139C119.52 155.322 119.163 155.499 118.809 155.679C118.821 155.673 118.836 155.664 118.849 155.658C112.835 158.635 107.484 163.05 101.321 165.625C101.324 165.622 101.327 165.622 101.327 165.619C101.251 165.65 101.187 165.631 101.123 165.567Z" fill="white"/>
<path d="M118.641 141.572C118.357 141.606 118.333 140.892 118.614 140.992C123.367 139.375 127.827 136.846 132.532 135.052C132.913 135.031 132.889 135.76 132.666 135.943C131.141 136.55 129.67 137.304 128.145 137.914C124.972 139.076 121.939 140.846 118.641 141.572Z" fill="white"/>
<path d="M100.555 139.397C101.141 137.548 107.682 134.97 109.708 134.119C110.08 134.272 110.016 135.147 109.534 135.108C109.546 135.105 109.559 135.105 109.571 135.102C106.45 136.081 103.499 137.616 100.796 139.449C100.738 139.596 100.58 139.525 100.555 139.397Z" fill="white"/>
<path d="M126.879 162.72C126.323 161.253 129.795 160.868 130.765 160.347C131.125 160.347 131.107 160.92 131.052 161.173C130.817 161.802 129.862 161.68 129.325 161.942C128.648 161.927 127.236 163.129 126.879 162.72Z" fill="white"/>
<path d="M120.505 173.188C120.466 172.932 120.722 172.898 120.896 172.8C120.89 172.803 120.881 172.806 120.874 172.813C121.234 172.623 121.591 172.431 121.951 172.245H121.948C123.773 171.244 125.823 170.613 127.513 169.396C127.885 169.408 127.882 170.326 127.507 170.354C127.519 170.35 127.532 170.35 127.544 170.347C125.881 171.247 124.005 171.76 122.299 172.605C122.302 172.605 122.302 172.602 122.305 172.602C122.211 172.651 122.119 172.7 122.025 172.748H122.028C121.649 172.819 120.557 173.862 120.505 173.188Z" fill="white"/>
<path d="M125.869 149.672C125.689 149.233 125.625 148.36 126.165 148.171C126.934 148.293 126.564 150.63 125.869 149.672Z" fill="white"/>
<path d="M129.701 146.923C129.579 146.627 129.536 146.038 129.902 145.91C130.421 145.993 130.171 147.57 129.701 146.923Z" fill="white"/>
<path d="M130.558 154.795C130.177 153.861 130.042 152.009 131.187 151.606C132.791 151.808 132.022 156.927 130.558 154.795Z" fill="white"/>
<path d="M137.697 160.625C137.325 159.707 137.191 157.892 138.316 157.495C139.891 157.696 139.137 162.724 137.697 160.625Z" fill="white"/>
<path d="M34.2771 120.719C31.937 107.231 28.6847 93.8157 24.9504 80.6235C24.9535 80.6296 24.9535 80.6357 24.9565 80.6418C24.685 79.7326 24.4226 78.8204 24.148 77.9112C24.1572 77.9387 24.1633 77.9661 24.1724 77.9905C24.0717 77.6488 23.968 77.3071 23.8704 76.9654C23.8704 76.9685 23.8704 76.9685 23.8704 76.9715C23.8612 76.9441 23.8551 76.9197 23.846 76.8922C23.846 76.8953 23.849 76.8983 23.849 76.9014C23.7575 76.5871 23.6629 76.2729 23.5744 75.9586C23.5744 75.9617 23.5775 75.9678 23.5775 75.9708C23.5683 75.9434 23.5622 75.919 23.5531 75.8915C23.5561 75.9007 23.5592 75.9098 23.5622 75.919C21.8903 70.6683 20.2245 65.4146 18.7692 60.0999V60.103C18.7021 59.8772 18.635 59.6484 18.5679 59.4196C18.5709 59.4318 18.577 59.444 18.5801 59.4592C17.558 56.2527 16.658 53.0066 15.4865 49.8519C15.4895 49.858 15.4926 49.8641 15.4956 49.8702C15.4895 49.855 15.4834 49.8428 15.4773 49.8275C15.4804 49.8336 15.4834 49.8397 15.4834 49.8458C15.1478 48.9549 14.4095 48.1403 14.6017 47.1305C14.62 47.042 14.6902 46.7979 14.8305 46.8925C15.0807 47.0939 14.8458 47.463 14.9708 47.7132C14.9678 47.698 14.9617 47.6796 14.9586 47.6644C16.8777 51.7282 17.9608 56.1429 19.3672 60.405C19.3855 60.4722 19.4069 60.5393 19.4252 60.6064C19.4282 60.6186 19.4313 60.6278 19.4343 60.64C19.4343 60.6369 19.4343 60.6369 19.4343 60.6339C19.4374 60.643 19.4404 60.6552 19.4435 60.6644C19.4435 60.6613 19.4435 60.6613 19.4404 60.6583C19.831 62.0129 20.2306 63.3644 20.6425 64.7099C20.6425 64.7068 20.6425 64.7068 20.6425 64.7038C20.6456 64.7129 20.6486 64.7221 20.6517 64.7343C20.6517 64.7312 20.6486 64.7251 20.6486 64.7221C21.9483 69.1368 23.5439 73.4599 24.8375 77.8777C24.8314 77.8502 24.8223 77.8227 24.8131 77.7953C24.868 77.9753 24.9199 78.1553 24.9748 78.3353C24.9718 78.3292 24.9718 78.3231 24.9687 78.317C28.4895 89.4651 30.8844 100.885 33.3221 112.301C33.551 112.969 36.2053 123.519 34.2771 120.719Z" fill="white"/>
<path d="M17.3353 112.276C17.2316 111.807 17.4726 111.407 17.9272 111.27C17.9242 111.27 17.9211 111.273 17.9181 111.276C18.0676 111.199 18.2201 111.12 18.3696 111.044C18.3635 111.047 18.3574 111.05 18.3513 111.053C20.6975 109.842 22.9429 108.451 25.2708 107.206C25.2555 107.215 25.2403 107.221 25.225 107.23C25.3135 107.184 25.405 107.139 25.4935 107.093C25.4904 107.093 25.4874 107.096 25.4874 107.096C25.4935 107.093 25.5027 107.09 25.5088 107.084C25.5057 107.087 25.5027 107.087 25.4996 107.09C27.1379 106.449 28.7885 105.418 30.4879 105.101C30.8265 105.473 30.5489 106.068 30.0912 106.19C30.0973 106.187 30.1004 106.184 30.1065 106.184C30.0455 106.214 29.9845 106.248 29.9234 106.278L29.9265 106.275C29.9143 106.281 29.899 106.29 29.8868 106.297H29.8899C29.8685 106.309 29.8472 106.318 29.8258 106.33C29.8289 106.33 29.8289 106.327 29.8319 106.327C29.8258 106.33 29.8197 106.333 29.8167 106.336C29.8167 106.336 29.8197 106.336 29.8197 106.333C25.9054 108.072 22.2412 110.257 18.4794 112.292C18.4947 112.282 18.5099 112.276 18.5252 112.267C18.1225 112.435 17.4147 113.07 17.3353 112.276Z" fill="white"/>
<path d="M23.007 93.7087C22.8422 93.4128 22.8178 92.8789 23.126 92.6714C24.627 92.1527 25.887 91.1734 27.2813 90.4442C27.9067 90.0141 28.4285 90.7188 27.9373 91.1917C26.3386 91.8263 25.0389 93.0863 23.4127 93.7148C23.4188 93.7118 23.4249 93.7087 23.431 93.7026C23.2877 93.7819 23.1076 93.904 23.007 93.7087Z" fill="white"/>
<path d="M5.82423 79.1866C5.82118 78.7961 6.40696 78.8144 6.66323 78.5948H6.66018C7.87445 77.948 9.18329 77.5147 10.4006 76.8771C10.3976 76.8771 10.3945 76.8802 10.3915 76.8802C13.9763 74.772 17.6435 72.7645 21.4449 71.1475C22.0155 71.3488 21.9972 72.7461 21.3137 72.7889C21.326 72.7858 21.3412 72.7828 21.3534 72.7828C21.3504 72.7828 21.3443 72.7828 21.3412 72.7858C21.3534 72.7858 21.3626 72.7828 21.3748 72.7797C21.3229 72.7919 21.268 72.7858 21.2192 72.8072C21.2253 72.8041 21.2314 72.8011 21.2375 72.798C18.8242 73.6889 16.3743 74.5309 14.1258 75.8123C14.1258 75.8123 14.1288 75.8123 14.1288 75.8093C14.1166 75.8154 14.1044 75.8215 14.0922 75.8276C14.0953 75.8276 14.0953 75.8245 14.0983 75.8245C14.0648 75.8398 14.0343 75.8581 14.0007 75.8733C14.0037 75.8733 14.0037 75.8703 14.0068 75.8703C13.9122 75.9191 13.8146 75.9679 13.72 76.0167C11.5447 77.2585 9.16499 78.009 6.889 79.0127C6.89205 79.0127 6.89205 79.0097 6.8951 79.0097C6.889 79.0127 6.8829 79.0158 6.8768 79.0188C6.8768 79.0188 6.87985 79.0188 6.87985 79.0158C6.58391 79.1012 5.84559 79.7907 5.82423 79.1866Z" fill="white"/>
<path d="M21.2771 68.2157C23.367 66.855 26.3508 66.0099 28.7854 64.939C29.658 64.8505 33.4686 62.242 32.5472 64.4539C29.1119 65.6865 25.6338 66.9343 22.2137 68.2462C21.9209 68.3011 21.2741 68.7649 21.2771 68.2157Z" fill="white"/>
<path d="M26.9915 86.0331C27.3546 85.1545 30.2407 84.5961 31.2292 84.0531C31.7479 83.9768 32.4344 83.3636 32.8828 83.6198C33.0445 83.9127 33.075 84.4589 32.7639 84.6572C30.9058 85.0385 29.0631 85.5908 27.3149 86.3321C27.0983 86.506 26.9732 86.2192 26.9915 86.0331Z" fill="white"/>
<path d="M13.5766 101.312C13.1342 100.235 12.9817 98.0966 14.3027 97.6328C16.1546 97.8677 15.2668 103.777 13.5766 101.312Z" fill="white"/>
<path d="M16.3194 95.759C16.1088 95.2465 16.0356 94.2305 16.6672 94.0078C17.5489 94.1237 17.1248 96.9336 16.3194 95.759Z" fill="white"/>
<path d="M21.2131 100.303C21.1185 100.174 21.21 99.6741 21.39 99.9304C21.4877 100.059 21.3931 100.559 21.2131 100.303Z" fill="white"/>
<path d="M37.4867 90.817C37.1389 90.3593 37.4775 88.5349 38.1334 89.4624C38.4812 89.92 38.1426 91.7444 37.4867 90.817Z" fill="white"/>
<path d="M10.1352 58.9712C9.94601 58.5075 9.87889 57.5831 10.4494 57.3848C11.261 57.5099 10.8674 59.9841 10.1352 58.9712Z" fill="white"/>
<path d="M18.6869 53.208C18.4519 52.6313 18.3696 51.4903 19.0743 51.2432C20.0628 51.3683 19.593 54.526 18.6869 53.208Z" fill="white"/>
<path d="M37.2975 299.997C32.3916 300.027 27.5315 299.387 22.6653 298.871C21.033 298.56 19.056 298.984 17.619 298.173C15.1905 292.187 14.324 285.542 13.6681 279.123C13.0122 264.115 11.0352 249.12 12.3074 234.091C12.6765 232.758 12.3959 225.188 13.7993 225.655C14.0891 225.387 14.5193 225.371 14.8793 225.701C28.88 224.261 42.7861 221.399 56.924 221.326C61.0763 221.424 65.5551 220.89 69.4511 222.571C71.6173 224.661 70.8423 228.279 71.0193 231.022C71.0193 230.982 71.0193 230.945 71.0193 230.906C71.0193 231.089 71.0193 231.269 71.0193 231.452C71.0193 231.351 71.0193 231.251 71.0193 231.153C70.7325 239.726 70.4549 248.308 69.8721 256.869C69.8721 256.866 69.8721 256.863 69.8721 256.863C68.7708 270.049 67.1873 283.339 63.871 296.156C63.4439 297.816 61.6408 297.581 60.3014 297.785C56.4511 298.307 52.5948 298.801 48.7567 299.411C48.8299 299.402 48.9032 299.393 48.9764 299.384C45.1017 299.875 41.1935 299.997 37.2975 299.997Z" fill="#EA9A00"/>
<g clip-path="url(#clip1)">
<path d="M127.945 227.395C127.341 227.746 126.925 229.205 127.966 229.173C129.172 229.081 129.449 226.513 127.945 227.395Z" fill="#EA9A00"/>
<path d="M129.29 225.295C128.756 225.605 128.391 226.89 129.308 226.864C130.372 226.784 130.617 224.52 129.29 225.295Z" fill="#EA9A00"/>
<path d="M130.829 222.494C130.251 222.83 129.853 224.221 130.85 224.192C131.999 224.103 132.265 221.653 130.829 222.494Z" fill="#EA9A00"/>
<path d="M103.439 208C102.144 208.1 101.012 210.901 102.834 210.922C104.131 210.822 105.261 208.024 103.439 208Z" fill="#EA9A00"/>
<path d="M104.232 204.836C103.194 204.918 102.286 207.159 103.748 207.18C104.786 207.094 105.691 204.857 104.232 204.836Z" fill="#EA9A00"/>
<path d="M105.034 202.195C104.397 202.566 103.957 204.102 105.054 204.07C106.328 203.973 106.623 201.266 105.034 202.195Z" fill="#EA9A00"/>
<path d="M80.1287 229.901C79.3002 230.387 78.7282 232.386 80.1582 232.345C81.7916 232.18 82.2545 228.686 80.1287 229.901Z" fill="#EA9A00"/>
<path d="M79.7189 226.637C78.7017 226.716 77.8113 228.916 79.2442 228.934C80.2644 228.851 81.1518 226.654 79.7189 226.637Z" fill="#EA9A00"/>
<path d="M78.6015 223.58C78.171 223.901 77.826 224.558 78.0914 225.077C79.3386 226.31 80.5061 222.562 78.6015 223.58Z" fill="#EA9A00"/>
<path d="M91.0642 259.738C90.6632 259.971 90.389 260.935 91.076 260.914C91.875 260.855 92.0578 259.157 91.0642 259.738Z" fill="#EA9A00"/>
<path d="M90.047 256.303C89.5193 256.61 89.1566 257.88 90.0647 257.854C91.1173 257.777 91.3591 255.537 90.047 256.303Z" fill="#EA9A00"/>
<path d="M88.8706 252.768C87.9714 253.24 88.0893 255.168 89.3188 254.363C90.218 253.892 90.1001 251.963 88.8706 252.768Z" fill="#EA9A00"/>
<path d="M102.162 220.772C100.063 222.6 101.121 231.499 101.165 234.459C101.761 245.214 107.168 254.62 111.883 264.022C116.901 274.333 119.89 285.56 121.58 296.876C121.733 298.444 122.04 299.992 122.161 301.567C122.193 301.876 122.485 302.103 122.78 301.962C123.847 300.847 122.818 298.798 122.969 297.365C121.937 279.041 112.823 262.846 105.57 246.447C103.474 240.161 102.389 233.589 102.404 226.961C102.082 225.634 103.539 220.988 102.162 220.772Z" fill="#161616"/>
<path d="M123.564 236.021C116.223 246.302 119.596 259.965 115.533 271.411C115.503 272.785 116.939 272.201 116.904 271.125C119.814 263.111 119.186 254.416 120.707 246.129C121.282 244.15 121.966 242.195 122.792 240.305C123.098 239.212 125.967 236.086 123.564 236.021ZM120.457 247.399C120.454 247.426 120.448 247.452 120.445 247.479C120.448 247.452 120.454 247.426 120.457 247.399Z" fill="#161616"/>
<path d="M86.9542 238.073C86.1051 238.583 86.1464 239.904 87.0692 240.32C88.4373 241.352 89.6402 242.581 90.8225 243.817C95.136 248.045 99.1723 253.03 105.24 254.64C106.225 254.811 108.321 255.628 108.118 253.906C107.941 253.184 106.873 253.449 106.313 253.19C103.085 252.102 100.145 250.353 97.7836 247.877C94.1866 244.828 91.2235 239.886 86.9542 238.073Z" fill="#161616"/>
<path d="M95.764 270.046C93.249 271.152 98.4647 274.598 99.1546 275.981C104.314 282.052 111.438 286.518 119.548 286.636C120.188 286.716 120.507 285.87 120.404 285.342C120.28 284.623 119.319 284.764 118.77 284.617C108.813 284.682 102.177 276.311 95.764 270.046Z" fill="#161616"/>
<path d="M101.643 213.796C100.947 215.636 101.027 217.715 101.095 219.658C101.092 219.605 101.089 219.552 101.083 219.498C101.157 220.174 101.059 220.987 101.49 221.556C101.345 222.081 101.154 223.004 101.841 223.237C102.958 223.741 104.355 217.626 104.524 216.659C104.883 215.011 103.288 211.243 101.643 213.796ZM102.551 216.535C102.554 216.158 102.566 215.781 102.601 215.406C103.017 216.294 102.887 217.343 102.595 218.251C102.542 217.682 102.551 217.107 102.551 216.535ZM103.607 220.059C103.586 220.115 103.568 220.168 103.548 220.224C103.568 220.168 103.586 220.112 103.607 220.059ZM103.536 220.253C103.524 220.286 103.512 220.315 103.5 220.348C103.512 220.318 103.524 220.286 103.536 220.253Z" fill="#161616"/>
<path d="M103.226 214.212C101.608 214.536 102.584 221.898 103.869 218.033C103.866 217.207 103.539 216.408 103.669 215.586C103.76 215.12 103.934 214.215 103.226 214.212ZM102.492 215.58C102.486 215.612 102.483 215.648 102.477 215.68C102.48 215.645 102.486 215.612 102.492 215.58Z" fill="#161616"/>
<path d="M96.0234 221.598C93.88 223.653 97.418 226.219 99.4465 226.431C100.163 227.094 101.148 227.563 101.54 226.316C102.604 226.263 102.631 224.335 101.431 225.019C99.591 224.119 98.3703 220.92 96.0234 221.598ZM96.2446 223.067C96.2239 223.082 96.2062 223.093 96.1856 223.108C96.2033 223.093 96.2239 223.079 96.2446 223.067ZM96.8342 223.143C97.3325 223.359 97.7011 223.795 98.0608 224.196C97.6185 223.886 97.1261 223.603 96.8342 223.143Z" fill="#161616"/>
<path d="M107.867 223.148C105.912 223.608 104.128 224.888 102.41 225.867C100.537 224.782 99.6057 229.249 105.213 228.438C107.41 228.517 111.496 223.803 107.867 223.148ZM107.44 225.05C106.844 225.587 106.133 226.07 105.314 226.138C105.983 225.719 106.667 225.251 107.44 225.05Z" fill="#161616"/>
<path d="M107.074 224.325C105.948 224.794 104.199 226.015 105.216 227.359C105.93 227.81 106.614 226.766 107.319 226.601C108.241 226.236 108.41 223.904 107.074 224.325Z" fill="#161616"/>
<path d="M96.1944 226.86C94.6554 227.164 94.3664 229.222 94.9767 230.446C95.6785 232.333 97.6775 232.972 99.5084 233.17C100.419 233.247 101.855 233.913 102.336 232.795C102.802 231.802 102.309 231.006 101.195 231.144C101.103 230.516 100.531 230.245 100.004 230.036C98.6416 229.151 97.9811 226.981 96.1944 226.86ZM96.0028 228.52C95.991 228.535 95.9762 228.55 95.9644 228.562C95.9762 228.547 95.988 228.532 96.0028 228.52ZM96.103 228.523C96.0912 228.526 96.0765 228.532 96.0647 228.535C96.0765 228.532 96.0912 228.526 96.103 228.523ZM96.0853 228.544C96.2003 228.567 96.3183 228.591 96.4067 228.671C96.2917 228.809 96.2239 228.939 96.1738 229.098C96.0912 228.933 95.9939 228.768 95.9644 228.582C95.9969 228.556 96.0411 228.547 96.0853 228.544Z" fill="#161616"/>
<path d="M107.504 229.971C105.839 230.045 103.999 231.042 102.908 232.233C102.463 231.873 101.914 232.021 101.708 232.56C100.953 234.718 105.157 235.149 106.614 234.839C109.618 234.928 111.676 229.509 107.504 229.971ZM108.023 231.9C108.1 231.909 108.171 231.923 108.241 231.944C107.44 232.702 106.184 232.693 105.143 232.79C105.936 232.109 106.997 231.888 108.023 231.9Z" fill="#161616"/>
<path d="M108.159 230.802C106.652 230.773 104.47 231.646 105.222 233.506C105.824 234.42 107.059 233.441 107.932 233.553C109.088 233.409 109.553 230.838 108.159 230.802Z" fill="#161616"/>
<path d="M95.2421 236.511C94.0215 236.829 93.8918 238.407 94.3163 239.4C95.3777 241.841 98.6681 242.313 101.036 242.004C101.375 242.207 101.852 242.104 102.097 241.794C103.338 241.971 104.025 239.837 102.501 240.176C102.227 239.211 100.965 239.68 100.304 239.094C98.5649 238.398 97.1645 236.505 95.2421 236.511ZM95.4308 238.076C96.6898 238.489 97.6244 239.58 98.7182 240.299C97.4092 240.022 95.705 239.515 95.2893 238.082C95.3365 238.079 95.3836 238.076 95.4308 238.076ZM95.1831 238.094C95.1831 238.097 95.1802 238.1 95.1802 238.103C95.1802 238.1 95.1802 238.097 95.1831 238.094ZM95.1242 238.118C95.1094 238.129 95.0917 238.138 95.077 238.15C95.0917 238.138 95.1094 238.129 95.1242 238.118ZM95.1035 238.153C95.0947 238.162 95.0858 238.171 95.077 238.18C95.0858 238.174 95.0947 238.162 95.1035 238.153ZM96.7163 239.627C96.734 239.636 96.7487 239.645 96.7664 239.654C96.7487 239.645 96.731 239.636 96.7163 239.627Z" fill="#161616"/>
<path d="M95.531 237.298C92.4677 238.533 98.3113 243.805 99.1428 240.603C99.5939 238.843 98.1669 239.297 97.1762 238.648C96.4892 238.377 96.2622 237.351 95.531 237.298ZM97.5801 238.884C97.6008 238.896 97.6244 238.908 97.645 238.919C97.6244 238.908 97.6008 238.896 97.5801 238.884Z" fill="#161616"/>
<path d="M108.351 237.377C106.452 237.713 104.45 238.551 102.952 239.751C99.1781 243.286 106.231 243.97 108.415 242.387C110.249 241.582 111.222 237.021 108.351 237.377ZM108.339 239.332C108.353 239.335 108.365 239.338 108.38 239.341C107.69 239.848 106.77 239.966 105.945 240.096C106.673 239.656 107.472 239.303 108.339 239.332ZM108.477 239.364C108.48 239.37 108.48 239.376 108.483 239.382C108.48 239.376 108.48 239.37 108.477 239.364Z" fill="#161616"/>
<path d="M107.849 238.597C106.561 238.562 105.429 240.078 106.337 241.171C106.632 241.44 106.965 241.266 107.28 241.154C107.767 240.974 108.362 241.263 108.763 240.868C109.725 239.992 109.362 238.205 107.849 238.597Z" fill="#161616"/>
<path d="M81.6353 232.899C78.6929 235.585 83.0741 239.05 85.7572 239.722C87.0957 240.474 88.051 238.195 87.1193 237.345C86.0166 235.845 83.8348 231.976 81.6353 232.899ZM82.4108 234.671C83.1331 234.863 83.6048 235.523 84.0736 236.066C83.4781 235.668 82.7115 235.361 82.4108 234.671ZM81.9714 234.689C81.9685 234.692 81.9685 234.695 81.9685 234.695C81.9685 234.695 81.9685 234.692 81.9714 234.689Z" fill="#161616"/>
<path d="M88.9119 240.423C88.62 240.6 88.4225 240.862 88.1837 241.098C81.6913 240.004 79.9842 248.348 87.3286 243.861C87.2992 243.881 87.2697 243.902 87.2402 243.923C87.6736 243.616 88.1276 243.339 88.5404 243.003C88.9208 243.079 89.1655 242.637 89.2126 242.316C89.8318 241.868 90.0264 240.096 88.9119 240.423ZM86.2377 242.637C85.6186 243.076 84.9021 243.389 84.1355 243.421C84.7635 242.991 85.483 242.726 86.2377 242.637ZM87.6942 243.607C87.6736 243.622 87.65 243.637 87.6294 243.651C87.65 243.637 87.6736 243.622 87.6942 243.607ZM87.3286 243.861C87.3552 243.843 87.3847 243.822 87.4112 243.802C87.3847 243.822 87.3581 243.84 87.3286 243.861Z" fill="#161616"/>
<path d="M87.3552 241.234C86.1611 241.966 82.9061 242.252 84.112 244.28C85.0348 244.513 86.6623 243.626 87.5704 243.23C88.3694 242.888 88.5345 240.884 87.3552 241.234ZM85.9518 243.885C85.9252 243.894 85.8987 243.903 85.8722 243.909C85.8987 243.903 85.9252 243.894 85.9518 243.885Z" fill="#161616"/>
<path d="M91.2824 233.598C88.3488 234.759 89.4397 238.474 89.0151 240.88C88.9503 241.281 88.9827 241.712 89.2775 242.015C90.7812 242.693 91.4328 238.775 92.0638 237.808C92.6888 236.578 93.1016 233.869 91.2824 233.598ZM91.3208 235.225C91.3001 235.225 91.2795 235.222 91.2588 235.222C91.2795 235.219 91.3001 235.222 91.3208 235.225ZM91.194 235.24C91.3444 235.47 91.4564 235.771 91.365 236.039C91.3886 235.771 91.3414 235.464 91.1468 235.263C91.1616 235.255 91.1763 235.246 91.194 235.24ZM91.4063 235.709C91.4063 235.726 91.4092 235.744 91.4092 235.762C91.4092 235.744 91.4063 235.726 91.4063 235.709ZM91.4004 235.936C91.3974 235.959 91.3945 235.986 91.3886 236.009C91.3945 235.986 91.3974 235.959 91.4004 235.936Z" fill="#161616"/>
<path d="M91.7689 243.737C84.165 244.109 85.1822 253.411 92.848 246.011C93.5261 245.952 93.8475 245.067 93.7325 244.471C93.5851 243.605 92.4323 243.779 91.7689 243.737ZM87.6559 246.957C87.6706 246.975 87.6854 246.995 87.6972 247.013C87.6824 246.995 87.6677 246.978 87.6559 246.957ZM88.0333 247.034C88.0333 247.039 88.0333 247.045 88.0333 247.051C88.0274 247.051 88.0244 247.051 88.0185 247.054C88.0244 247.048 88.0303 247.042 88.0333 247.034Z" fill="#161616"/>
<path d="M96.0116 237.068C92.9925 237.033 91.8691 246.376 94.4608 245.545C95.3836 243.676 99.7265 237.912 96.0116 237.068ZM96.0057 239.067C96.2652 239.409 95.9438 239.825 95.82 240.164C95.7492 239.861 95.4779 239.613 95.1625 239.678C95.3718 239.404 95.6372 239.094 96.0057 239.067ZM96.1089 239.138C96.1118 239.156 96.1118 239.177 96.1118 239.194C96.1089 239.177 96.1089 239.156 96.1089 239.138ZM96.1118 239.194C96.1118 239.2 96.1118 239.203 96.1118 239.209C96.1118 239.203 96.1118 239.2 96.1118 239.194ZM95.8347 243.116C95.8141 243.154 95.7905 243.189 95.7698 243.228C95.7934 243.189 95.8141 243.154 95.8347 243.116Z" fill="#161616"/>
<path d="M96.3861 248.711C88.4726 248.703 87.9891 259.842 97.1438 250.563C97.816 250.478 98.1344 249.174 97.4327 248.921C97.2322 248.484 96.7458 248.479 96.3861 248.711ZM92.108 252.008C92.0873 252.155 92.0903 252.306 92.1198 252.45C91.993 252.512 91.8515 252.544 91.7129 252.553C91.8249 252.359 91.9694 252.185 92.108 252.008ZM91.4711 252.465C91.48 252.48 91.4918 252.491 91.5006 252.506C91.4888 252.491 91.48 252.48 91.4711 252.465ZM91.6185 252.742C91.6215 252.751 91.6244 252.757 91.6274 252.766C91.6244 252.76 91.6215 252.751 91.6185 252.742C91.6185 252.745 91.6185 252.745 91.6185 252.742Z" fill="#161616"/>
<path d="M99.6292 241.706C97.4327 242.275 97.76 246.766 97.2204 248.665C96.3064 249.696 97.4091 251.657 98.3496 249.965C99.5998 247.945 101.708 246.005 101.41 243.416C101.316 242.526 100.629 241.524 99.6292 241.706ZM99.3993 243.735C100.475 244.039 99.3521 245.421 99.0749 246.02C99.1398 245.253 99.1752 244.478 99.3934 243.735C99.3934 243.735 99.3963 243.735 99.3993 243.735Z" fill="#161616"/>
<path d="M100.505 242.582C99.3639 242.992 97.2853 246.724 98.9098 247.462C99.9712 247.603 100.184 246.214 100.641 245.536C101.292 244.779 102.032 242.741 100.505 242.582Z" fill="#161616"/>
<path d="M101.616 252.225C98.7684 252.455 95.6342 254.619 94.8883 257.444C95.5369 261.483 100.994 256.409 101.879 254.64C102.769 254.923 103.321 253.313 102.704 252.765C102.383 252.523 102.035 252.21 101.616 252.225ZM96.3536 257.52C96.3478 257.532 96.3448 257.547 96.3389 257.559C96.3419 257.547 96.3478 257.532 96.3536 257.52Z" fill="#161616"/>
<path d="M102.253 246.579C101.469 248.434 101.531 250.713 101.994 252.632C101.982 252.653 101.973 252.671 101.961 252.691C101.973 252.674 101.985 252.653 101.994 252.635C101.655 253.039 101.342 254.098 102.121 254.163C102.993 253.644 103.329 252.358 103.686 251.435C103.999 249.778 104.807 247.243 103.167 246.081C102.787 245.901 102.421 246.264 102.253 246.579ZM102.802 247.735C103.191 248.572 102.949 249.584 102.808 250.462C102.592 249.575 102.53 248.614 102.802 247.735Z" fill="#161616"/>
<path d="M101.964 248.451C101.743 249.324 100.717 251.308 102.124 251.565C103.22 251.238 103.023 249.713 103.492 248.858C103.916 247.375 102.368 246.93 101.964 248.451Z" fill="#161616"/>
<path d="M126.628 230.148C124.714 230.422 121.71 235.266 122.942 236.917C123.078 239.845 126.53 234.853 127.22 234.164C128.367 233.09 128.921 229.959 126.628 230.148ZM126.949 231.999C126.946 232.014 126.946 232.029 126.943 232.044C126.943 232.029 126.946 232.014 126.949 231.999Z" fill="#161616"/>
<path d="M117.004 236.331C113.864 237.988 117.57 242.115 120.162 241.709C120.734 241.832 121.718 241.591 121.866 240.921C122.004 240.532 121.813 239.866 121.294 240.052C120.318 239.14 118.228 236.056 117.004 236.331ZM116.951 237.84C116.948 237.843 116.945 237.846 116.942 237.852V237.849C116.945 237.843 116.948 237.84 116.951 237.84ZM116.924 237.867C116.924 237.87 116.924 237.873 116.924 237.879C116.924 237.873 116.924 237.87 116.924 237.867ZM116.901 237.884C116.898 237.899 116.898 237.914 116.892 237.929C116.895 237.911 116.898 237.896 116.901 237.884ZM116.868 237.935C116.865 237.943 116.863 237.955 116.857 237.964C116.863 237.955 116.865 237.943 116.868 237.935Z" fill="#161616"/>
<path d="M121.539 240.559C119.678 242.661 124.345 245.839 126.297 245.686C127.813 245.736 129.493 244.392 128.877 242.776C127.418 240.848 124.673 241.072 122.538 240.709C122.364 240.297 121.839 240.252 121.539 240.559ZM124.891 242.758C125.486 242.794 126.073 242.944 126.613 243.198C126.008 243.221 125.419 243.056 124.891 242.758Z" fill="#161616"/>
<path d="M125.487 242.472C124.307 243.398 125.566 244.094 126.377 244.589C126.846 244.902 127.241 244.238 127.238 243.823C127.229 243.13 126.103 242.446 125.487 242.472ZM126.002 242.564C125.955 242.537 125.905 242.511 125.858 242.484C125.905 242.511 125.955 242.537 126.002 242.564ZM125.858 242.484C125.855 242.484 125.855 242.484 125.858 242.484V242.484Z" fill="#161616"/>
<path d="M113.658 242.378C110.149 243.705 114.126 247.29 116.385 247.399C117.205 247.603 118.396 248.617 118.938 247.461C119.796 247.585 120.153 246.111 119.106 246.45C119.148 245.695 114.433 242.346 113.658 242.378ZM113.389 243.664C113.386 243.684 113.383 243.705 113.381 243.723C113.383 243.702 113.386 243.684 113.389 243.664ZM113.398 243.758C113.395 243.764 113.392 243.773 113.392 243.779C113.392 243.77 113.395 243.764 113.398 243.758ZM113.451 243.855C113.445 243.861 113.437 243.864 113.431 243.87C113.437 243.867 113.445 243.861 113.451 243.855ZM113.336 243.923C113.324 243.926 113.313 243.929 113.301 243.935C113.316 243.929 113.324 243.926 113.336 243.923ZM113.304 243.985C113.298 243.991 113.295 243.997 113.289 244.003C113.295 243.994 113.301 243.991 113.304 243.985Z" fill="#161616"/>
<path d="M119.457 246.172C115.904 247.927 122.447 253.048 124.717 252.564C126.159 252.561 127.571 251.016 126.807 249.61C125.265 247.788 122.456 247.378 120.294 246.733C120.076 246.467 119.855 246.096 119.457 246.172ZM125.419 250.99C125.419 250.993 125.419 250.993 125.419 250.99C125.419 250.996 125.419 250.999 125.419 251.005C125.419 251.002 125.419 250.996 125.419 250.99Z" fill="#161616"/>
<path d="M112.036 250.545C110.55 250.91 110.821 252.962 111.815 253.738C113.587 255.05 115.854 255.869 117.874 256.456C118.484 256.887 119.13 257.273 119.787 257.63C119.764 257.618 119.743 257.606 119.72 257.594C119.79 257.633 119.861 257.671 119.932 257.709C119.896 257.689 119.861 257.671 119.826 257.65C129.131 263.152 128.046 252.219 119.469 254.982C119.463 254.979 119.457 254.973 119.451 254.97C119.463 254.64 119.195 254.289 118.859 254.54C118.693 253.484 117.493 253.145 116.68 252.691C115.27 251.733 113.935 250.153 112.036 250.545ZM112.175 251.577C112.172 251.591 112.169 251.603 112.169 251.618C112.169 251.603 112.172 251.591 112.175 251.577ZM113.484 252.933C113.165 252.706 112.835 252.482 112.552 252.208C113.404 252.346 114.073 252.918 114.578 253.593C114.197 253.402 113.832 253.178 113.484 252.933ZM124.935 257.868C124.938 257.889 124.938 257.91 124.938 257.93C124.938 257.91 124.938 257.889 124.935 257.868Z" fill="#161616"/>
<path d="M111.281 257.2C109.825 259.314 113.867 262 115.663 262.507C115.966 262.852 116.237 263.409 116.748 263.43C118.107 265.01 120.872 267.782 122.88 265.736C123.487 264.963 123.585 263.704 122.627 263.168C121.453 262.327 119.746 262.587 118.752 261.434C118.59 261.278 118.393 261.292 118.219 261.384C118.036 261.03 117.608 261.186 117.29 261.104C115.489 260.255 113.18 256.168 111.281 257.2ZM116.815 263.439C116.821 263.442 116.824 263.445 116.83 263.448C116.824 263.445 116.821 263.442 116.815 263.439Z" fill="#161616"/>
<path d="M92.3085 263.052C90.4274 265.001 92.8245 268.12 93.9389 269.966C94.5581 270.52 94.9266 272.584 95.9733 271.885C96.3507 271.531 96.5188 270.927 96.3448 270.426C96.3065 269.441 93.5232 262.167 92.3085 263.052Z" fill="#161616"/>
<path d="M100.817 265.561C98.6563 266.932 98.1374 269.76 97.2883 272.003C95.248 272.723 92.2525 272.785 91.1291 274.902C90.6574 276.579 92.7183 276.476 93.7827 276.152C95.2274 275.538 97.2676 275.297 98.0549 273.793C99.3079 273.66 99.5615 271.989 100.228 271.125C101.012 270.119 103.418 265.372 100.817 265.561ZM92.164 274.386C92.1699 274.392 92.1758 274.4 92.1817 274.406C92.1817 274.406 92.1817 274.406 92.1788 274.406C92.1729 274.4 92.167 274.392 92.164 274.386Z" fill="#161616"/>
<path d="M101.042 265.494C99.9949 265.485 99.4317 267.572 100.626 267.684C102.032 267.557 100.523 269.84 100.254 270.488C99.5998 271.476 98.5177 272.045 97.6509 272.823C97.2293 272.747 96.8489 273.074 96.4745 273.23C88.6819 272.643 88.794 280.813 95.6283 276.167C95.5929 276.19 95.5576 276.217 95.5222 276.24C96.1413 275.792 96.8548 275.474 97.4268 274.958C97.7187 275.058 97.9693 274.719 98.0548 274.486C100.794 273.221 102.928 270.137 102.669 267.077C102.522 266.275 101.991 265.314 101.042 265.494ZM93.6883 275.173C93.2431 275.403 92.7684 275.618 92.2613 275.66C92.7006 275.412 93.2018 275.297 93.6883 275.173ZM91.7807 276.046C91.7777 276.058 91.7777 276.072 91.7748 276.087C91.7777 276.072 91.7777 276.058 91.7807 276.046ZM91.7571 276.052C91.7483 276.061 91.7394 276.069 91.7306 276.078C91.7394 276.072 91.7483 276.061 91.7571 276.052ZM91.7424 276.125C91.7394 276.134 91.7365 276.143 91.7335 276.152C91.7365 276.143 91.7394 276.134 91.7424 276.125Z" fill="#161616"/>
<path d="M100.107 276.199C91.2264 277.812 94.2721 287.447 100.885 278.363C101.549 278.012 101.855 276.718 101.112 276.308C100.856 275.987 100.425 275.969 100.107 276.199ZM96.905 279.548C96.849 279.634 96.8018 279.734 96.7694 279.84C96.6721 279.896 96.563 279.932 96.4539 279.943C96.5984 279.805 96.7487 279.675 96.905 279.548Z" fill="#161616"/>
<path d="M105.246 270.353C103.082 271.299 102.215 274.032 101.384 276.075C99.6647 279.861 104.126 277.617 105.107 275.943C106.178 274.666 107.902 270.624 105.246 270.353Z" fill="#161616"/>
<path d="M105.287 279.919C95.1507 280.373 96.9168 294.13 105.016 282.065C105.992 282.077 106.408 279.966 105.287 279.919Z" fill="#161616"/>
<path d="M109.076 274.471C107.487 275.627 106.652 277.708 105.933 279.492C104.812 279.51 104.117 280.763 104.574 281.753C105.157 282.608 106.593 281.777 107.381 281.532C109.68 280.807 113.487 274.17 109.076 274.471Z" fill="#161616"/>
<path d="M110.895 283.779C101.54 286.554 105.909 297.964 111.841 285.669C112.977 284.785 112.266 283.517 110.895 283.779Z" fill="#161616"/>
<path d="M113.805 276.856C111.788 278.384 111.358 281.568 111.087 283.959C109.727 285.666 111.113 287.034 112.738 285.36C114.607 283.708 118.676 276.865 113.805 276.856Z" fill="#161616"/>
</g>
</g>
<defs>
<clipPath id="clip0">
<rect width="152.091" height="300" fill="white"/>
</clipPath>
<clipPath id="clip1">
<rect width="53.8108" height="100" fill="white" transform="translate(78 202)"/>
</clipPath>
</defs>
</svg>
