<svg width="80" height="84" viewBox="0 0 80 84" fill="none" xmlns="http://www.w3.org/2000/svg">
<g clip-path="url(#clip0)">
<path d="M37.5477 -16C28.4665 -15.4587 18.9696 -11.9789 13.1942 -4.6714C5.37434 3.72838 -1.05358 15.2406 3.41213 26.8157C5.9108 33.4418 8.49164 41.3921 13.8901 46.4474C23.329 53.1315 36.0785 53.2427 46.9963 50.5072C62.2106 45.3697 78.1693 31.5956 79.0006 14.4239C76.1926 -6.27597 61.0459 -14.4389 41.4867 -14.8497C40.3267 -15.7294 39.0991 -15.9855 37.5477 -16Z" fill="#E8E8E8"/>
<path d="M2.99647 48.6175C2.90948 48.6513 2.82732 48.6803 2.74999 48.719C-0.565463 48.5353 -0.140158 58.2014 3.75526 57.0704C7.31719 56.2392 7.54434 47.6219 2.99647 48.6175Z" fill="#2D2E30"/>
<path d="M7.76664 35.955C5.05049 35.81 4.74117 44.8187 8.02279 44.4852C12.4885 44.5239 12.9041 33.3886 7.76664 35.955Z" fill="#2D2E30"/>
<path d="M13.2908 18.8847C9.34704 19.9335 8.83957 31.7744 14.0399 30.9721C19.3031 29.6237 19.535 18.4256 13.2908 18.8847Z" fill="#2D2E30"/>
<path d="M20.84 7.93795C17.655 7.6963 16.8865 15.1005 19.8878 15.7674C25.1413 16.6519 26.1563 7.29516 20.84 7.93795Z" fill="#2D2E30"/>
<path d="M36.3201 12.5245C31.3035 13.9309 31.1923 24.5587 36.8276 24.8873C42.9462 24.4524 42.5112 12.1668 36.3201 12.5245Z" fill="#2D2E30"/>
<path d="M28.3215 27.415C23.7446 28.9132 23.4788 40.5463 29.3219 39.9229C35.2569 38.1636 36.0302 26.1778 28.3215 27.415Z" fill="#2D2E30"/>
<path d="M22.4832 42.0446C19.5254 43.2577 20.376 52.0199 24.4793 50.8745C27.5482 49.6952 27.4661 43.1272 24.0926 42.407C23.6431 42.0639 23.039 41.8851 22.4832 42.0446ZM24.0926 45.8916C24.1023 45.8965 24.1119 45.9061 24.1168 45.911C24.1071 45.9061 24.0974 45.9013 24.0926 45.8916Z" fill="#2D2E30"/>
<path d="M17.8386 55.3499C14.8567 57.2058 16.1326 65.0836 20.3422 63.3485C23.2275 61.338 22.256 53.8758 17.8386 55.3499Z" fill="#2D2E30"/>
<path d="M35.4792 58.1047C30.5882 58.2158 30.3272 65.649 33.3913 68.1912C37.9972 70.1341 38.7995 62.8072 37.1949 59.9847C37.6251 58.9263 36.5618 57.7954 35.4792 58.1047Z" fill="#2D2E30"/>
<path d="M38.089 48.0907C36.7116 49.2554 36.615 51.6816 36.6923 53.3877C37.0548 55.0986 39.3215 55.7365 40.4476 54.3543C42.7432 52.2616 42.0908 46.1671 38.089 48.0907ZM40.7424 50.2897C40.7279 50.3235 40.7182 50.3525 40.7037 50.3864C40.7134 50.3525 40.7279 50.3187 40.7424 50.2897ZM37.7024 52.0344C37.6879 52.0441 37.6782 52.0538 37.6637 52.0634C37.6782 52.0586 37.6879 52.0441 37.7024 52.0344ZM39.7613 52.1939C39.7758 52.2132 39.7951 52.2374 39.8096 52.2567C39.7951 52.2374 39.7758 52.2181 39.7613 52.1939Z" fill="#2D2E30"/>
<path d="M45.5174 34.1909C41.8443 35.1188 40.9212 42.5375 44.6813 43.7941C49.8429 44.5819 51.5103 33.1905 45.5174 34.1909Z" fill="#2D2E30"/>
<path d="M50.0701 22.031C45.9475 21.9102 45.7687 29.7348 49.4756 30.1795C53.0907 29.701 54.6228 22.2823 50.0701 22.031ZM51.2155 25.1241C51.2059 25.1338 51.201 25.1435 51.1914 25.1531V25.1483C51.1962 25.1386 51.2059 25.129 51.2155 25.1241Z" fill="#2D2E30"/>
<path d="M61.215 27.0912C57.6386 29.3241 56.6526 38.1878 62.7954 36.0516C66.3912 34.2006 66.5071 25.3803 61.215 27.0912ZM60.5819 32.5573C60.548 32.5815 60.5094 32.5863 60.4707 32.6008C60.5045 32.5912 60.5432 32.5718 60.5819 32.5573Z" fill="#2D2E30"/>
<path d="M57.3631 43.4123C54.2651 44.751 53.9945 53.2813 58.668 52.0731C62.1623 50.9663 62.5103 43.9343 58.4167 43.5959C58.1025 43.364 57.7304 43.3446 57.3631 43.4123Z" fill="#2D2E30"/>
<path d="M49.9976 55.3982C46.6289 56.9206 46.6676 64.8999 50.6645 65.4654C56.2225 65.4171 56.4786 52.6627 49.9976 55.3982Z" fill="#2D2E30"/>
<path d="M44.1689 67.5484C40.2349 69.8247 42.98 76.678 47.1074 73.4785C50.505 71.4728 48.0837 65.0062 44.1689 67.5484Z" fill="#2D2E30"/>
<path d="M29.8246 73.986C25.3782 75.9337 26.7991 86.025 32.3571 83.6375C36.4265 81.6946 35.5565 71.4003 29.8246 73.986ZM32.3861 77.9346C32.3571 77.9491 32.3281 77.9587 32.2991 77.9732C32.3281 77.9539 32.3571 77.9442 32.3861 77.9346Z" fill="#2D2E30"/>
<path d="M14.1028 70.8735C10.1348 71.7966 9.55488 79.4859 14.2477 79.5294C18.5201 79.4569 18.8826 70.0422 14.1028 70.8735Z" fill="#2D2E30"/>
<path d="M2.30534 63.5467C-0.913452 64.6921 -0.956949 72.6279 3.38793 71.932C7.35101 70.7479 7.12386 62.7202 2.30534 63.5467ZM1.58522 68.4619C1.54655 68.515 1.50789 68.5682 1.46923 68.6165C1.50789 68.5634 1.54655 68.5102 1.58522 68.4619Z" fill="#2D2E30"/>
<path d="M35.658 -4.00446C33.024 -3.95613 30.2064 -1.36563 30.883 1.39403C29.7811 4.33734 32.763 7.39664 35.629 5.70508C39.2055 3.8637 40.9405 -3.40033 35.658 -4.00446Z" fill="#2D2E30"/>
<path d="M47.7889 0.151953C43.6808 2.21082 44.7731 11.5095 50.331 9.1027C54.9224 6.67169 53.9365 -2.02291 47.7889 0.151953Z" fill="#2D2E30"/>
<path d="M58.4312 6.39622C57.5467 6.61854 56.8315 7.39665 56.6575 8.29076C53.052 10.8909 54.0766 18.155 59.3543 15.8786C63.2835 14.3224 63.501 5.91292 58.4312 6.39622ZM58.5762 12.2538C58.6245 12.3118 58.668 12.3698 58.7163 12.4327C58.6632 12.3747 58.61 12.3167 58.5762 12.2538Z" fill="#2D2E30"/>
<path d="M66.3477 14.7235C63.2546 16.7244 62.9694 24.8584 67.9619 23.9884C71.548 22.8382 72.7998 15.8883 68.4114 15.0522C67.8943 14.4915 67.0147 14.3369 66.3477 14.7235Z" fill="#2D2E30"/>
</g>
<defs>
<clipPath id="clip0">
<rect width="79.0054" height="100" fill="white" transform="translate(0 -16)"/>
</clipPath>
</defs>
</svg>
