<svg width="40" height="40" viewBox="0 0 40 40" fill="none" xmlns="http://www.w3.org/2000/svg">
<path fill-rule="evenodd" clip-rule="evenodd" d="M33.2649 6.68015C29.7566 3.16772 25.0908 1.23253 20.1202 1.23047C9.8777 1.23047 1.54182 9.56612 1.5377 19.8113C1.53633 23.0864 2.39189 26.2834 4.0181 29.1014L1.38184 38.7305L11.2327 36.1464C13.947 37.627 17.0028 38.4073 20.1126 38.4082H20.1204C30.3617 38.4082 38.6985 30.0719 38.7024 19.8262C38.7045 14.8608 36.7734 10.1923 33.2649 6.68015ZM20.1202 35.27H20.1138C17.3425 35.2689 14.6245 34.5241 12.2528 33.1171L11.6891 32.7823L5.84343 34.3158L7.40372 28.6164L7.03636 28.0321C5.49027 25.573 4.67384 22.7307 4.67522 19.8125C4.67842 11.2969 11.6071 4.3689 20.1263 4.3689C24.2517 4.37027 28.1297 5.97885 31.0456 8.89824C33.9616 11.8176 35.5665 15.6981 35.5651 19.8251C35.5615 28.3413 28.6332 35.27 20.1202 35.27V35.27ZM28.592 23.7025C28.1278 23.47 25.845 22.3471 25.4192 22.1919C24.994 22.037 24.6841 21.9598 24.3749 22.4245C24.0652 22.8891 23.1755 23.9351 22.9045 24.2448C22.6335 24.5547 22.363 24.5936 21.8986 24.361C21.4342 24.1287 19.9382 23.6382 18.1646 22.0564C16.7844 20.8253 15.8527 19.3048 15.5817 18.8402C15.3111 18.3751 15.5794 18.148 15.7854 17.8926C16.288 17.2684 16.7913 16.6141 16.946 16.3044C17.101 15.9945 17.0234 15.7233 16.9071 15.491C16.7913 15.2586 15.8627 12.9733 15.4759 12.0433C15.0987 11.1383 14.7163 11.2605 14.4311 11.2463C14.1605 11.2328 13.8509 11.2301 13.5412 11.2301C13.2317 11.2301 12.7287 11.3461 12.3029 11.8112C11.8774 12.2761 10.6781 13.3992 10.6781 15.6846C10.6781 17.97 12.3418 20.1778 12.5739 20.4877C12.806 20.7976 15.8481 25.4874 20.5056 27.4983C21.6134 27.9771 22.4781 28.2626 23.1526 28.4766C24.265 28.83 25.2769 28.7801 26.077 28.6606C26.9692 28.5271 28.8239 27.5372 29.2111 26.4528C29.5979 25.3681 29.5979 24.4386 29.4817 24.2448C29.3659 24.0511 29.0562 23.9351 28.592 23.7025V23.7025Z" fill="#FAFAFA"/>
</svg>
